jost-Regular.ufo
<glyph name="quotedbl" format="2">
  <advance width="930"/>
  <unicode hex="0022"/>
  <outline>
    <contour>
      <point x="520" y="800" type="line"/>
      <point x="630" y="800" type="line"/>
      <point x="810" y="1400" type="line"/>
      <point x="620" y="1400" type="line"/>
    </contour>
    <contour>
      <point x="160" y="800" type="line"/>
      <point x="270" y="800" type="line"/>
      <point x="450" y="1400" type="line"/>
      <point x="260" y="1400" type="line"/>
    </contour>
  </outline>
</glyph>
<glyph name="numbersign" format="2">
  <advance width="1210"/>
  <unicode hex="0023"/>
  <outline>
    <contour>
      <point x="150" y="0" type="line"/>
      <point x="300" y="0" type="line"/>
      <point x="397" y="400" type="line"/>
      <point x="666" y="400" type="line"/>
      <point x="570" y="0" type="line"/>
      <point x="720" y="0" type="line"/>
      <point x="817" y="400" type="line"/>
      <point x="1060" y="400" type="line"/>
      <point x="1060" y="530" type="line"/>
      <point x="849" y="530" type="line"/>
      <point x="934" y="880" type="line"/>
      <point x="1140" y="880" type="line"/>
      <point x="1140" y="1010" type="line"/>
      <point x="965" y="1010" type="line"/>
      <point x="1060" y="1400" type="line"/>
      <point x="910" y="1400" type="line"/>
      <point x="815" y="1010" type="line"/>
      <point x="545" y="1010" type="line"/>
      <point x="640" y="1400" type="line"/>
      <point x="490" y="1400" type="line"/>
      <point x="395" y="1010" type="line"/>
      <point x="150" y="1010" type="line"/>
      <point x="150" y="880" type="line"/>
      <point x="364" y="880" type="line"/>
      <point x="279" y="530" type="line"/>
      <point x="70" y="530" type="line"/>
      <point x="70" y="400" type="line"/>
      <point x="247" y="400" type="line"/>
    </contour>
    <contour>
      <point x="428" y="530" type="line"/>
      <point x="513" y="880" type="line"/>
      <point x="783" y="880" type="line"/>
      <point x="699" y="530" type="line"/>
    </contour>
  </outline>
</glyph>
<glyph name="dollar" format="2">
  <advance width="1160"/>
  <unicode hex="0024"/>
  <outline>
    <contour>
      <point x="518" y="-224" type="line"/>
      <point x="666" y="-224" type="line"/>
      <point x="666" y="-18" type="line"/>
      <point x="899" y="2"/>
      <point x="1036" y="150"/>
      <point x="1036" y="380" type="curve" smooth="yes"/>
      <point x="1036" y="565"/>
      <point x="915" y="706"/>
      <point x="682" y="792" type="curve" smooth="yes"/>
      <point x="438" y="884"/>
      <point x="358" y="952"/>
      <point x="358" y="1068" type="curve" smooth="yes"/>
      <point x="358" y="1195"/>
      <point x="434" y="1258"/>
      <point x="588" y="1258" type="curve" smooth="yes"/>
      <point x="709" y="1258"/>
      <point x="797" y="1189"/>
      <point x="880" y="1028" type="curve"/>
      <point x="1018" y="1120" type="line"/>
      <point x="959" y="1271"/>
      <point x="821" y="1386"/>
      <point x="666" y="1413" type="curve"/>
      <point x="666" y="1636" type="line"/>
      <point x="518" y="1636" type="line"/>
      <point x="518" y="1416" type="line"/>
      <point x="318" y="1388"/>
      <point x="180" y="1247"/>
      <point x="180" y="1072" type="curve" smooth="yes"/>
      <point x="180" y="896"/>
      <point x="303" y="758"/>
      <point x="532" y="676" type="curve" smooth="yes"/>
      <point x="767" y="591"/>
      <point x="860" y="503"/>
      <point x="860" y="366" type="curve" smooth="yes"/>
      <point x="860" y="221"/>
      <point x="774" y="140"/>
      <point x="620" y="140" type="curve" smooth="yes"/>
      <point x="462" y="140"/>
      <point x="348" y="237"/>
      <point x="254" y="452" type="curve"/>
      <point x="110" y="366" type="line"/>
      <point x="189" y="161"/>
      <point x="338" y="23"/>
      <point x="518" y="-11" type="curve"/>
    </contour>
  </outline>
</glyph>
<glyph name="percent" format="2">
  <advance width="1502"/>
  <unicode hex="0025"/>
  <outline>
    <contour>
      <point x="386" y="780" type="curve" smooth="yes"/>
      <point x="576" y="780"/>
      <point x="702" y="922"/>
      <point x="702" y="1100" type="curve" smooth="yes"/>
      <point x="702" y="1278"/>
      <point x="576" y="1420"/>
      <point x="386" y="1420" type="curve" smooth="yes"/>
      <point x="196" y="1420"/>
      <point x="70" y="1278"/>
      <point x="70" y="1100" type="curve" smooth="yes"/>
      <point x="70" y="922"/>
      <point x="196" y="780"/>
    </contour>
    <contour>
      <point x="386" y="910" type="curve" smooth="yes"/>
      <point x="276" y="910"/>
      <point x="212" y="998"/>
      <point x="212" y="1100" type="curve" smooth="yes"/>
      <point x="212" y="1202"/>
      <point x="276" y="1290"/>
      <point x="386" y="1290" type="curve" smooth="yes"/>
      <point x="496" y="1290"/>
      <point x="560" y="1202"/>
      <point x="560" y="1100" type="curve" smooth="yes"/>
      <point x="560" y="998"/>
      <point x="496" y="910"/>
    </contour>
    <contour>
      <point x="1116" y="-20" type="curve" smooth="yes"/>
      <point x="1306" y="-20"/>
      <point x="1432" y="122"/>
      <point x="1432" y="300" type="curve" smooth="yes"/>
      <point x="1432" y="478"/>
      <point x="1306" y="620"/>
      <point x="1116" y="620" type="curve" smooth="yes"/>
      <point x="926" y="620"/>
      <point x="800" y="478"/>
      <point x="800" y="300" type="curve" smooth="yes"/>
      <point x="800" y="122"/>
      <point x="926" y="-20"/>
    </contour>
    <contour>
      <point x="1116" y="110" type="curve" smooth="yes"/>
      <point x="1006" y="110"/>
      <point x="942" y="198"/>
      <point x="942" y="300" type="curve" smooth="yes"/>
      <point x="942" y="402"/>
      <point x="1006" y="490"/>
      <point x="1116" y="490" type="curve" smooth="yes"/>
      <point x="1226" y="490"/>
      <point x="1290" y="402"/>
      <point x="1290" y="300" type="curve" smooth="yes"/>
      <point x="1290" y="198"/>
      <point x="1226" y="110"/>
    </contour>
    <contour>
      <point x="226" y="0" type="line"/>
      <point x="376" y="0" type="line"/>
      <point x="1276" y="1400" type="line"/>
      <point x="1126" y="1400" type="line"/>
    </contour>
  </outline>
</glyph>
<glyph name="ampersand" format="2">
  <advance width="1350"/>
  <unicode hex="0026"/>
  <outline>
    <contour>
      <point x="530" y="-20" type="curve" smooth="yes"/>
      <point x="798" y="-20"/>
      <point x="1008" y="131"/>
      <point x="1328" y="554" type="curve"/>
      <point x="1204" y="632" type="line"/>
      <point x="951" y="286"/>
      <point x="743" y="128"/>
      <point x="540" y="128" type="curve" smooth="yes"/>
      <point x="371" y="128"/>
      <point x="250" y="232"/>
      <point x="250" y="376" type="curve" smooth="yes"/>
      <point x="250" y="505"/>
      <point x="295" y="550"/>
      <point x="618" y="740" type="curve" smooth="yes"/>
      <point x="812" y="855"/>
      <point x="912" y="980"/>
      <point x="912" y="1108" type="curve" smooth="yes"/>
      <point x="912" y="1290"/>
      <point x="771" y="1422"/>
      <point x="576" y="1422" type="curve" smooth="yes"/>
      <point x="372" y="1422"/>
      <point x="234" y="1297"/>
      <point x="234" y="1112" type="curve" smooth="yes"/>
      <point x="234" y="1019"/>
      <point x="250" y="994"/>
      <point x="446" y="768" type="curve" smooth="yes"/>
      <point x="1118" y="0" type="line"/>
      <point x="1310" y="0" type="line"/>
      <point x="570" y="850" type="line" smooth="yes"/>
      <point x="418" y="1025"/>
      <point x="402" y="1050"/>
      <point x="402" y="1112" type="curve" smooth="yes"/>
      <point x="402" y="1216"/>
      <point x="468" y="1280"/>
      <point x="576" y="1280" type="curve" smooth="yes"/>
      <point x="683" y="1280"/>
      <point x="750" y="1213"/>
      <point x="750" y="1108" type="curve" smooth="yes"/>
      <point x="750" y="1019"/>
      <point x="663" y="921"/>
      <point x="508" y="834" type="curve" smooth="yes"/>
      <point x="165" y="642"/>
      <point x="80" y="549"/>
      <point x="80" y="366" type="curve" smooth="yes"/>
      <point x="80" y="148"/>
      <point x="276" y="-20"/>
    </contour>
  </outline>
</glyph>
<glyph name="parenleft" format="2">
  <advance width="620"/>
  <unicode hex="0028"/>
  <outline>
    <contour>
      <point x="410" y="-400" type="curve"/>
      <point x="560" y="-400" type="line"/>
      <point x="428" y="-119"/>
      <point x="360" y="216"/>
      <point x="360" y="580" type="curve" smooth="yes"/>
      <point x="360" y="944"/>
      <point x="428" y="1279"/>
      <point x="560" y="1560" type="curve"/>
      <point x="410" y="1560" type="line"/>
      <point x="259" y="1275"/>
      <point x="180" y="940"/>
      <point x="180" y="580" type="curve" smooth="yes"/>
      <point x="180" y="220"/>
      <point x="259" y="-115"/>
    </contour>
  </outline>
</glyph>
<glyph name="parenright" format="2">
  <advance width="620"/>
  <unicode hex="0029"/>
  <outline>
    <contour>
      <point x="60" y="-400" type="curve"/>
      <point x="210" y="-400" type="line"/>
      <point x="361" y="-116"/>
      <point x="440" y="219"/>
      <point x="440" y="580" type="curve" smooth="yes"/>
      <point x="440" y="941"/>
      <point x="361" y="1276"/>
      <point x="210" y="1560" type="curve"/>
      <point x="60" y="1560" type="line"/>
      <point x="192" y="1278"/>
      <point x="260" y="943"/>
      <point x="260" y="580" type="curve" smooth="yes"/>
      <point x="260" y="217"/>
      <point x="192" y="-118"/>
    </contour>
  </outline>
</glyph>
<glyph name="asterisk" format="2">
  <advance width="1184"/>
  <unicode hex="002A"/>
  <outline>
    <contour>
      <point x="764" y="652" type="line"/>
      <point x="878" y="736" type="line"/>
      <point x="679" y="981" type="line"/>
      <point x="984" y="1064" type="line"/>
      <point x="942" y="1198" type="line"/>
      <point x="646" y="1085" type="line"/>
      <point x="662" y="1400" type="line"/>
      <point x="522" y="1400" type="line"/>
      <point x="538" y="1085" type="line"/>
      <point x="242" y="1198" type="line"/>
      <point x="200" y="1064" type="line"/>
      <point x="505" y="981" type="line"/>
      <point x="306" y="736" type="line"/>
      <point x="420" y="654" type="line"/>
      <point x="592" y="918" type="line"/>
    </contour>
  </outline>
</glyph>
<glyph name="plus" format="2">
  <advance width="1230"/>
  <unicode hex="002B"/>
  <outline>
    <contour>
      <point x="530" y="20" type="line"/>
      <point x="700" y="20" type="line"/>
      <point x="700" y="430" type="line"/>
      <point x="1100" y="430" type="line"/>
      <point x="1100" y="590" type="line"/>
      <point x="700" y="590" type="line"/>
      <point x="700" y="1000" type="line"/>
      <point x="530" y="1000" type="line"/>
      <point x="530" y="590" type="line"/>
      <point x="130" y="590" type="line"/>
      <point x="130" y="430" type="line"/>
      <point x="530" y="430" type="line"/>
    </contour>
  </outline>
</glyph>
<glyph name="comma" format="2">
  <advance width="616"/>
  <unicode hex="002C"/>
  <outline>
    <contour>
      <point x="236" y="-340" type="line"/>
      <point x="456" y="160" type="line"/>
      <point x="296" y="220" type="line"/>
      <point x="120" y="-298" type="line"/>
    </contour>
  </outline>
</glyph>
<glyph name="slash" format="2">
  <advance width="1030"/>
  <unicode hex="002F"/>
  <outline>
    <contour>
      <point x="30" y="-300" type="line"/>
      <point x="190" y="-300" type="line"/>
      <point x="1000" y="1400" type="line"/>
      <point x="840" y="1400" type="line"/>
    </contour>
  </outline>
</glyph>
<glyph name="zero" format="2">
  <advance width="1200"/>
  <unicode hex="0030"/>
  <outline>
    <contour>
      <point x="600" y="-20" type="curve" smooth="yes"/>
      <point x="905" y="-20"/>
      <point x="1120" y="278"/>
      <point x="1120" y="700" type="curve" smooth="yes"/>
      <point x="1120" y="1122"/>
      <point x="905" y="1420"/>
      <point x="600" y="1420" type="curve" smooth="yes"/>
      <point x="295" y="1420"/>
      <point x="80" y="1122"/>
      <point x="80" y="700" type="curve" smooth="yes"/>
      <point x="80" y="278"/>
      <point x="295" y="-20"/>
    </contour>
    <contour>
      <point x="600" y="140" type="curve" smooth="yes"/>
      <point x="390" y="140"/>
      <point x="250" y="364"/>
      <point x="250" y="700" type="curve" smooth="yes"/>
      <point x="250" y="1036"/>
      <point x="390" y="1260"/>
      <point x="600" y="1260" type="curve" smooth="yes"/>
      <point x="810" y="1260"/>
      <point x="950" y="1036"/>
      <point x="950" y="700" type="curve" smooth="yes"/>
      <point x="950" y="364"/>
      <point x="810" y="140"/>
    </contour>
  </outline>
</glyph>
<glyph name="one" format="2">
  <advance width="900"/>
  <unicode hex="0031"/>
  <outline>
    <contour>
      <point x="470" y="0" type="line"/>
      <point x="640" y="0" type="line"/>
      <point x="640" y="1420" type="line"/>
      <point x="160" y="1300" type="line"/>
      <point x="160" y="1124" type="line"/>
      <point x="470" y="1216" type="line"/>
    </contour>
  </outline>
</glyph>
<glyph name="two" format="2">
  <advance width="1138"/>
  <unicode hex="0032"/>
  <outline>
    <contour>
      <point x="40" y="0" type="line"/>
      <point x="1028" y="0" type="line"/>
      <point x="1028" y="160" type="line"/>
      <point x="390" y="160" type="line"/>
      <point x="836" y="614" type="line" smooth="yes"/>
      <point x="953" y="733"/>
      <point x="1022" y="884"/>
      <point x="1022" y="1018" type="curve" smooth="yes"/>
      <point x="1022" y="1248"/>
      <point x="831" y="1422"/>
      <point x="578" y="1422" type="curve" smooth="yes"/>
      <point x="303" y="1422"/>
      <point x="120" y="1221"/>
      <point x="120" y="920" type="curve"/>
      <point x="290" y="920" type="line"/>
      <point x="290" y="1129"/>
      <point x="402" y="1262"/>
      <point x="578" y="1262" type="curve" smooth="yes"/>
      <point x="737" y="1262"/>
      <point x="848" y="1159"/>
      <point x="848" y="1012" type="curve" smooth="yes"/>
      <point x="848" y="913"/>
      <point x="798" y="809"/>
      <point x="702" y="706" type="curve" smooth="yes"/>
    </contour>
  </outline>
</glyph>
<glyph name="three" format="2">
  <advance width="1092"/>
  <unicode hex="0033"/>
  <outline>
    <contour>
      <point x="566" y="-20" type="curve" smooth="yes"/>
      <point x="825" y="-20"/>
      <point x="1002" y="138"/>
      <point x="1002" y="370" type="curve" smooth="yes"/>
      <point x="1002" y="547"/>
      <point x="903" y="677"/>
      <point x="725" y="731" type="curve"/>
      <point x="878" y="792"/>
      <point x="962" y="905"/>
      <point x="962" y="1048" type="curve" smooth="yes"/>
      <point x="962" y="1261"/>
      <point x="796" y="1420"/>
      <point x="574" y="1420" type="curve" smooth="yes"/>
      <point x="348" y="1420"/>
      <point x="180" y="1263"/>
      <point x="180" y="1052" type="curve"/>
      <point x="342" y="1052" type="line"/>
      <point x="342" y="1174"/>
      <point x="442" y="1266"/>
      <point x="576" y="1266" type="curve" smooth="yes"/>
      <point x="702" y="1266"/>
      <point x="788" y="1175"/>
      <point x="788" y="1042" type="curve" smooth="yes"/>
      <point x="788" y="894"/>
      <point x="679" y="800"/>
      <point x="506" y="800" type="curve"/>
      <point x="506" y="650" type="line"/>
      <point x="705" y="650"/>
      <point x="828" y="551"/>
      <point x="828" y="390" type="curve" smooth="yes"/>
      <point x="828" y="239"/>
      <point x="725" y="140"/>
      <point x="566" y="140" type="curve" smooth="yes"/>
      <point x="408" y="140"/>
      <point x="292" y="238"/>
      <point x="292" y="370" type="curve"/>
      <point x="120" y="370" type="line"/>
      <point x="120" y="142"/>
      <point x="305" y="-20"/>
    </contour>
  </outline>
</glyph>
<glyph name="four" format="2">
  <advance width="1166"/>
  <unicode hex="0034"/>
  <outline>
    <contour>
      <point x="716" y="0" type="line"/>
      <point x="886" y="0" type="line"/>
      <point x="886" y="280" type="line"/>
      <point x="1106" y="280" type="line"/>
      <point x="1106" y="430" type="line"/>
      <point x="886" y="430" type="line"/>
      <point x="886" y="1400" type="line"/>
      <point x="816" y="1400" type="line"/>
      <point x="40" y="280" type="line"/>
      <point x="716" y="280" type="line"/>
    </contour>
    <contour>
      <point x="320" y="430" type="line"/>
      <point x="716" y="1022" type="line"/>
      <point x="716" y="430" type="line"/>
    </contour>
  </outline>
</glyph>
<glyph name="five" format="2">
  <advance width="1128"/>
  <unicode hex="0035"/>
  <outline>
    <contour>
      <point x="558" y="-20" type="curve" smooth="yes"/>
      <point x="855" y="-20"/>
      <point x="1048" y="169"/>
      <point x="1048" y="460" type="curve" smooth="yes"/>
      <point x="1048" y="735"/>
      <point x="873" y="932"/>
      <point x="630" y="932" type="curve" smooth="yes"/>
      <point x="560" y="932"/>
      <point x="488" y="914"/>
      <point x="422" y="880" type="curve"/>
      <point x="516" y="1250" type="line"/>
      <point x="1044" y="1250" type="line"/>
      <point x="1044" y="1400" type="line"/>
      <point x="384" y="1400" type="line"/>
      <point x="200" y="654" type="line"/>
      <point x="338" y="751"/>
      <point x="420" y="780"/>
      <point x="558" y="780" type="curve" smooth="yes"/>
      <point x="742" y="780"/>
      <point x="872" y="648"/>
      <point x="872" y="460" type="curve" smooth="yes"/>
      <point x="872" y="262"/>
      <point x="752" y="140"/>
      <point x="558" y="140" type="curve" smooth="yes"/>
      <point x="420" y="140"/>
      <point x="274" y="236"/>
      <point x="204" y="372" type="curve"/>
      <point x="60" y="274" type="line"/>
      <point x="172" y="79"/>
      <point x="339" y="-20"/>
    </contour>
  </outline>
</glyph>
<glyph name="six" format="2">
  <advance width="1152"/>
  <unicode hex="0036"/>
  <outline>
    <contour>
      <point x="576" y="-20" type="curve" smooth="yes"/>
      <point x="851" y="-20"/>
      <point x="1052" y="182"/>
      <point x="1052" y="460" type="curve" smooth="yes"/>
      <point x="1052" y="726"/>
      <point x="881" y="914"/>
      <point x="638" y="914" type="curve" smooth="yes"/>
      <point x="542" y="914"/>
      <point x="468" y="886"/>
      <point x="424" y="832" type="curve"/>
      <point x="436" y="822" type="line"/>
      <point x="874" y="1400" type="line"/>
      <point x="660" y="1400" type="line"/>
      <point x="188" y="750" type="line" smooth="yes"/>
      <point x="131" y="672"/>
      <point x="100" y="570"/>
      <point x="100" y="460" type="curve" smooth="yes"/>
      <point x="100" y="181"/>
      <point x="300" y="-20"/>
    </contour>
    <contour>
      <point x="576" y="134" type="curve" smooth="yes"/>
      <point x="393" y="134"/>
      <point x="262" y="271"/>
      <point x="262" y="460" type="curve" smooth="yes"/>
      <point x="262" y="650"/>
      <point x="395" y="790"/>
      <point x="576" y="790" type="curve" smooth="yes"/>
      <point x="757" y="790"/>
      <point x="890" y="650"/>
      <point x="890" y="460" type="curve" smooth="yes"/>
      <point x="890" y="271"/>
      <point x="759" y="134"/>
    </contour>
  </outline>
</glyph>
<glyph name="seven" format="2">
  <advance width="1050"/>
  <unicode hex="0037"/>
  <outline>
    <contour>
      <point x="192" y="0" type="line"/>
      <point x="370" y="0" type="line"/>
      <point x="1040" y="1400" type="line"/>
      <point x="60" y="1400" type="line"/>
      <point x="60" y="1240" type="line"/>
      <point x="786" y="1240" type="line"/>
    </contour>
  </outline>
</glyph>
<glyph name="eight" format="2">
  <advance width="1092"/>
  <unicode hex="0038"/>
  <outline>
    <contour>
      <point x="546" y="-20" type="curve" smooth="yes"/>
      <point x="795" y="-20"/>
      <point x="982" y="152"/>
      <point x="982" y="380" type="curve" smooth="yes"/>
      <point x="982" y="545"/>
      <point x="886" y="686"/>
      <point x="733" y="746" type="curve"/>
      <point x="856" y="799"/>
      <point x="932" y="920"/>
      <point x="932" y="1062" type="curve" smooth="yes"/>
      <point x="932" y="1266"/>
      <point x="766" y="1420"/>
      <point x="546" y="1420" type="curve" smooth="yes"/>
      <point x="322" y="1420"/>
      <point x="160" y="1269"/>
      <point x="160" y="1062" type="curve" smooth="yes"/>
      <point x="160" y="920"/>
      <point x="236" y="799"/>
      <point x="359" y="746" type="curve"/>
      <point x="206" y="686"/>
      <point x="110" y="545"/>
      <point x="110" y="380" type="curve" smooth="yes"/>
      <point x="110" y="152"/>
      <point x="297" y="-20"/>
    </contour>
    <contour>
      <point x="546" y="130" type="curve" smooth="yes"/>
      <point x="393" y="130"/>
      <point x="272" y="249"/>
      <point x="272" y="400" type="curve" smooth="yes"/>
      <point x="272" y="548"/>
      <point x="396" y="670"/>
      <point x="546" y="670" type="curve" smooth="yes"/>
      <point x="698" y="670"/>
      <point x="820" y="549"/>
      <point x="820" y="400" type="curve" smooth="yes"/>
      <point x="820" y="249"/>
      <point x="700" y="130"/>
    </contour>
    <contour>
      <point x="546" y="820" type="curve" smooth="yes"/>
      <point x="417" y="820"/>
      <point x="322" y="914"/>
      <point x="322" y="1042" type="curve" smooth="yes"/>
      <point x="322" y="1173"/>
      <point x="418" y="1270"/>
      <point x="546" y="1270" type="curve" smooth="yes"/>
      <point x="673" y="1270"/>
      <point x="770" y="1171"/>
      <point x="770" y="1042" type="curve" smooth="yes"/>
      <point x="770" y="915"/>
      <point x="675" y="820"/>
    </contour>
  </outline>
</glyph>
<glyph name="colon" format="2">
  <advance width="600"/>
  <unicode hex="003A"/>
  <outline>
    <contour>
      <point x="300" y="730" type="curve" smooth="yes"/>
      <point x="360" y="730"/>
      <point x="410" y="780"/>
      <point x="410" y="840" type="curve" smooth="yes"/>
      <point x="410" y="900"/>
      <point x="360" y="950"/>
      <point x="300" y="950" type="curve" smooth="yes"/>
      <point x="240" y="950"/>
      <point x="190" y="900"/>
      <point x="190" y="840" type="curve" smooth="yes"/>
      <point x="190" y="780"/>
      <point x="240" y="730"/>
    </contour>
    <contour>
      <point x="300" y="-30" type="curve" smooth="yes"/>
      <point x="360" y="-30"/>
      <point x="410" y="20"/>
      <point x="410" y="80" type="curve" smooth="yes"/>
      <point x="410" y="140"/>
      <point x="360" y="190"/>
      <point x="300" y="190" type="curve" smooth="yes"/>
      <point x="240" y="190"/>
      <point x="190" y="140"/>
      <point x="190" y="80" type="curve" smooth="yes"/>
      <point x="190" y="20"/>
      <point x="240" y="-30"/>
    </contour>
  </outline>
</glyph>
<glyph name="semicolon" format="2">
  <advance width="660"/>
  <unicode hex="003B"/>
  <outline>
    <contour>
      <point x="236" y="-340" type="line"/>
      <point x="456" y="160" type="line"/>
      <point x="296" y="220" type="line"/>
      <point x="120" y="-298" type="line"/>
    </contour>
    <contour>
      <point x="360" y="730" type="curve" smooth="yes"/>
      <point x="420" y="730"/>
      <point x="470" y="780"/>
      <point x="470" y="840" type="curve" smooth="yes"/>
      <point x="470" y="900"/>
      <point x="420" y="950"/>
      <point x="360" y="950" type="curve" smooth="yes"/>
      <point x="300" y="950"/>
      <point x="250" y="900"/>
      <point x="250" y="840" type="curve" smooth="yes"/>
      <point x="250" y="780"/>
      <point x="300" y="730"/>
    </contour>
  </outline>
</glyph>
<glyph name="equal" format="2">
  <advance width="1230"/>
  <unicode hex="003D"/>
  <outline>
    <contour>
      <point x="130" y="580" type="line"/>
      <point x="1100" y="580" type="line"/>
      <point x="1100" y="730" type="line"/>
      <point x="130" y="730" type="line"/>
    </contour>
    <contour>
      <point x="130" y="280" type="line"/>
      <point x="1100" y="280" type="line"/>
      <point x="1100" y="430" type="line"/>
      <point x="130" y="430" type="line"/>
    </contour>
  </outline>
</glyph>
<glyph name="greater" format="2">
  <advance width="1280"/>
  <unicode hex="003E"/>
  <outline>
    <contour>
      <point x="130" y="30" type="line"/>
      <point x="1150" y="470" type="line"/>
      <point x="1150" y="560" type="line"/>
      <point x="130" y="1000" type="line"/>
      <point x="130" y="840" type="line"/>
      <point x="886" y="506" type="line"/>
      <point x="130" y="190" type="line"/>
    </contour>
  </outline>
</glyph>
<glyph name="question" format="2">
  <advance width="1114"/>
  <unicode hex="003F"/>
  <outline>
    <contour>
      <point x="436" y="340" type="line"/>
      <point x="556" y="340" type="line"/>
      <point x="570" y="580" type="line"/>
      <point x="792" y="592"/>
      <point x="994" y="770"/>
      <point x="994" y="1000" type="curve" smooth="yes"/>
      <point x="994" y="1238"/>
      <point x="808" y="1420"/>
      <point x="558" y="1420" type="curve" smooth="yes"/>
      <point x="320" y="1420"/>
      <point x="212" y="1326"/>
      <point x="120" y="1186" type="curve"/>
      <point x="250" y="1104" type="line"/>
      <point x="312" y="1204"/>
      <point x="404" y="1270"/>
      <point x="538" y="1270" type="curve" smooth="yes"/>
      <point x="718" y="1270"/>
      <point x="832" y="1172"/>
      <point x="832" y="1000" type="curve" smooth="yes"/>
      <point x="832" y="848"/>
      <point x="688" y="690"/>
      <point x="448" y="690" type="curve" smooth="yes"/>
      <point x="396" y="690" type="line"/>
    </contour>
    <contour>
      <point x="500" y="-30" type="curve" smooth="yes"/>
      <point x="560" y="-30"/>
      <point x="610" y="20"/>
      <point x="610" y="80" type="curve" smooth="yes"/>
      <point x="610" y="140"/>
      <point x="560" y="190"/>
      <point x="500" y="190" type="curve" smooth="yes"/>
      <point x="440" y="190"/>
      <point x="390" y="140"/>
      <point x="390" y="80" type="curve" smooth="yes"/>
      <point x="390" y="20"/>
      <point x="440" y="-30"/>
    </contour>
  </outline>
</glyph>
<glyph name="at" format="2">
  <advance width="1540"/>
  <unicode hex="0040"/>
  <outline>
    <contour>
      <point x="730" y="-340" type="curve" smooth="yes"/>
      <point x="958" y="-340"/>
      <point x="1082" y="-292"/>
      <point x="1202" y="-220" type="curve"/>
      <point x="1132" y="-106" type="line"/>
      <point x="1000" y="-190"/>
      <point x="870" y="-210"/>
      <point x="730" y="-210" type="curve" smooth="yes"/>
      <point x="414" y="-210"/>
      <point x="210" y="-6"/>
      <point x="210" y="320" type="curve" smooth="yes"/>
      <point x="210" y="686"/>
      <point x="454" y="970"/>
      <point x="830" y="970" type="curve" smooth="yes"/>
      <point x="1166" y="970"/>
      <point x="1330" y="726"/>
      <point x="1330" y="460" type="curve" smooth="yes"/>
      <point x="1330" y="208"/>
      <point x="1192" y="112"/>
      <point x="1132" y="112" type="curve" smooth="yes"/>
      <point x="1066" y="112"/>
      <point x="1054" y="156"/>
      <point x="1054" y="204" type="curve" smooth="yes"/>
      <point x="1054" y="220"/>
      <point x="1056" y="244"/>
      <point x="1058" y="258" type="curve" smooth="yes"/>
      <point x="1140" y="720" type="line"/>
      <point x="990" y="720" type="line"/>
      <point x="918" y="220" type="line"/>
      <point x="932" y="220" type="line"/>
      <point x="925" y="174"/>
      <point x="930" y="131"/>
      <point x="945" y="94" type="curve" smooth="yes"/>
      <point x="972" y="26"/>
      <point x="1033" y="-20"/>
      <point x="1112" y="-20" type="curve" smooth="yes"/>
      <point x="1262" y="-20"/>
      <point x="1470" y="108"/>
      <point x="1470" y="460" type="curve" smooth="yes"/>
      <point x="1470" y="778"/>
      <point x="1258" y="1100"/>
      <point x="830" y="1100" type="curve" smooth="yes"/>
      <point x="382" y="1100"/>
      <point x="70" y="758"/>
      <point x="70" y="320" type="curve" smooth="yes"/>
      <point x="70" y="-78"/>
      <point x="302" y="-340"/>
    </contour>
    <contour>
      <point x="656" y="0" type="curve" smooth="yes"/>
      <point x="846" y="0"/>
      <point x="1002" y="142"/>
      <point x="1002" y="420" type="curve" smooth="yes"/>
      <point x="1002" y="578"/>
      <point x="926" y="740"/>
      <point x="756" y="740" type="curve" smooth="yes"/>
      <point x="586" y="740"/>
      <point x="380" y="592"/>
      <point x="380" y="314" type="curve" smooth="yes"/>
      <point x="380" y="116"/>
      <point x="510" y="0"/>
    </contour>
    <contour>
      <point x="696" y="140" type="curve" smooth="yes"/>
      <point x="586" y="140"/>
      <point x="532" y="208"/>
      <point x="532" y="320" type="curve" smooth="yes"/>
      <point x="532" y="492"/>
      <point x="646" y="600"/>
      <point x="756" y="600" type="curve" smooth="yes"/>
      <point x="856" y="600"/>
      <point x="930" y="532"/>
      <point x="930" y="420" type="curve" smooth="yes"/>
      <point x="930" y="208"/>
      <point x="796" y="140"/>
    </contour>
  </outline>
</glyph>
<glyph name="A" format="2">
  <advance width="1320"/>
  <unicode hex="0041"/>
  <anchor x="660" y="0" name="bottom"/>
  <anchor x="1310" y="0" name="ogonek"/>
  <anchor x="660" y="1400" name="top"/>
  <outline>
    <contour>
      <point x="10" y="0" type="line"/>
      <point x="200" y="0" type="line"/>
      <point x="408" y="492" type="line"/>
      <point x="424" y="528" type="line"/>
      <point x="660" y="1084" type="line"/>
      <point x="900" y="520" type="line"/>
      <point x="916" y="480" type="line"/>
      <point x="1120" y="0" type="line"/>
      <point x="1310" y="0" type="line"/>
      <point x="660" y="1470" type="line"/>
    </contour>
    <contour>
      <point x="294" y="420" type="line"/>
      <point x="1034" y="420" type="line"/>
      <point x="974" y="580" type="line"/>
      <point x="354" y="580" type="line"/>
    </contour>
  </outline>
</glyph>
<glyph name="B" format="2">
  <advance width="1116"/>
  <unicode hex="0042"/>
  <anchor x="540" y="0" name="bottom"/>
  <anchor x="520" y="1400" name="top"/>
  <outline>
    <contour>
      <point x="160" y="0" type="line"/>
      <point x="540" y="0" type="line" smooth="yes"/>
      <point x="836" y="0"/>
      <point x="1016" y="155"/>
      <point x="1016" y="410" type="curve" smooth="yes"/>
      <point x="1016" y="644"/>
      <point x="841" y="780"/>
      <point x="540" y="780" type="curve" smooth="yes"/>
      <point x="294" y="780" type="line"/>
      <point x="294" y="686" type="line"/>
      <point x="540" y="686" type="line" smooth="yes"/>
      <point x="729" y="686"/>
      <point x="846" y="584"/>
      <point x="846" y="420" type="curve" smooth="yes"/>
      <point x="846" y="255"/>
      <point x="727" y="150"/>
      <point x="540" y="150" type="curve" smooth="yes"/>
      <point x="330" y="150" type="line"/>
      <point x="330" y="1250" type="line"/>
      <point x="520" y="1250" type="line" smooth="yes"/>
      <point x="667" y="1250"/>
      <point x="766" y="1166"/>
      <point x="766" y="1040" type="curve" smooth="yes"/>
      <point x="766" y="915"/>
      <point x="669" y="834"/>
      <point x="520" y="834" type="curve" smooth="yes"/>
      <point x="294" y="834" type="line"/>
      <point x="294" y="740" type="line"/>
      <point x="520" y="740" type="line" smooth="yes"/>
      <point x="778" y="740"/>
      <point x="936" y="858"/>
      <point x="936" y="1050" type="curve" smooth="yes"/>
      <point x="936" y="1274"/>
      <point x="786" y="1400"/>
      <point x="520" y="1400" type="curve" smooth="yes"/>
      <point x="160" y="1400" type="line"/>
    </contour>
  </outline>
</glyph>
<glyph name="C" format="2">
  <advance width="1370"/>
  <unicode hex="0043"/>
  <anchor x="771" y="0" name="bottom"/>
  <anchor x="805" y="1420" name="top"/>
  <outline>
    <contour>
      <point x="780" y="-20" type="curve" smooth="yes"/>
      <point x="984" y="-20"/>
      <point x="1112" y="30"/>
      <point x="1230" y="134" type="curve"/>
      <point x="1230" y="358" type="line"/>
      <point x="1132" y="234"/>
      <point x="978" y="150"/>
      <point x="780" y="150" type="curve" smooth="yes"/>
      <point x="504" y="150"/>
      <point x="260" y="374"/>
      <point x="260" y="700" type="curve" smooth="yes"/>
      <point x="260" y="1026"/>
      <point x="504" y="1250"/>
      <point x="780" y="1250" type="curve" smooth="yes"/>
      <point x="978" y="1250"/>
      <point x="1132" y="1166"/>
      <point x="1230" y="1042" type="curve"/>
      <point x="1230" y="1266" type="line"/>
      <point x="1112" y="1370"/>
      <point x="984" y="1420"/>
      <point x="780" y="1420" type="curve" smooth="yes"/>
      <point x="392" y="1420"/>
      <point x="80" y="1118"/>
      <point x="80" y="700" type="curve" smooth="yes"/>
      <point x="80" y="282"/>
      <point x="392" y="-20"/>
    </contour>
  </outline>
</glyph>
<glyph name="D" format="2">
  <advance width="1360"/>
  <unicode hex="0044"/>
  <anchor x="680" y="0" name="bottom"/>
  <anchor x="680" y="700" name="center"/>
  <anchor x="680" y="1400" name="top"/>
  <outline>
    <contour>
      <point x="160" y="0" type="line"/>
      <point x="580" y="0" type="line" smooth="yes"/>
      <point x="988" y="0"/>
      <point x="1280" y="282"/>
      <point x="1280" y="700" type="curve" smooth="yes"/>
      <point x="1280" y="1118"/>
      <point x="988" y="1400"/>
      <point x="580" y="1400" type="curve" smooth="yes"/>
      <point x="160" y="1400" type="line"/>
    </contour>
    <contour>
      <point x="330" y="170" type="line"/>
      <point x="330" y="1230" type="line"/>
      <point x="580" y="1230" type="line" smooth="yes"/>
      <point x="896" y="1230"/>
      <point x="1110" y="1026"/>
      <point x="1110" y="700" type="curve" smooth="yes"/>
      <point x="1110" y="374"/>
      <point x="896" y="170"/>
      <point x="580" y="170" type="curve" smooth="yes"/>
    </contour>
  </outline>
</glyph>
<glyph name="E" format="2">
  <advance width="1100"/>
  <unicode hex="0045"/>
  <anchor x="550" y="0" name="bottom"/>
  <anchor x="717" y="53" name="ogonek"/>
  <anchor x="550" y="1400" name="top"/>
  <anchor x="20" y="1400" name="topleft"/>
  <outline>
    <contour>
      <point x="160" y="0" type="line"/>
      <point x="960" y="0" type="line"/>
      <point x="960" y="160" type="line"/>
      <point x="330" y="160" type="line"/>
      <point x="330" y="680" type="line"/>
      <point x="920" y="680" type="line"/>
      <point x="920" y="840" type="line"/>
      <point x="330" y="840" type="line"/>
      <point x="330" y="1240" type="line"/>
      <point x="960" y="1240" type="line"/>
      <point x="960" y="1400" type="line"/>
      <point x="160" y="1400" type="line"/>
    </contour>
  </outline>
</glyph>
<glyph name="F" format="2">
  <advance width="1000"/>
  <unicode hex="0046"/>
  <anchor x="500" y="0" name="bottom"/>
  <anchor x="500" y="1400" name="top"/>
  <outline>
    <contour>
      <point x="160" y="0" type="line"/>
      <point x="330" y="0" type="line"/>
      <point x="330" y="680" type="line"/>
      <point x="860" y="680" type="line"/>
      <point x="860" y="840" type="line"/>
      <point x="330" y="840" type="line"/>
      <point x="330" y="1240" type="line"/>
      <point x="880" y="1240" type="line"/>
      <point x="880" y="1400" type="line"/>
      <point x="160" y="1400" type="line"/>
    </contour>
  </outline>
</glyph>
<glyph name="G" format="2">
  <advance width="1550"/>
  <unicode hex="0047"/>
  <anchor x="790" y="-20" name="bottom"/>
  <anchor x="790" y="1420" name="top"/>
  <outline>
    <contour>
      <point x="790" y="-20" type="curve" smooth="yes"/>
      <point x="1218" y="-20"/>
      <point x="1460" y="322"/>
      <point x="1460" y="710" type="curve"/>
      <point x="810" y="710" type="line"/>
      <point x="810" y="550" type="line"/>
      <point x="1276" y="550" type="line"/>
      <point x="1230" y="332"/>
      <point x="1068" y="150"/>
      <point x="790" y="150" type="curve" smooth="yes"/>
      <point x="494" y="150"/>
      <point x="260" y="374"/>
      <point x="260" y="700" type="curve" smooth="yes"/>
      <point x="260" y="1026"/>
      <point x="494" y="1250"/>
      <point x="790" y="1250" type="curve" smooth="yes"/>
      <point x="1004" y="1250"/>
      <point x="1164" y="1160"/>
      <point x="1252" y="1012" type="curve"/>
      <point x="1372" y="1122" type="line"/>
      <point x="1252" y="1316"/>
      <point x="1048" y="1420"/>
      <point x="790" y="1420" type="curve" smooth="yes"/>
      <point x="382" y="1420"/>
      <point x="80" y="1118"/>
      <point x="80" y="700" type="curve" smooth="yes"/>
      <point x="80" y="282"/>
      <point x="382" y="-20"/>
    </contour>
  </outline>
</glyph>
<glyph name="I" format="2">
  <advance width="490"/>
  <unicode hex="0049"/>
  <anchor x="245" y="0" name="bottom"/>
  <anchor x="330" y="0" name="ogonek"/>
  <anchor x="245" y="1400" name="top"/>
  <anchor x="20" y="1400" name="topleft"/>
  <outline>
    <contour>
      <point x="160" y="0" type="line"/>
      <point x="330" y="0" type="line"/>
      <point x="330" y="1400" type="line"/>
      <point x="160" y="1400" type="line"/>
    </contour>
  </outline>
</glyph>
<glyph name="J" format="2">
  <advance width="802"/>
  <unicode hex="004A"/>
  <anchor x="562" y="0" name="bottom"/>
  <anchor x="562" y="1400" name="top"/>
  <outline>
    <contour>
      <point x="336" y="-20" type="curve" smooth="yes"/>
      <point x="518" y="-20"/>
      <point x="642" y="106"/>
      <point x="642" y="290" type="curve" smooth="yes"/>
      <point x="642" y="1400" type="line"/>
      <point x="472" y="1400" type="line"/>
      <point x="472" y="340" type="line" smooth="yes"/>
      <point x="472" y="196"/>
      <point x="444" y="140"/>
      <point x="346" y="140" type="curve" smooth="yes"/>
      <point x="284" y="140"/>
      <point x="226" y="162"/>
      <point x="178" y="204" type="curve"/>
      <point x="96" y="75" type="line"/>
      <point x="155" y="14"/>
      <point x="241" y="-20"/>
    </contour>
  </outline>
</glyph>
<glyph name="K" format="2">
  <advance width="1130"/>
  <unicode hex="004B"/>
  <anchor x="565" y="0" name="bottom"/>
  <anchor x="565" y="1400" name="top"/>
  <outline>
    <contour>
      <point x="910" y="0" type="line"/>
      <point x="1120" y="0" type="line"/>
      <point x="484" y="744" type="line"/>
      <point x="1090" y="1400" type="line"/>
      <point x="880" y="1400" type="line"/>
      <point x="278" y="740" type="line"/>
    </contour>
    <contour>
      <point x="160" y="0" type="line"/>
      <point x="330" y="0" type="line"/>
      <point x="330" y="1400" type="line"/>
      <point x="160" y="1400" type="line"/>
    </contour>
  </outline>
</glyph>
<glyph name="L" format="2">
  <advance width="900"/>
  <unicode hex="004C"/>
  <anchor x="481" y="0" name="bottom"/>
  <anchor x="450" y="700" name="center"/>
  <anchor x="570" y="1400" name="top"/>
  <anchor x="880" y="1400" name="topright"/>
  <outline>
    <contour>
      <point x="160" y="0" type="line"/>
      <point x="880" y="0" type="line"/>
      <point x="880" y="160" type="line"/>
      <point x="330" y="160" type="line"/>
      <point x="330" y="1400" type="line"/>
      <point x="160" y="1400" type="line"/>
    </contour>
  </outline>
</glyph>
<glyph name="M" format="2">
  <advance width="1620"/>
  <unicode hex="004D"/>
  <anchor x="759" y="204" name="bottom"/>
  <anchor x="867" y="1191" name="top"/>
  <outline>
    <contour>
      <point x="80" y="0" type="line"/>
      <point x="250" y="0" type="line"/>
      <point x="354" y="946" type="line"/>
      <point x="810" y="130" type="line"/>
      <point x="1266" y="946" type="line"/>
      <point x="1370" y="0" type="line"/>
      <point x="1540" y="0" type="line"/>
      <point x="1370" y="1470" type="line"/>
      <point x="810" y="456" type="line"/>
      <point x="250" y="1470" type="line"/>
    </contour>
  </outline>
</glyph>
<glyph name="N" format="2">
  <advance width="1550"/>
  <unicode hex="004E"/>
  <anchor x="775" y="0" name="bottom"/>
  <anchor x="775" y="1400" name="top"/>
  <outline>
    <contour>
      <point x="1390" y="-70" type="line"/>
      <point x="1390" y="1400" type="line"/>
      <point x="1220" y="1400" type="line"/>
      <point x="1220" y="358" type="line"/>
      <point x="160" y="1470" type="line"/>
      <point x="160" y="0" type="line"/>
      <point x="330" y="0" type="line"/>
      <point x="330" y="1042" type="line"/>
    </contour>
  </outline>
</glyph>
<glyph name="O" format="2">
  <advance width="1580"/>
  <unicode hex="004F"/>
  <anchor x="790" y="0" name="bottom"/>
  <anchor x="790" y="700" name="center"/>
  <anchor x="922" y="20" name="ogonek"/>
  <anchor x="790" y="1400" name="top"/>
  <anchor x="20" y="1400" name="topleft"/>
  <anchor x="1560" y="1400" name="topright"/>
  <outline>
    <contour>
      <point x="790" y="-20" type="curve" smooth="yes"/>
      <point x="1195" y="-20"/>
      <point x="1500" y="289"/>
      <point x="1500" y="700" type="curve" smooth="yes"/>
      <point x="1500" y="1111"/>
      <point x="1195" y="1420"/>
      <point x="790" y="1420" type="curve" smooth="yes"/>
      <point x="385" y="1420"/>
      <point x="80" y="1111"/>
      <point x="80" y="700" type="curve" smooth="yes"/>
      <point x="80" y="289"/>
      <point x="385" y="-20"/>
    </contour>
    <contour>
      <point x="790" y="150" type="curve" smooth="yes"/>
      <point x="485" y="150"/>
      <point x="260" y="383"/>
      <point x="260" y="700" type="curve" smooth="yes"/>
      <point x="260" y="1017"/>
      <point x="485" y="1250"/>
      <point x="790" y="1250" type="curve" smooth="yes"/>
      <point x="1095" y="1250"/>
      <point x="1320" y="1017"/>
      <point x="1320" y="700" type="curve" smooth="yes"/>
      <point x="1320" y="383"/>
      <point x="1095" y="150"/>
    </contour>
  </outline>
</glyph>
<glyph name="P" format="2">
  <advance width="1096"/>
  <unicode hex="0050"/>
  <anchor x="548" y="0" name="bottom"/>
  <anchor x="548" y="1400" name="top"/>
  <outline>
    <contour>
      <point x="160" y="0" type="line"/>
      <point x="330" y="0" type="line"/>
      <point x="330" y="560" type="line"/>
      <point x="540" y="560" type="line" smooth="yes"/>
      <point x="810" y="560"/>
      <point x="1016" y="722"/>
      <point x="1016" y="980" type="curve" smooth="yes"/>
      <point x="1016" y="1238"/>
      <point x="810" y="1400"/>
      <point x="540" y="1400" type="curve" smooth="yes"/>
      <point x="160" y="1400" type="line"/>
    </contour>
    <contour>
      <point x="330" y="720" type="line"/>
      <point x="330" y="1240" type="line"/>
      <point x="540" y="1240" type="line" smooth="yes"/>
      <point x="720" y="1240"/>
      <point x="846" y="1152"/>
      <point x="846" y="980" type="curve" smooth="yes"/>
      <point x="846" y="808"/>
      <point x="720" y="720"/>
      <point x="540" y="720" type="curve" smooth="yes"/>
    </contour>
  </outline>
</glyph>
<glyph name="Q" format="2">
  <advance width="1580"/>
  <unicode hex="0051"/>
  <anchor x="790" y="0" name="bottom"/>
  <anchor x="790" y="1400" name="top"/>
  <outline>
    <contour>
      <point x="790" y="-20" type="curve" smooth="yes"/>
      <point x="1198" y="-20"/>
      <point x="1500" y="292"/>
      <point x="1500" y="700" type="curve" smooth="yes"/>
      <point x="1500" y="1108"/>
      <point x="1198" y="1420"/>
      <point x="790" y="1420" type="curve" smooth="yes"/>
      <point x="382" y="1420"/>
      <point x="80" y="1108"/>
      <point x="80" y="700" type="curve" smooth="yes"/>
      <point x="80" y="292"/>
      <point x="382" y="-20"/>
    </contour>
    <contour>
      <point x="1358" y="0" type="line"/>
      <point x="1578" y="0" type="line"/>
      <point x="978" y="600" type="line"/>
      <point x="758" y="600" type="line"/>
    </contour>
    <contour>
      <point x="790" y="150" type="curve" smooth="yes"/>
      <point x="484" y="150"/>
      <point x="260" y="384"/>
      <point x="260" y="700" type="curve" smooth="yes"/>
      <point x="260" y="1016"/>
      <point x="484" y="1250"/>
      <point x="790" y="1250" type="curve" smooth="yes"/>
      <point x="1096" y="1250"/>
      <point x="1320" y="1016"/>
      <point x="1320" y="700" type="curve" smooth="yes"/>
      <point x="1320" y="384"/>
      <point x="1096" y="150"/>
    </contour>
  </outline>
</glyph>
<glyph name="R" format="2">
  <advance width="1120"/>
  <unicode hex="0052"/>
  <anchor x="560" y="0" name="bottom"/>
  <anchor x="560" y="1400" name="top"/>
  <outline>
    <contour>
      <point x="160" y="0" type="line"/>
      <point x="330" y="0" type="line"/>
      <point x="330" y="560" type="line"/>
      <point x="500" y="560" type="line"/>
      <point x="890" y="0" type="line"/>
      <point x="1100" y="0" type="line"/>
      <point x="682" y="576" type="line"/>
      <point x="889" y="625"/>
      <point x="1016" y="779"/>
      <point x="1016" y="980" type="curve" smooth="yes"/>
      <point x="1016" y="1228"/>
      <point x="821" y="1400"/>
      <point x="540" y="1400" type="curve" smooth="yes"/>
      <point x="160" y="1400" type="line"/>
    </contour>
    <contour>
      <point x="330" y="710" type="line"/>
      <point x="330" y="1250" type="line"/>
      <point x="540" y="1250" type="line" smooth="yes"/>
      <point x="727" y="1250"/>
      <point x="846" y="1145"/>
      <point x="846" y="980" type="curve" smooth="yes"/>
      <point x="846" y="815"/>
      <point x="727" y="710"/>
      <point x="540" y="710" type="curve" smooth="yes"/>
    </contour>
  </outline>
</glyph>
<glyph name="S" format="2">
  <advance width="1096"/>
  <unicode hex="0053"/>
  <anchor x="548" y="0" name="bottom"/>
  <anchor x="548" y="1400" name="top"/>
  <outline>
    <contour>
      <point x="580" y="-20" type="curve" smooth="yes"/>
      <point x="827" y="-20"/>
      <point x="1006" y="149"/>
      <point x="1006" y="380" type="curve" smooth="yes"/>
      <point x="1006" y="589"/>
      <point x="917" y="693"/>
      <point x="652" y="792" type="curve" smooth="yes"/>
      <point x="408" y="883"/>
      <point x="328" y="949"/>
      <point x="328" y="1058" type="curve" smooth="yes"/>
      <point x="328" y="1173"/>
      <point x="417" y="1258"/>
      <point x="538" y="1258" type="curve" smooth="yes"/>
      <point x="663" y="1258"/>
      <point x="774" y="1176"/>
      <point x="850" y="1028" type="curve"/>
      <point x="988" y="1120" type="line"/>
      <point x="897" y="1320"/>
      <point x="753" y="1420"/>
      <point x="556" y="1420" type="curve" smooth="yes"/>
      <point x="313" y="1420"/>
      <point x="150" y="1275"/>
      <point x="150" y="1060" type="curve" smooth="yes"/>
      <point x="150" y="875"/>
      <point x="249" y="767"/>
      <point x="502" y="676" type="curve" smooth="yes"/>
      <point x="739" y="591"/>
      <point x="830" y="505"/>
      <point x="830" y="366" type="curve" smooth="yes"/>
      <point x="830" y="228"/>
      <point x="737" y="140"/>
      <point x="590" y="140" type="curve" smooth="yes"/>
      <point x="432" y="140"/>
      <point x="318" y="237"/>
      <point x="224" y="452" type="curve"/>
      <point x="80" y="366" type="line"/>
      <point x="174" y="120"/>
      <point x="355" y="-20"/>
    </contour>
  </outline>
</glyph>
<glyph name="U" format="2">
  <advance width="1252"/>
  <unicode hex="0055"/>
  <anchor x="626" y="0" name="bottom"/>
  <anchor x="626" y="-20" name="ogonek"/>
  <anchor x="626" y="1400" name="top"/>
  <anchor x="1232" y="1400" name="topright"/>
  <outline>
    <contour>
      <point x="626" y="-20" type="curve" smooth="yes"/>
      <point x="909" y="-20"/>
      <point x="1102" y="175"/>
      <point x="1102" y="460" type="curve" smooth="yes"/>
      <point x="1102" y="1400" type="line"/>
      <point x="932" y="1400" type="line"/>
      <point x="932" y="460" type="line" smooth="yes"/>
      <point x="932" y="259"/>
      <point x="818" y="140"/>
      <point x="626" y="140" type="curve" smooth="yes"/>
      <point x="434" y="140"/>
      <point x="320" y="259"/>
      <point x="320" y="460" type="curve" smooth="yes"/>
      <point x="320" y="1400" type="line"/>
      <point x="150" y="1400" type="line"/>
      <point x="150" y="460" type="line" smooth="yes"/>
      <point x="150" y="175"/>
      <point x="343" y="-20"/>
    </contour>
  </outline>
</glyph>
<glyph name="V" format="2">
  <advance width="1320"/>
  <unicode hex="0056"/>
  <anchor x="660" y="0" name="bottom"/>
  <anchor x="660" y="1400" name="top"/>
  <outline>
    <contour>
      <point x="660" y="-70" type="line"/>
      <point x="1310" y="1400" type="line"/>
      <point x="1120" y="1400" type="line"/>
      <point x="660" y="316" type="line"/>
      <point x="200" y="1400" type="line"/>
      <point x="10" y="1400" type="line"/>
    </contour>
  </outline>
</glyph>
<glyph name="W" format="2">
  <advance width="1980"/>
  <unicode hex="0057"/>
  <anchor x="990" y="0" name="bottom"/>
  <anchor x="990" y="1400" name="top"/>
  <outline>
    <contour>
      <point x="570" y="-70" type="line"/>
      <point x="990" y="1018" type="line"/>
      <point x="1410" y="-70" type="line"/>
      <point x="1960" y="1400" type="line"/>
      <point x="1770" y="1400" type="line"/>
      <point x="1400" y="350" type="line"/>
      <point x="990" y="1470" type="line"/>
      <point x="580" y="350" type="line"/>
      <point x="210" y="1400" type="line"/>
      <point x="20" y="1400" type="line"/>
    </contour>
  </outline>
</glyph>
<glyph name="Y" format="2">
  <advance width="1122"/>
  <unicode hex="0059"/>
  <anchor x="561" y="0" name="bottom"/>
  <anchor x="561" y="1400" name="top"/>
  <anchor x="20" y="1400" name="topleft"/>
  <outline>
    <contour>
      <point x="476" y="0" type="line"/>
      <point x="646" y="0" type="line"/>
      <point x="646" y="604" type="line"/>
      <point x="1112" y="1400" type="line"/>
      <point x="922" y="1400" type="line"/>
      <point x="560" y="752" type="line"/>
      <point x="200" y="1400" type="line"/>
      <point x="10" y="1400" type="line"/>
      <point x="476" y="602" type="line"/>
    </contour>
  </outline>
</glyph>
<glyph name="Z" format="2">
  <advance width="1090"/>
  <unicode hex="005A"/>
  <anchor x="545" y="0" name="bottom"/>
  <anchor x="545" y="700" name="center"/>
  <anchor x="618" y="1400" name="top"/>
  <outline>
    <contour>
      <point x="30" y="0" type="line"/>
      <point x="1010" y="0" type="line"/>
      <point x="1010" y="160" type="line"/>
      <point x="314" y="160" type="line"/>
      <point x="1050" y="1400" type="line"/>
      <point x="70" y="1400" type="line"/>
      <point x="70" y="1240" type="line"/>
      <point x="766" y="1240" type="line"/>
    </contour>
  </outline>
</glyph>
<glyph name="bracketleft" format="2">
  <advance width="600"/>
  <unicode hex="005B"/>
  <outline>
    <contour>
      <point x="200" y="-440" type="line"/>
      <point x="560" y="-440" type="line"/>
      <point x="560" y="-290" type="line"/>
      <point x="358" y="-290" type="line"/>
      <point x="358" y="1410" type="line"/>
      <point x="560" y="1410" type="line"/>
      <point x="560" y="1560" type="line"/>
      <point x="200" y="1560" type="line"/>
    </contour>
  </outline>
</glyph>
<glyph name="bracketright" format="2">
  <advance width="600"/>
  <unicode hex="005D"/>
  <outline>
    <contour>
      <point x="40" y="-440" type="line"/>
      <point x="400" y="-440" type="line"/>
      <point x="400" y="1560" type="line"/>
      <point x="40" y="1560" type="line"/>
      <point x="40" y="1410" type="line"/>
      <point x="242" y="1410" type="line"/>
      <point x="242" y="-290" type="line"/>
      <point x="40" y="-290" type="line"/>
    </contour>
  </outline>
</glyph>
<glyph name="asciicircum" format="2">
  <advance width="1020"/>
  <unicode hex="005E"/>
  <outline>
    <contour>
      <point x="130" y="920" type="line"/>
      <point x="290" y="920" type="line"/>
      <point x="510" y="1242" type="line"/>
      <point x="730" y="920" type="line"/>
      <point x="890" y="920" type="line"/>
      <point x="550" y="1420" type="line"/>
      <point x="470" y="1420" type="line"/>
    </contour>
  </outline>
</glyph>
<glyph name="a" format="2">
  <advance width="970"/>
  <unicode hex="0061"/>
  <anchor x="485" y="0" name="bottom"/>
  <anchor x="850" y="0" name="ogonek"/>
  <anchor x="496" y="940" name="top"/>
  <outline>
    <contour>
      <point x="690" y="0" type="line"/>
      <point x="850" y="0" type="line"/>
      <point x="850" y="660" type="line" smooth="yes"/>
      <point x="850" y="830"/>
      <point x="711" y="940"/>
      <point x="496" y="940" type="curve" smooth="yes"/>
      <point x="368" y="940"/>
      <point x="246" y="900"/>
      <point x="144" y="826" type="curve"/>
      <point x="222" y="704" type="line"/>
      <point x="303" y="764"/>
      <point x="405" y="800"/>
      <point x="496" y="800" type="curve" smooth="yes"/>
      <point x="610" y="800"/>
      <point x="690" y="742"/>
      <point x="690" y="660" type="curve" smooth="yes"/>
    </contour>
    <contour>
      <point x="376" y="-20" type="curve" smooth="yes"/>
      <point x="577" y="-20"/>
      <point x="722" y="97"/>
      <point x="722" y="260" type="curve"/>
      <point x="690" y="360" type="line"/>
      <point x="690" y="212"/>
      <point x="586" y="122"/>
      <point x="416" y="122" type="curve" smooth="yes"/>
      <point x="286" y="122"/>
      <point x="222" y="171"/>
      <point x="222" y="270" type="curve" smooth="yes"/>
      <point x="222" y="387"/>
      <point x="305" y="450"/>
      <point x="460" y="450" type="curve" smooth="yes"/>
      <point x="568" y="450"/>
      <point x="664" y="419"/>
      <point x="756" y="356" type="curve"/>
      <point x="756" y="450" type="line"/>
      <point x="692" y="528"/>
      <point x="583" y="572"/>
      <point x="452" y="572" type="curve" smooth="yes"/>
      <point x="218" y="572"/>
      <point x="60" y="448"/>
      <point x="60" y="264" type="curve" smooth="yes"/>
      <point x="60" y="91"/>
      <point x="184" y="-20"/>
    </contour>
  </outline>
</glyph>
<glyph name="b" format="2">
  <advance width="1140"/>
  <unicode hex="0062"/>
  <anchor x="570" y="0" name="bottom"/>
  <anchor x="570" y="1600" name="top"/>
  <outline>
    <contour>
      <point x="140" y="0" type="line"/>
      <point x="300" y="0" type="line"/>
      <point x="300" y="1560" type="line"/>
      <point x="140" y="1560" type="line"/>
    </contour>
    <contour>
      <point x="624" y="-20" type="curve" smooth="yes"/>
      <point x="881" y="-20"/>
      <point x="1070" y="184"/>
      <point x="1070" y="460" type="curve" smooth="yes"/>
      <point x="1070" y="736"/>
      <point x="880" y="940"/>
      <point x="624" y="940" type="curve" smooth="yes"/>
      <point x="377" y="940"/>
      <point x="228" y="759"/>
      <point x="228" y="460" type="curve" smooth="yes"/>
      <point x="228" y="164"/>
      <point x="379" y="-20"/>
    </contour>
    <contour>
      <point x="604" y="130" type="curve" smooth="yes"/>
      <point x="429" y="130"/>
      <point x="300" y="270"/>
      <point x="300" y="460" type="curve" smooth="yes"/>
      <point x="300" y="651"/>
      <point x="428" y="790"/>
      <point x="604" y="790" type="curve" smooth="yes"/>
      <point x="777" y="790"/>
      <point x="908" y="648"/>
      <point x="908" y="460" type="curve" smooth="yes"/>
      <point x="908" y="270"/>
      <point x="779" y="130"/>
    </contour>
  </outline>
</glyph>
<glyph name="c" format="2">
  <advance width="956"/>
  <unicode hex="0063"/>
  <anchor x="478" y="0" name="bottom"/>
  <anchor x="536" y="940" name="top"/>
  <outline>
    <contour>
      <point x="536" y="-20" type="curve" smooth="yes"/>
      <point x="669" y="-20"/>
      <point x="797" y="27"/>
      <point x="856" y="98" type="curve"/>
      <point x="856" y="298" type="line"/>
      <point x="812" y="203"/>
      <point x="672" y="130"/>
      <point x="536" y="130" type="curve" smooth="yes"/>
      <point x="353" y="130"/>
      <point x="222" y="268"/>
      <point x="222" y="460" type="curve" smooth="yes"/>
      <point x="222" y="653"/>
      <point x="352" y="790"/>
      <point x="536" y="790" type="curve" smooth="yes"/>
      <point x="672" y="790"/>
      <point x="812" y="717"/>
      <point x="856" y="622" type="curve"/>
      <point x="856" y="822" type="line"/>
      <point x="794" y="893"/>
      <point x="667" y="940"/>
      <point x="536" y="940" type="curve" smooth="yes"/>
      <point x="263" y="940"/>
      <point x="60" y="735"/>
      <point x="60" y="460" type="curve" smooth="yes"/>
      <point x="60" y="183"/>
      <point x="261" y="-20"/>
    </contour>
  </outline>
</glyph>
<glyph name="d" format="2">
  <advance width="1140"/>
  <unicode hex="0064"/>
  <anchor x="570" y="0" name="bottom"/>
  <anchor x="570" y="460" name="center"/>
  <anchor x="570" y="1600" name="top"/>
  <anchor x="1120" y="920" name="topright"/>
  <outline>
    <contour>
      <point x="526" y="-20" type="curve" smooth="yes"/>
      <point x="773" y="-20"/>
      <point x="932" y="167"/>
      <point x="932" y="460" type="curve" smooth="yes"/>
      <point x="932" y="753"/>
      <point x="774" y="940"/>
      <point x="526" y="940" type="curve" smooth="yes"/>
      <point x="265" y="940"/>
      <point x="70" y="734"/>
      <point x="70" y="460" type="curve" smooth="yes"/>
      <point x="70" y="187"/>
      <point x="266" y="-20"/>
    </contour>
    <contour>
      <point x="546" y="130" type="curve" smooth="yes"/>
      <point x="368" y="130"/>
      <point x="232" y="273"/>
      <point x="232" y="460" type="curve" smooth="yes"/>
      <point x="232" y="646"/>
      <point x="369" y="790"/>
      <point x="546" y="790" type="curve" smooth="yes"/>
      <point x="718" y="790"/>
      <point x="840" y="653"/>
      <point x="840" y="460" type="curve" smooth="yes"/>
      <point x="840" y="266"/>
      <point x="719" y="130"/>
    </contour>
    <contour>
      <point x="840" y="0" type="line"/>
      <point x="1000" y="0" type="line"/>
      <point x="1000" y="1560" type="line"/>
      <point x="840" y="1560" type="line"/>
    </contour>
  </outline>
</glyph>
<glyph name="e" format="2">
  <advance width="1030"/>
  <unicode hex="0065"/>
  <anchor x="515" y="0" name="bottom"/>
  <anchor x="506" y="-20" name="ogonek"/>
  <anchor x="515" y="920" name="top"/>
  <outline>
    <contour>
      <point x="506" y="-20" type="curve" smooth="yes"/>
      <point x="703" y="-20"/>
      <point x="847" y="57"/>
      <point x="944" y="214" type="curve"/>
      <point x="814" y="296" type="line"/>
      <point x="746" y="185"/>
      <point x="649" y="130"/>
      <point x="526" y="130" type="curve" smooth="yes"/>
      <point x="338" y="130"/>
      <point x="230" y="254"/>
      <point x="232" y="470" type="curve" smooth="yes"/>
      <point x="234" y="680"/>
      <point x="341" y="800"/>
      <point x="526" y="800" type="curve" smooth="yes"/>
      <point x="682" y="800"/>
      <point x="786" y="692"/>
      <point x="786" y="530" type="curve" smooth="yes"/>
      <point x="786" y="512"/>
      <point x="776" y="477"/>
      <point x="767" y="464" type="curve"/>
      <point x="831" y="556" type="line"/>
      <point x="172" y="556" type="line"/>
      <point x="172" y="420" type="line"/>
      <point x="958" y="420" type="line"/>
      <point x="959" y="425"/>
      <point x="960" y="449"/>
      <point x="960" y="468" type="curve" smooth="yes"/>
      <point x="960" y="761"/>
      <point x="796" y="940"/>
      <point x="526" y="940" type="curve" smooth="yes"/>
      <point x="254" y="940"/>
      <point x="70" y="746"/>
      <point x="70" y="460" type="curve" smooth="yes"/>
      <point x="70" y="176"/>
      <point x="248" y="-20"/>
    </contour>
  </outline>
</glyph>
<glyph name="f" format="2">
  <advance width="572"/>
  <unicode hex="0066"/>
  <anchor x="286" y="0" name="bottom"/>
  <anchor x="286" y="1600" name="top"/>
  <outline>
    <contour>
      <point x="170" y="0" type="line"/>
      <point x="330" y="0" type="line"/>
      <point x="330" y="770" type="line"/>
      <point x="540" y="770" type="line"/>
      <point x="540" y="920" type="line"/>
      <point x="330" y="920" type="line"/>
      <point x="330" y="1240" type="line" smooth="yes"/>
      <point x="330" y="1370"/>
      <point x="357" y="1420"/>
      <point x="426" y="1420" type="curve" smooth="yes"/>
      <point x="467" y="1420"/>
      <point x="503" y="1403"/>
      <point x="527" y="1372" type="curve"/>
      <point x="612" y="1500" type="line"/>
      <point x="572" y="1554"/>
      <point x="515" y="1580"/>
      <point x="436" y="1580" type="curve" smooth="yes"/>
      <point x="268" y="1580"/>
      <point x="170" y="1462"/>
      <point x="170" y="1260" type="curve" smooth="yes"/>
      <point x="170" y="920" type="line"/>
      <point x="80" y="920" type="line"/>
      <point x="80" y="770" type="line"/>
      <point x="170" y="770" type="line"/>
    </contour>
  </outline>
</glyph>
<glyph name="g" format="2">
  <advance width="1140"/>
  <unicode hex="0067"/>
  <anchor x="544" y="-460" name="bottom"/>
  <anchor x="570" y="920" name="top"/>
  <outline>
    <contour>
      <point x="544" y="-460" type="curve" smooth="yes"/>
      <point x="818" y="-460"/>
      <point x="1000" y="-268"/>
      <point x="1000" y="20" type="curve" smooth="yes"/>
      <point x="1000" y="920" type="line"/>
      <point x="840" y="920" type="line"/>
      <point x="840" y="20" type="line" smooth="yes"/>
      <point x="840" y="-178"/>
      <point x="722" y="-310"/>
      <point x="544" y="-310" type="curve" smooth="yes"/>
      <point x="379" y="-310"/>
      <point x="250" y="-200"/>
      <point x="250" y="-60" type="curve"/>
      <point x="88" y="-60" type="line"/>
      <point x="88" y="-290"/>
      <point x="281" y="-460"/>
    </contour>
    <contour>
      <point x="526" y="-20" type="curve" smooth="yes"/>
      <point x="766" y="-20"/>
      <point x="912" y="161"/>
      <point x="912" y="460" type="curve" smooth="yes"/>
      <point x="912" y="760"/>
      <point x="767" y="940"/>
      <point x="526" y="940" type="curve" smooth="yes"/>
      <point x="263" y="940"/>
      <point x="70" y="737"/>
      <point x="70" y="460" type="curve" smooth="yes"/>
      <point x="70" y="187"/>
      <point x="266" y="-20"/>
    </contour>
    <contour>
      <point x="546" y="130" type="curve" smooth="yes"/>
      <point x="367" y="130"/>
      <point x="232" y="272"/>
      <point x="232" y="460" type="curve" smooth="yes"/>
      <point x="232" y="648"/>
      <point x="367" y="790"/>
      <point x="546" y="790" type="curve" smooth="yes"/>
      <point x="715" y="790"/>
      <point x="840" y="650"/>
      <point x="840" y="460" type="curve" smooth="yes"/>
      <point x="840" y="266"/>
      <point x="719" y="130"/>
    </contour>
  </outline>
</glyph>
<glyph name="i" format="2">
  <advance width="460"/>
  <unicode hex="0069"/>
  <anchor x="230" y="0" name="bottom"/>
  <anchor x="310" y="0" name="ogonek"/>
  <anchor x="230" y="920" name="top"/>
  <outline>
    <contour>
      <point x="150" y="0" type="line"/>
      <point x="310" y="0" type="line"/>
      <point x="310" y="920" type="line"/>
      <point x="150" y="920" type="line"/>
    </contour>
    <contour>
      <point x="230" y="1190" type="curve" smooth="yes"/>
      <point x="290" y="1190"/>
      <point x="340" y="1240"/>
      <point x="340" y="1300" type="curve" smooth="yes"/>
      <point x="340" y="1360"/>
      <point x="290" y="1410"/>
      <point x="230" y="1410" type="curve" smooth="yes"/>
      <point x="170" y="1410"/>
      <point x="120" y="1360"/>
      <point x="120" y="1300" type="curve" smooth="yes"/>
      <point x="120" y="1240"/>
      <point x="170" y="1190"/>
    </contour>
  </outline>
</glyph>
<glyph name="j" format="2">
  <advance width="500"/>
  <unicode hex="006A"/>
  <anchor x="235" y="1410" name="top"/>
  <outline>
    <contour>
      <point x="54" y="-440" type="curve" smooth="yes"/>
      <point x="222" y="-440"/>
      <point x="320" y="-322"/>
      <point x="320" y="-120" type="curve" smooth="yes"/>
      <point x="320" y="920" type="line"/>
      <point x="160" y="920" type="line"/>
      <point x="160" y="-100" type="line" smooth="yes"/>
      <point x="160" y="-229"/>
      <point x="133" y="-280"/>
      <point x="64" y="-280" type="curve" smooth="yes"/>
      <point x="22" y="-280"/>
      <point x="-14" y="-261"/>
      <point x="-34" y="-228" type="curve"/>
      <point x="-122" y="-360" type="line"/>
      <point x="-82" y="-414"/>
      <point x="-25" y="-440"/>
    </contour>
    <contour>
      <point x="235" y="1190" type="curve" smooth="yes"/>
      <point x="295" y="1190"/>
      <point x="345" y="1240"/>
      <point x="345" y="1300" type="curve" smooth="yes"/>
      <point x="345" y="1360"/>
      <point x="295" y="1410"/>
      <point x="235" y="1410" type="curve" smooth="yes"/>
      <point x="175" y="1410"/>
      <point x="125" y="1360"/>
      <point x="125" y="1300" type="curve" smooth="yes"/>
      <point x="125" y="1240"/>
      <point x="175" y="1190"/>
    </contour>
  </outline>
</glyph>
<glyph name="k" format="2">
  <advance width="880"/>
  <unicode hex="006B"/>
  <anchor x="440" y="0" name="bottom"/>
  <anchor x="478" y="1600" name="top"/>
  <outline>
    <contour>
      <point x="140" y="0" type="line"/>
      <point x="300" y="0" type="line"/>
      <point x="300" y="1560" type="line"/>
      <point x="140" y="1560" type="line"/>
    </contour>
    <contour>
      <point x="680" y="0" type="line"/>
      <point x="880" y="0" type="line"/>
      <point x="412" y="575" type="line"/>
      <point x="407" y="509" type="line"/>
      <point x="840" y="920" type="line"/>
      <point x="640" y="920" type="line"/>
      <point x="240" y="540" type="line"/>
    </contour>
  </outline>
</glyph>
<glyph name="m" format="2">
  <advance width="1560"/>
  <unicode hex="006D"/>
  <anchor x="700" y="0" name="bottom"/>
  <anchor x="835" y="920" name="top"/>
  <outline>
    <contour>
      <point x="150" y="0" type="line"/>
      <point x="310" y="0" type="line"/>
      <point x="310" y="560" type="line" smooth="yes"/>
      <point x="310" y="703"/>
      <point x="391" y="790"/>
      <point x="524" y="790" type="curve" smooth="yes"/>
      <point x="645" y="790"/>
      <point x="700" y="718"/>
      <point x="700" y="560" type="curve" smooth="yes"/>
      <point x="700" y="0" type="line"/>
      <point x="860" y="0" type="line"/>
      <point x="860" y="560" type="line" smooth="yes"/>
      <point x="860" y="703"/>
      <point x="941" y="790"/>
      <point x="1074" y="790" type="curve" smooth="yes"/>
      <point x="1195" y="790"/>
      <point x="1250" y="718"/>
      <point x="1250" y="560" type="curve" smooth="yes"/>
      <point x="1250" y="0" type="line"/>
      <point x="1410" y="0" type="line"/>
      <point x="1410" y="580" type="line" smooth="yes"/>
      <point x="1410" y="808"/>
      <point x="1302" y="940"/>
      <point x="1114" y="940" type="curve" smooth="yes"/>
      <point x="990" y="940"/>
      <point x="894" y="882"/>
      <point x="830" y="768" type="curve"/>
      <point x="788" y="878"/>
      <point x="692" y="940"/>
      <point x="564" y="940" type="curve" smooth="yes"/>
      <point x="450" y="940"/>
      <point x="367" y="890"/>
      <point x="310" y="786" type="curve"/>
      <point x="310" y="920" type="line"/>
      <point x="150" y="920" type="line"/>
    </contour>
  </outline>
</glyph>
<glyph name="n" format="2">
  <advance width="1050"/>
  <unicode hex="006E"/>
  <anchor x="525" y="0" name="bottom"/>
  <anchor x="584" y="940" name="top"/>
  <outline>
    <contour>
      <point x="150" y="0" type="line"/>
      <point x="310" y="0" type="line"/>
      <point x="310" y="560" type="line" smooth="yes"/>
      <point x="310" y="696"/>
      <point x="405" y="790"/>
      <point x="544" y="790" type="curve" smooth="yes"/>
      <point x="672" y="790"/>
      <point x="740" y="711"/>
      <point x="740" y="560" type="curve" smooth="yes"/>
      <point x="740" y="0" type="line"/>
      <point x="900" y="0" type="line"/>
      <point x="900" y="580" type="line" smooth="yes"/>
      <point x="900" y="802"/>
      <point x="778" y="940"/>
      <point x="584" y="940" type="curve" smooth="yes"/>
      <point x="463" y="940"/>
      <point x="372" y="886"/>
      <point x="310" y="775" type="curve"/>
      <point x="310" y="920" type="line"/>
      <point x="150" y="920" type="line"/>
    </contour>
  </outline>
</glyph>
<glyph name="o" format="2">
  <advance width="1092"/>
  <unicode hex="006F"/>
  <anchor x="546" y="0" name="bottom"/>
  <anchor x="546" y="460" name="center"/>
  <anchor x="690" y="41" name="ogonek"/>
  <anchor x="546" y="940" name="top"/>
  <anchor x="1072" y="920" name="topright"/>
  <outline>
    <contour>
      <point x="546" y="-20" type="curve" smooth="yes"/>
      <point x="819" y="-20"/>
      <point x="1022" y="185"/>
      <point x="1022" y="460" type="curve" smooth="yes"/>
      <point x="1022" y="735"/>
      <point x="819" y="940"/>
      <point x="546" y="940" type="curve" smooth="yes"/>
      <point x="273" y="940"/>
      <point x="70" y="735"/>
      <point x="70" y="460" type="curve" smooth="yes"/>
      <point x="70" y="185"/>
      <point x="273" y="-20"/>
    </contour>
    <contour>
      <point x="546" y="130" type="curve" smooth="yes"/>
      <point x="365" y="130"/>
      <point x="232" y="269"/>
      <point x="232" y="460" type="curve" smooth="yes"/>
      <point x="232" y="651"/>
      <point x="365" y="790"/>
      <point x="546" y="790" type="curve" smooth="yes"/>
      <point x="727" y="790"/>
      <point x="860" y="651"/>
      <point x="860" y="460" type="curve" smooth="yes"/>
      <point x="860" y="269"/>
      <point x="727" y="130"/>
    </contour>
  </outline>
</glyph>
<glyph name="p" format="2">
  <advance width="1140"/>
  <unicode hex="0070"/>
  <anchor x="570" y="0" name="bottom"/>
  <anchor x="470" y="920" name="top"/>
  <outline>
    <contour>
      <point x="140" y="-440" type="line"/>
      <point x="300" y="-440" type="line"/>
      <point x="300" y="920" type="line"/>
      <point x="140" y="920" type="line"/>
    </contour>
    <contour>
      <point x="614" y="-20" type="curve" smooth="yes"/>
      <point x="864" y="-20"/>
      <point x="1070" y="162"/>
      <point x="1070" y="460" type="curve" smooth="yes"/>
      <point x="1070" y="758"/>
      <point x="864" y="940"/>
      <point x="614" y="940" type="curve" smooth="yes"/>
      <point x="384" y="940"/>
      <point x="228" y="758"/>
      <point x="228" y="460" type="curve" smooth="yes"/>
      <point x="228" y="162"/>
      <point x="384" y="-20"/>
    </contour>
    <contour>
      <point x="594" y="130" type="curve" smooth="yes"/>
      <point x="454" y="130"/>
      <point x="300" y="248"/>
      <point x="300" y="460" type="curve" smooth="yes"/>
      <point x="300" y="672"/>
      <point x="454" y="790"/>
      <point x="594" y="790" type="curve" smooth="yes"/>
      <point x="764" y="790"/>
      <point x="908" y="672"/>
      <point x="908" y="460" type="curve" smooth="yes"/>
      <point x="908" y="248"/>
      <point x="764" y="130"/>
    </contour>
  </outline>
</glyph>
<glyph name="q" format="2">
  <advance width="1140"/>
  <unicode hex="0071"/>
  <anchor x="570" y="0" name="bottom"/>
  <anchor x="570" y="920" name="top"/>
  <outline>
    <contour>
      <point x="526" y="-20" type="curve" smooth="yes"/>
      <point x="756" y="-20"/>
      <point x="912" y="162"/>
      <point x="912" y="460" type="curve" smooth="yes"/>
      <point x="912" y="758"/>
      <point x="756" y="940"/>
      <point x="526" y="940" type="curve" smooth="yes"/>
      <point x="276" y="940"/>
      <point x="70" y="758"/>
      <point x="70" y="460" type="curve" smooth="yes"/>
      <point x="70" y="162"/>
      <point x="276" y="-20"/>
    </contour>
    <contour>
      <point x="546" y="130" type="curve" smooth="yes"/>
      <point x="376" y="130"/>
      <point x="232" y="248"/>
      <point x="232" y="460" type="curve" smooth="yes"/>
      <point x="232" y="672"/>
      <point x="376" y="790"/>
      <point x="546" y="790" type="curve" smooth="yes"/>
      <point x="686" y="790"/>
      <point x="840" y="672"/>
      <point x="840" y="460" type="curve" smooth="yes"/>
      <point x="840" y="248"/>
      <point x="686" y="130"/>
    </contour>
    <contour>
      <point x="840" y="-440" type="line"/>
      <point x="1000" y="-440" type="line"/>
      <point x="1000" y="920" type="line"/>
      <point x="840" y="920" type="line"/>
    </contour>
  </outline>
</glyph>
<glyph name="r" format="2">
  <advance width="686"/>
  <unicode hex="0072"/>
  <anchor x="310" y="0" name="bottom"/>
  <anchor x="381" y="920" name="top"/>
  <outline>
    <contour>
      <point x="150" y="0" type="line"/>
      <point x="310" y="0" type="line"/>
      <point x="310" y="920" type="line"/>
      <point x="150" y="920" type="line"/>
    </contour>
    <contour>
      <point x="238" y="560" type="curve"/>
      <point x="310" y="560" type="line"/>
      <point x="310" y="721"/>
      <point x="356" y="790"/>
      <point x="464" y="790" type="curve" smooth="yes"/>
      <point x="509" y="790"/>
      <point x="544" y="777"/>
      <point x="588" y="744" type="curve"/>
      <point x="676" y="876" type="line"/>
      <point x="640" y="914"/>
      <point x="569" y="940"/>
      <point x="504" y="940" type="curve" smooth="yes"/>
      <point x="352" y="940"/>
      <point x="238" y="777"/>
    </contour>
  </outline>
</glyph>
<glyph name="s" format="2">
  <advance width="806"/>
  <unicode hex="0073"/>
  <anchor x="403" y="0" name="bottom"/>
  <anchor x="403" y="920" name="top"/>
  <outline>
    <contour>
      <point x="430" y="-20" type="curve" smooth="yes"/>
      <point x="588" y="-20"/>
      <point x="746" y="92"/>
      <point x="746" y="260" type="curve" smooth="yes"/>
      <point x="746" y="384"/>
      <point x="668" y="469"/>
      <point x="492" y="537" type="curve" smooth="yes"/>
      <point x="328" y="601"/>
      <point x="264" y="646"/>
      <point x="264" y="698" type="curve" smooth="yes"/>
      <point x="264" y="756"/>
      <point x="322" y="794"/>
      <point x="408" y="794" type="curve" smooth="yes"/>
      <point x="481" y="794"/>
      <point x="562" y="748"/>
      <point x="610" y="678" type="curve"/>
      <point x="738" y="760" type="line"/>
      <point x="679" y="868"/>
      <point x="546" y="940"/>
      <point x="406" y="940" type="curve" smooth="yes"/>
      <point x="227" y="940"/>
      <point x="108" y="841"/>
      <point x="108" y="692" type="curve" smooth="yes"/>
      <point x="108" y="566"/>
      <point x="182" y="490"/>
      <point x="372" y="422" type="curve" smooth="yes"/>
      <point x="513" y="370"/>
      <point x="580" y="316"/>
      <point x="580" y="242" type="curve" smooth="yes"/>
      <point x="580" y="186"/>
      <point x="520" y="130"/>
      <point x="430" y="130" type="curve" smooth="yes"/>
      <point x="332" y="130"/>
      <point x="247" y="200"/>
      <point x="176" y="324" type="curve"/>
      <point x="50" y="246" type="line"/>
      <point x="133" y="65"/>
      <point x="265" y="-20"/>
    </contour>
  </outline>
</glyph>
<glyph name="t" format="2">
  <advance width="480"/>
  <unicode hex="0074"/>
  <anchor x="160" y="-20" name="bottom"/>
  <anchor x="240" y="460" name="center"/>
  <anchor x="240" y="1095" name="top"/>
  <anchor x="460" y="920" name="topright"/>
  <outline>
    <contour>
      <point x="160" y="0" type="line"/>
      <point x="320" y="0" type="line"/>
      <point x="320" y="770" type="line"/>
      <point x="470" y="770" type="line"/>
      <point x="470" y="920" type="line"/>
      <point x="320" y="920" type="line"/>
      <point x="320" y="1240" type="line"/>
      <point x="160" y="1240" type="line"/>
      <point x="160" y="920" type="line"/>
      <point x="10" y="920" type="line"/>
      <point x="10" y="770" type="line"/>
      <point x="160" y="770" type="line"/>
    </contour>
  </outline>
</glyph>
<glyph name="u" format="2">
  <advance width="1050"/>
  <unicode hex="0075"/>
  <anchor x="525" y="0" name="bottom"/>
  <anchor x="900" y="0" name="ogonek"/>
  <anchor x="535" y="920" name="top"/>
  <anchor x="1030" y="920" name="topright"/>
  <outline>
    <contour>
      <point x="466" y="-20" type="curve" smooth="yes"/>
      <point x="588" y="-20"/>
      <point x="678" y="35"/>
      <point x="740" y="145" type="curve"/>
      <point x="740" y="0" type="line"/>
      <point x="900" y="0" type="line"/>
      <point x="900" y="920" type="line"/>
      <point x="740" y="920" type="line"/>
      <point x="740" y="360" type="line" smooth="yes"/>
      <point x="740" y="224"/>
      <point x="645" y="130"/>
      <point x="506" y="130" type="curve" smooth="yes"/>
      <point x="378" y="130"/>
      <point x="310" y="209"/>
      <point x="310" y="360" type="curve" smooth="yes"/>
      <point x="310" y="920" type="line"/>
      <point x="150" y="920" type="line"/>
      <point x="150" y="340" type="line" smooth="yes"/>
      <point x="150" y="120"/>
      <point x="273" y="-20"/>
    </contour>
  </outline>
</glyph>
<glyph name="v" format="2">
  <advance width="880"/>
  <unicode hex="0076"/>
  <anchor x="440" y="0" name="bottom"/>
  <anchor x="440" y="920" name="top"/>
  <outline>
    <contour>
      <point x="440" y="-70" type="line"/>
      <point x="880" y="920" type="line"/>
      <point x="700" y="920" type="line"/>
      <point x="440" y="270" type="line"/>
      <point x="180" y="920" type="line"/>
      <point x="0" y="920" type="line"/>
    </contour>
  </outline>
</glyph>
<glyph name="w" format="2">
  <advance width="1360"/>
  <unicode hex="0077"/>
  <anchor x="680" y="0" name="bottom"/>
  <anchor x="680" y="920" name="top"/>
  <outline>
    <contour>
      <point x="410" y="-70" type="line"/>
      <point x="672" y="600" type="line"/>
      <point x="950" y="-70" type="line"/>
      <point x="1350" y="920" type="line"/>
      <point x="1170" y="920" type="line"/>
      <point x="938" y="318" type="line"/>
      <point x="670" y="990" type="line"/>
      <point x="420" y="322" type="line"/>
      <point x="190" y="920" type="line"/>
      <point x="10" y="920" type="line"/>
    </contour>
  </outline>
</glyph>
<glyph name="x" format="2">
  <advance width="840"/>
  <unicode hex="0078"/>
  <anchor x="420" y="0" name="bottom"/>
  <anchor x="420" y="920" name="top"/>
  <outline>
    <contour>
      <point x="0" y="0" type="line"/>
      <point x="180" y="0" type="line"/>
      <point x="420" y="348" type="line"/>
      <point x="660" y="0" type="line"/>
      <point x="840" y="0" type="line"/>
      <point x="506" y="474" type="line"/>
      <point x="820" y="920" type="line"/>
      <point x="640" y="920" type="line"/>
      <point x="420" y="600" type="line"/>
      <point x="200" y="920" type="line"/>
      <point x="20" y="920" type="line"/>
      <point x="334" y="474" type="line"/>
    </contour>
  </outline>
</glyph>
<glyph name="y" format="2">
  <advance width="880"/>
  <unicode hex="0079"/>
  <anchor x="440" y="0" name="bottom"/>
  <anchor x="440" y="920" name="top"/>
  <outline>
    <contour>
      <point x="100" y="-440" type="line"/>
      <point x="280" y="-440" type="line"/>
      <point x="880" y="920" type="line"/>
      <point x="700" y="920" type="line"/>
      <point x="416" y="208" type="line"/>
      <point x="482" y="200" type="line"/>
      <point x="190" y="920" type="line"/>
      <point x="0" y="920" type="line"/>
      <point x="352" y="130" type="line"/>
    </contour>
  </outline>
</glyph>
<glyph name="z" format="2">
  <advance width="920"/>
  <unicode hex="007A"/>
  <anchor x="460" y="0" name="bottom"/>
  <anchor x="460" y="460" name="center"/>
  <anchor x="519" y="920" name="top"/>
  <outline>
    <contour>
      <point x="30" y="0" type="line"/>
      <point x="850" y="0" type="line"/>
      <point x="850" y="150" type="line"/>
      <point x="320" y="150" type="line"/>
      <point x="890" y="920" type="line"/>
      <point x="90" y="920" type="line"/>
      <point x="90" y="770" type="line"/>
      <point x="600" y="770" type="line"/>
    </contour>
  </outline>
</glyph>
<glyph name="braceleft" format="2">
  <advance width="622"/>
  <unicode hex="007B"/>
  <outline>
    <contour>
      <point x="402" y="-400" type="curve" smooth="yes"/>
      <point x="522" y="-400" type="line"/>
      <point x="522" y="-260" type="line"/>
      <point x="452" y="-260" type="line" smooth="yes"/>
      <point x="397" y="-260"/>
      <point x="356" y="-217"/>
      <point x="356" y="-160" type="curve" smooth="yes"/>
      <point x="356" y="180" type="line" smooth="yes"/>
      <point x="356" y="472"/>
      <point x="287" y="600"/>
      <point x="130" y="600" type="curve"/>
      <point x="130" y="560" type="line"/>
      <point x="287" y="560"/>
      <point x="356" y="688"/>
      <point x="356" y="980" type="curve" smooth="yes"/>
      <point x="356" y="1320" type="line" smooth="yes"/>
      <point x="356" y="1377"/>
      <point x="397" y="1420"/>
      <point x="452" y="1420" type="curve" smooth="yes"/>
      <point x="522" y="1420" type="line"/>
      <point x="522" y="1560" type="line"/>
      <point x="402" y="1560" type="line" smooth="yes"/>
      <point x="285" y="1560"/>
      <point x="196" y="1439"/>
      <point x="196" y="1280" type="curve" smooth="yes"/>
      <point x="196" y="860" type="line" smooth="yes"/>
      <point x="196" y="725"/>
      <point x="169" y="663"/>
      <point x="100" y="640" type="curve"/>
      <point x="100" y="520" type="line"/>
      <point x="169" y="497"/>
      <point x="196" y="435"/>
      <point x="196" y="300" type="curve" smooth="yes"/>
      <point x="196" y="-120" type="line" smooth="yes"/>
      <point x="196" y="-279"/>
      <point x="285" y="-400"/>
    </contour>
  </outline>
</glyph>
<glyph name="braceright" format="2">
  <advance width="622"/>
  <unicode hex="007D"/>
  <outline>
    <contour>
      <point x="118" y="-400" type="line"/>
      <point x="238" y="-400" type="line" smooth="yes"/>
      <point x="355" y="-400"/>
      <point x="444" y="-279"/>
      <point x="444" y="-120" type="curve" smooth="yes"/>
      <point x="444" y="300" type="line" smooth="yes"/>
      <point x="444" y="435"/>
      <point x="471" y="497"/>
      <point x="540" y="520" type="curve"/>
      <point x="540" y="640" type="line"/>
      <point x="471" y="663"/>
      <point x="444" y="725"/>
      <point x="444" y="860" type="curve" smooth="yes"/>
      <point x="444" y="1280" type="line" smooth="yes"/>
      <point x="444" y="1439"/>
      <point x="355" y="1560"/>
      <point x="238" y="1560" type="curve" smooth="yes"/>
      <point x="118" y="1560" type="line"/>
      <point x="118" y="1420" type="line"/>
      <point x="188" y="1420" type="line" smooth="yes"/>
      <point x="243" y="1420"/>
      <point x="284" y="1377"/>
      <point x="284" y="1320" type="curve" smooth="yes"/>
      <point x="284" y="980" type="line" smooth="yes"/>
      <point x="284" y="688"/>
      <point x="353" y="560"/>
      <point x="510" y="560" type="curve"/>
      <point x="510" y="600" type="line"/>
      <point x="353" y="600"/>
      <point x="284" y="472"/>
      <point x="284" y="180" type="curve" smooth="yes"/>
      <point x="284" y="-160" type="line" smooth="yes"/>
      <point x="284" y="-217"/>
      <point x="243" y="-260"/>
      <point x="188" y="-260" type="curve" smooth="yes"/>
      <point x="118" y="-260" type="line"/>
    </contour>
  </outline>
</glyph>
<glyph name="asciitilde" format="2">
  <advance width="1150"/>
  <unicode hex="007E"/>
  <outline>
    <contour>
      <point x="788" y="344" type="curve" smooth="yes"/>
      <point x="937" y="344"/>
      <point x="1047" y="486"/>
      <point x="1012" y="636" type="curve"/>
      <point x="854" y="646" type="line"/>
      <point x="887" y="567"/>
      <point x="851" y="494"/>
      <point x="780" y="494" type="curve" smooth="yes"/>
      <point x="739" y="494"/>
      <point x="690" y="515"/>
      <point x="634" y="558" type="curve" smooth="yes"/>
      <point x="553" y="620"/>
      <point x="465" y="654"/>
      <point x="388" y="654" type="curve" smooth="yes"/>
      <point x="226" y="654"/>
      <point x="96" y="503"/>
      <point x="136" y="362" type="curve"/>
      <point x="284" y="352" type="line"/>
      <point x="255" y="440"/>
      <point x="299" y="506"/>
      <point x="386" y="506" type="curve" smooth="yes"/>
      <point x="445" y="506"/>
      <point x="495" y="487"/>
      <point x="558" y="440" type="curve" smooth="yes"/>
      <point x="642" y="376"/>
      <point x="719" y="344"/>
    </contour>
  </outline>
</glyph>
<glyph name="cent" format="2">
  <advance width="1160"/>
  <unicode hex="00A2"/>
  <outline>
    <contour>
      <point x="560" y="-224" type="line"/>
      <point x="688" y="-224" type="line"/>
      <point x="688" y="-18" type="line"/>
      <point x="797" y="-8"/>
      <point x="902" y="32"/>
      <point x="958" y="98" type="curve"/>
      <point x="958" y="298" type="line"/>
      <point x="916" y="208"/>
      <point x="786" y="130"/>
      <point x="638" y="130" type="curve" smooth="yes"/>
      <point x="458" y="130"/>
      <point x="324" y="268"/>
      <point x="324" y="460" type="curve" smooth="yes"/>
      <point x="324" y="652"/>
      <point x="458" y="790"/>
      <point x="638" y="790" type="curve" smooth="yes"/>
      <point x="786" y="790"/>
      <point x="916" y="712"/>
      <point x="958" y="622" type="curve"/>
      <point x="958" y="822" type="line"/>
      <point x="902" y="886"/>
      <point x="797" y="928"/>
      <point x="688" y="938" type="curve"/>
      <point x="688" y="1156" type="line"/>
      <point x="560" y="1156" type="line"/>
      <point x="560" y="934" type="line"/>
      <point x="329" y="899"/>
      <point x="162" y="711"/>
      <point x="162" y="460" type="curve" smooth="yes"/>
      <point x="162" y="209"/>
      <point x="329" y="21"/>
      <point x="560" y="-14" type="curve"/>
    </contour>
  </outline>
</glyph>
<glyph name="sterling" format="2">
  <advance width="1160"/>
  <unicode hex="00A3"/>
  <outline>
    <contour>
      <point x="128" y="0" type="curve"/>
      <point x="1034" y="0" type="line"/>
      <point x="1034" y="160" type="line"/>
      <point x="308" y="160" type="line"/>
      <point x="304" y="100" type="line"/>
      <point x="452" y="140"/>
      <point x="596" y="316"/>
      <point x="596" y="528" type="curve" smooth="yes"/>
      <point x="596" y="752"/>
      <point x="406" y="808"/>
      <point x="406" y="1040" type="curve" smooth="yes"/>
      <point x="406" y="1192"/>
      <point x="522" y="1252"/>
      <point x="642" y="1252" type="curve" smooth="yes"/>
      <point x="814" y="1252"/>
      <point x="892" y="1104"/>
      <point x="900" y="958" type="curve"/>
      <point x="1042" y="1016" type="line"/>
      <point x="1032" y="1176"/>
      <point x="908" y="1420"/>
      <point x="642" y="1420" type="curve" smooth="yes"/>
      <point x="404" y="1420"/>
      <point x="232" y="1274"/>
      <point x="232" y="1036" type="curve" smooth="yes"/>
      <point x="232" y="764"/>
      <point x="434" y="686"/>
      <point x="434" y="498" type="curve" smooth="yes"/>
      <point x="434" y="322"/>
      <point x="324" y="204"/>
    </contour>
    <contour>
      <point x="134" y="590" type="line"/>
      <point x="854" y="590" type="line"/>
      <point x="854" y="740" type="line"/>
      <point x="134" y="740" type="line"/>
    </contour>
  </outline>
</glyph>
<glyph name="currency" format="2">
  <advance width="1160"/>
  <unicode hex="00A4"/>
  <outline>
    <contour>
      <point x="174" y="94" type="line"/>
      <point x="291" y="212" type="line"/>
      <point x="370" y="154"/>
      <point x="470" y="120"/>
      <point x="580" y="120" type="curve" smooth="yes"/>
      <point x="690" y="120"/>
      <point x="789" y="153"/>
      <point x="868" y="212" type="curve"/>
      <point x="986" y="94" type="line"/>
      <point x="1084" y="194" type="line"/>
      <point x="967" y="311" type="line"/>
      <point x="1023" y="390"/>
      <point x="1056" y="489"/>
      <point x="1056" y="600" type="curve" smooth="yes"/>
      <point x="1056" y="711"/>
      <point x="1023" y="810"/>
      <point x="967" y="889" type="curve"/>
      <point x="1084" y="1006" type="line"/>
      <point x="986" y="1106" type="line"/>
      <point x="868" y="988" type="line"/>
      <point x="789" y="1047"/>
      <point x="690" y="1080"/>
      <point x="580" y="1080" type="curve" smooth="yes"/>
      <point x="470" y="1080"/>
      <point x="370" y="1046"/>
      <point x="291" y="988" type="curve"/>
      <point x="174" y="1106" type="line"/>
      <point x="74" y="1006" type="line"/>
      <point x="193" y="888" type="line"/>
      <point x="137" y="809"/>
      <point x="104" y="711"/>
      <point x="104" y="600" type="curve" smooth="yes"/>
      <point x="104" y="489"/>
      <point x="137" y="391"/>
      <point x="193" y="312" type="curve"/>
      <point x="74" y="194" type="line"/>
    </contour>
    <contour>
      <point x="580" y="270" type="curve" smooth="yes"/>
      <point x="400" y="270"/>
      <point x="266" y="408"/>
      <point x="266" y="600" type="curve" smooth="yes"/>
      <point x="266" y="792"/>
      <point x="400" y="930"/>
      <point x="580" y="930" type="curve" smooth="yes"/>
      <point x="760" y="930"/>
      <point x="894" y="792"/>
      <point x="894" y="600" type="curve" smooth="yes"/>
      <point x="894" y="408"/>
      <point x="760" y="270"/>
    </contour>
  </outline>
</glyph>
<glyph name="yen" format="2">
  <advance width="1160"/>
  <unicode hex="00A5"/>
  <outline>
    <contour>
      <point x="496" y="0" type="line"/>
      <point x="668" y="0" type="line"/>
      <point x="668" y="612" type="line"/>
      <point x="1130" y="1400" type="line"/>
      <point x="942" y="1400" type="line"/>
      <point x="580" y="752" type="line"/>
      <point x="220" y="1400" type="line"/>
      <point x="30" y="1400" type="line"/>
      <point x="496" y="606" type="line"/>
    </contour>
    <contour>
      <point x="90" y="280" type="line"/>
      <point x="1060" y="280" type="line"/>
      <point x="1060" y="430" type="line"/>
      <point x="90" y="430" type="line"/>
    </contour>
    <contour>
      <point x="90" y="580" type="line"/>
      <point x="1060" y="580" type="line"/>
      <point x="1060" y="730" type="line"/>
      <point x="90" y="730" type="line"/>
    </contour>
  </outline>
</glyph>
<glyph name="section" format="2">
  <advance width="816"/>
  <unicode hex="00A7"/>
  <outline>
    <contour>
      <point x="420" y="-20" type="curve" smooth="yes"/>
      <point x="618" y="-20"/>
      <point x="756" y="62"/>
      <point x="756" y="260" type="curve" smooth="yes"/>
      <point x="756" y="394"/>
      <point x="632" y="478"/>
      <point x="502" y="532" type="curve" smooth="yes"/>
      <point x="400" y="574"/>
      <point x="278" y="606"/>
      <point x="278" y="738" type="curve" smooth="yes"/>
      <point x="278" y="820"/>
      <point x="336" y="868"/>
      <point x="456" y="908" type="curve"/>
      <point x="456" y="960" type="line"/>
      <point x="228" y="960"/>
      <point x="118" y="870"/>
      <point x="118" y="718" type="curve" smooth="yes"/>
      <point x="118" y="564"/>
      <point x="256" y="480"/>
      <point x="382" y="430" type="curve" smooth="yes"/>
      <point x="488" y="388"/>
      <point x="590" y="346"/>
      <point x="590" y="246" type="curve" smooth="yes"/>
      <point x="590" y="166"/>
      <point x="530" y="130"/>
      <point x="430" y="130" type="curve" smooth="yes"/>
      <point x="316" y="130"/>
      <point x="216" y="210"/>
      <point x="192" y="322" type="curve"/>
      <point x="60" y="246" type="line"/>
      <point x="88" y="96"/>
      <point x="250" y="-20"/>
    </contour>
    <contour>
      <point x="420" y="480" type="line"/>
      <point x="618" y="480"/>
      <point x="756" y="542"/>
      <point x="756" y="740" type="curve" smooth="yes"/>
      <point x="756" y="874"/>
      <point x="632" y="958"/>
      <point x="502" y="1012" type="curve" smooth="yes"/>
      <point x="400" y="1054"/>
      <point x="278" y="1106"/>
      <point x="278" y="1178" type="curve" smooth="yes"/>
      <point x="278" y="1240"/>
      <point x="338" y="1268"/>
      <point x="418" y="1268" type="curve" smooth="yes"/>
      <point x="492" y="1268"/>
      <point x="580" y="1234"/>
      <point x="620" y="1158" type="curve"/>
      <point x="748" y="1240" type="line"/>
      <point x="712" y="1342"/>
      <point x="562" y="1420"/>
      <point x="416" y="1420" type="curve" smooth="yes"/>
      <point x="268" y="1420"/>
      <point x="118" y="1330"/>
      <point x="118" y="1178" type="curve" smooth="yes"/>
      <point x="118" y="1024"/>
      <point x="256" y="960"/>
      <point x="382" y="910" type="curve" smooth="yes"/>
      <point x="488" y="868"/>
      <point x="590" y="826"/>
      <point x="590" y="726" type="curve" smooth="yes"/>
      <point x="590" y="646"/>
      <point x="520" y="550"/>
      <point x="420" y="550" type="curve"/>
    </contour>
  </outline>
</glyph>
<glyph name="copyright" format="2">
  <advance width="1600"/>
  <unicode hex="00A9"/>
  <outline>
    <contour>
      <point x="800" y="-20" type="curve" smooth="yes"/>
      <point x="1208" y="-20"/>
      <point x="1520" y="282"/>
      <point x="1520" y="700" type="curve" smooth="yes"/>
      <point x="1520" y="1118"/>
      <point x="1208" y="1420"/>
      <point x="800" y="1420" type="curve" smooth="yes"/>
      <point x="392" y="1420"/>
      <point x="80" y="1118"/>
      <point x="80" y="700" type="curve" smooth="yes"/>
      <point x="80" y="282"/>
      <point x="392" y="-20"/>
    </contour>
    <contour>
      <point x="800" y="80" type="curve" smooth="yes"/>
      <point x="454" y="80"/>
      <point x="190" y="344"/>
      <point x="190" y="700" type="curve" smooth="yes"/>
      <point x="190" y="1056"/>
      <point x="454" y="1320"/>
      <point x="800" y="1320" type="curve" smooth="yes"/>
      <point x="1146" y="1320"/>
      <point x="1410" y="1056"/>
      <point x="1410" y="700" type="curve" smooth="yes"/>
      <point x="1410" y="344"/>
      <point x="1146" y="80"/>
    </contour>
    <contour>
      <point x="790" y="268" type="curve" smooth="yes"/>
      <point x="912" y="268"/>
      <point x="990" y="298"/>
      <point x="1060" y="360" type="curve"/>
      <point x="1060" y="494" type="line"/>
      <point x="1002" y="420"/>
      <point x="908" y="370"/>
      <point x="790" y="370" type="curve" smooth="yes"/>
      <point x="612" y="370"/>
      <point x="478" y="504"/>
      <point x="478" y="700" type="curve" smooth="yes"/>
      <point x="478" y="896"/>
      <point x="612" y="1030"/>
      <point x="790" y="1030" type="curve" smooth="yes"/>
      <point x="908" y="1030"/>
      <point x="1002" y="980"/>
      <point x="1060" y="906" type="curve"/>
      <point x="1060" y="1040" type="line"/>
      <point x="990" y="1102"/>
      <point x="912" y="1132"/>
      <point x="790" y="1132" type="curve" smooth="yes"/>
      <point x="558" y="1132"/>
      <point x="370" y="950"/>
      <point x="370" y="700" type="curve" smooth="yes"/>
      <point x="370" y="450"/>
      <point x="558" y="268"/>
    </contour>
  </outline>
</glyph>
<glyph name="ordfeminine" format="2">
  <advance width="476"/>
  <unicode hex="00AA"/>
  <outline>
    <contour>
      <point x="200" y="910" type="curve" smooth="yes"/>
      <point x="270" y="910"/>
      <point x="329" y="937"/>
      <point x="356" y="986" type="curve"/>
      <point x="356" y="920" type="line"/>
      <point x="436" y="920" type="line"/>
      <point x="436" y="1270" type="line" smooth="yes"/>
      <point x="436" y="1358"/>
      <point x="364" y="1410"/>
      <point x="260" y="1410" type="curve" smooth="yes"/>
      <point x="176" y="1410"/>
      <point x="118" y="1378"/>
      <point x="84" y="1354" type="curve"/>
      <point x="122" y="1292" type="line"/>
      <point x="144" y="1308"/>
      <point x="194" y="1340"/>
      <point x="260" y="1340" type="curve" smooth="yes"/>
      <point x="310" y="1340"/>
      <point x="356" y="1316"/>
      <point x="356" y="1270" type="curve" smooth="yes"/>
      <point x="356" y="1193" type="line"/>
      <point x="330" y="1209"/>
      <point x="290" y="1226"/>
      <point x="236" y="1226" type="curve" smooth="yes"/>
      <point x="136" y="1226"/>
      <point x="40" y="1160"/>
      <point x="40" y="1064" type="curve" smooth="yes"/>
      <point x="40" y="966"/>
      <point x="116" y="910"/>
    </contour>
    <contour>
      <point x="220" y="982" type="curve" smooth="yes"/>
      <point x="146" y="982"/>
      <point x="122" y="1020"/>
      <point x="122" y="1064" type="curve" smooth="yes"/>
      <point x="122" y="1120"/>
      <point x="168" y="1166"/>
      <point x="240" y="1166" type="curve" smooth="yes"/>
      <point x="284" y="1166"/>
      <point x="321" y="1157"/>
      <point x="356" y="1138" type="curve"/>
      <point x="356" y="1100" type="line" smooth="yes"/>
      <point x="356" y="1014"/>
      <point x="290" y="982"/>
    </contour>
  </outline>
</glyph>
<glyph name="registered" format="2">
  <advance width="1600"/>
  <unicode hex="00AE"/>
  <outline>
    <contour>
      <point x="800" y="-20" type="curve" smooth="yes"/>
      <point x="1208" y="-20"/>
      <point x="1520" y="282"/>
      <point x="1520" y="700" type="curve" smooth="yes"/>
      <point x="1520" y="1118"/>
      <point x="1208" y="1420"/>
      <point x="800" y="1420" type="curve" smooth="yes"/>
      <point x="392" y="1420"/>
      <point x="80" y="1118"/>
      <point x="80" y="700" type="curve" smooth="yes"/>
      <point x="80" y="282"/>
      <point x="392" y="-20"/>
    </contour>
    <contour>
      <point x="800" y="80" type="curve" smooth="yes"/>
      <point x="454" y="80"/>
      <point x="190" y="344"/>
      <point x="190" y="700" type="curve" smooth="yes"/>
      <point x="190" y="1056"/>
      <point x="454" y="1320"/>
      <point x="800" y="1320" type="curve" smooth="yes"/>
      <point x="1146" y="1320"/>
      <point x="1410" y="1056"/>
      <point x="1410" y="700" type="curve" smooth="yes"/>
      <point x="1410" y="344"/>
      <point x="1146" y="80"/>
    </contour>
    <contour>
      <point x="548" y="300" type="line"/>
      <point x="650" y="300" type="line"/>
      <point x="650" y="636" type="line"/>
      <point x="752" y="636" type="line"/>
      <point x="986" y="300" type="line"/>
      <point x="1112" y="300" type="line"/>
      <point x="861" y="646" type="line"/>
      <point x="980" y="674"/>
      <point x="1062" y="762"/>
      <point x="1062" y="888" type="curve" smooth="yes"/>
      <point x="1062" y="1042"/>
      <point x="938" y="1140"/>
      <point x="776" y="1140" type="curve" smooth="yes"/>
      <point x="548" y="1140" type="line"/>
    </contour>
    <contour>
      <point x="650" y="726" type="line"/>
      <point x="650" y="1050" type="line"/>
      <point x="776" y="1050" type="line" smooth="yes"/>
      <point x="884" y="1050"/>
      <point x="960" y="992"/>
      <point x="960" y="888" type="curve" smooth="yes"/>
      <point x="960" y="784"/>
      <point x="884" y="726"/>
      <point x="776" y="726" type="curve" smooth="yes"/>
    </contour>
  </outline>
</glyph>
<glyph name="degree" format="2">
  <advance width="556"/>
  <unicode hex="00B0"/>
  <outline>
    <contour>
      <point x="278" y="960" type="curve" smooth="yes"/>
      <point x="415" y="960"/>
      <point x="516" y="1061"/>
      <point x="516" y="1200" type="curve" smooth="yes"/>
      <point x="516" y="1339"/>
      <point x="415" y="1440"/>
      <point x="278" y="1440" type="curve" smooth="yes"/>
      <point x="141" y="1440"/>
      <point x="40" y="1339"/>
      <point x="40" y="1200" type="curve" smooth="yes"/>
      <point x="40" y="1061"/>
      <point x="141" y="960"/>
    </contour>
    <contour>
      <point x="278" y="1036" type="curve" smooth="yes"/>
      <point x="187" y="1036"/>
      <point x="120" y="1105"/>
      <point x="120" y="1200" type="curve" smooth="yes"/>
      <point x="120" y="1295"/>
      <point x="187" y="1364"/>
      <point x="278" y="1364" type="curve" smooth="yes"/>
      <point x="369" y="1364"/>
      <point x="436" y="1295"/>
      <point x="436" y="1200" type="curve" smooth="yes"/>
      <point x="436" y="1105"/>
      <point x="369" y="1036"/>
    </contour>
  </outline>
</glyph>
<glyph name="plusminus" format="2">
  <advance width="1230"/>
  <unicode hex="00B1"/>
  <outline>
    <contour>
      <point x="530" y="300" type="line"/>
      <point x="700" y="300" type="line"/>
      <point x="700" y="690" type="line"/>
      <point x="1100" y="690" type="line"/>
      <point x="1100" y="850" type="line"/>
      <point x="700" y="850" type="line"/>
      <point x="700" y="1240" type="line"/>
      <point x="530" y="1240" type="line"/>
      <point x="530" y="850" type="line"/>
      <point x="130" y="850" type="line"/>
      <point x="130" y="690" type="line"/>
      <point x="530" y="690" type="line"/>
    </contour>
    <contour>
      <point x="130" y="0" type="line"/>
      <point x="1100" y="0" type="line"/>
      <point x="1100" y="160" type="line"/>
      <point x="130" y="160" type="line"/>
    </contour>
  </outline>
</glyph>
<glyph name="micro" format="2">
  <advance width="1050"/>
  <unicode hex="00B5"/>
  <outline>
    <contour>
      <point x="150" y="-640" type="line"/>
      <point x="310" y="-640" type="line"/>
      <point x="310" y="15" type="line"/>
      <point x="355" y="-8"/>
      <point x="407" y="-20"/>
      <point x="466" y="-20" type="curve" smooth="yes"/>
      <point x="577" y="-20"/>
      <point x="677" y="35"/>
      <point x="740" y="125" type="curve"/>
      <point x="740" y="0" type="line"/>
      <point x="900" y="0" type="line"/>
      <point x="900" y="920" type="line"/>
      <point x="740" y="920" type="line"/>
      <point x="740" y="360" type="line" smooth="yes"/>
      <point x="740" y="228"/>
      <point x="646" y="130"/>
      <point x="506" y="130" type="curve" smooth="yes"/>
      <point x="376" y="130"/>
      <point x="310" y="208"/>
      <point x="310" y="360" type="curve" smooth="yes"/>
      <point x="310" y="920" type="line"/>
      <point x="150" y="920" type="line"/>
    </contour>
  </outline>
</glyph>
<glyph name="paragraph" format="2">
  <advance width="1156"/>
  <unicode hex="00B6"/>
  <outline>
    <contour>
      <point x="576" y="-440" type="line"/>
      <point x="716" y="-440" type="line"/>
      <point x="716" y="1270" type="line"/>
      <point x="896" y="1270" type="line"/>
      <point x="896" y="-440" type="line"/>
      <point x="1036" y="-440" type="line"/>
      <point x="1036" y="1400" type="line"/>
      <point x="576" y="1400" type="line" smooth="yes"/>
      <point x="326" y="1400"/>
      <point x="120" y="1248"/>
      <point x="120" y="970" type="curve" smooth="yes"/>
      <point x="120" y="692"/>
      <point x="326" y="540"/>
      <point x="576" y="540" type="curve"/>
    </contour>
  </outline>
</glyph>
<glyph name="periodcentered" format="2">
  <advance width="600"/>
  <unicode hex="00B7"/>
  <outline>
    <contour>
      <point x="300" y="370" type="curve" smooth="yes"/>
      <point x="360" y="370"/>
      <point x="410" y="420"/>
      <point x="410" y="480" type="curve" smooth="yes"/>
      <point x="410" y="540"/>
      <point x="360" y="590"/>
      <point x="300" y="590" type="curve" smooth="yes"/>
      <point x="240" y="590"/>
      <point x="190" y="540"/>
      <point x="190" y="480" type="curve" smooth="yes"/>
      <point x="190" y="420"/>
      <point x="240" y="370"/>
    </contour>
  </outline>
</glyph>
<glyph name="ordmasculine" format="2">
  <advance width="556"/>
  <unicode hex="00BA"/>
  <outline>
    <contour>
      <point x="278" y="920" type="curve" smooth="yes"/>
      <point x="414" y="920"/>
      <point x="516" y="1020"/>
      <point x="516" y="1160" type="curve" smooth="yes"/>
      <point x="516" y="1300"/>
      <point x="414" y="1400"/>
      <point x="278" y="1400" type="curve" smooth="yes"/>
      <point x="142" y="1400"/>
      <point x="40" y="1300"/>
      <point x="40" y="1160" type="curve" smooth="yes"/>
      <point x="40" y="1020"/>
      <point x="142" y="920"/>
    </contour>
    <contour>
      <point x="278" y="996" type="curve" smooth="yes"/>
      <point x="188" y="996"/>
      <point x="120" y="1064"/>
      <point x="120" y="1160" type="curve" smooth="yes"/>
      <point x="120" y="1256"/>
      <point x="188" y="1324"/>
      <point x="278" y="1324" type="curve" smooth="yes"/>
      <point x="368" y="1324"/>
      <point x="436" y="1256"/>
      <point x="436" y="1160" type="curve" smooth="yes"/>
      <point x="436" y="1064"/>
      <point x="368" y="996"/>
    </contour>
  </outline>
</glyph>
<glyph name="guillemetright" format="2">
  <advance width="1020"/>
  <unicode hex="00BB"/>
  <outline>
    <contour>
      <point x="240" y="40" type="line"/>
      <point x="620" y="510" type="line"/>
      <point x="240" y="980" type="line"/>
      <point x="140" y="890" type="line"/>
      <point x="440" y="502" type="line"/>
      <point x="140" y="130" type="line"/>
    </contour>
    <contour>
      <point x="560" y="40" type="line"/>
      <point x="940" y="510" type="line"/>
      <point x="560" y="980" type="line"/>
      <point x="460" y="890" type="line"/>
      <point x="760" y="502" type="line"/>
      <point x="460" y="130" type="line"/>
    </contour>
  </outline>
</glyph>
<glyph name="questiondown" format="2">
  <advance width="1114"/>
  <unicode hex="00BF"/>
  <outline>
    <contour>
      <point x="556" y="-20" type="curve" smooth="yes"/>
      <point x="794" y="-20"/>
      <point x="902" y="74"/>
      <point x="994" y="214" type="curve"/>
      <point x="864" y="296" type="line"/>
      <point x="802" y="196"/>
      <point x="710" y="130"/>
      <point x="576" y="130" type="curve" smooth="yes"/>
      <point x="396" y="130"/>
      <point x="282" y="228"/>
      <point x="282" y="400" type="curve" smooth="yes"/>
      <point x="282" y="552"/>
      <point x="426" y="710"/>
      <point x="666" y="710" type="curve" smooth="yes"/>
      <point x="718" y="710" type="line"/>
      <point x="678" y="1060" type="line"/>
      <point x="558" y="1060" type="line"/>
      <point x="544" y="820" type="line"/>
      <point x="322" y="808"/>
      <point x="120" y="630"/>
      <point x="120" y="400" type="curve" smooth="yes"/>
      <point x="120" y="162"/>
      <point x="306" y="-20"/>
    </contour>
    <contour>
      <point x="614" y="1210" type="curve" smooth="yes"/>
      <point x="674" y="1210"/>
      <point x="724" y="1260"/>
      <point x="724" y="1320" type="curve" smooth="yes"/>
      <point x="724" y="1380"/>
      <point x="674" y="1430"/>
      <point x="614" y="1430" type="curve" smooth="yes"/>
      <point x="554" y="1430"/>
      <point x="504" y="1380"/>
      <point x="504" y="1320" type="curve" smooth="yes"/>
      <point x="504" y="1260"/>
      <point x="554" y="1210"/>
    </contour>
  </outline>
</glyph>
<glyph name="AE" format="2">
  <advance width="1920"/>
  <unicode hex="00C6"/>
  <anchor x="960" y="0" name="bottom"/>
  <anchor x="1291" y="1400" name="top"/>
  <outline>
    <contour>
      <point x="10" y="0" type="line"/>
      <point x="200" y="0" type="line"/>
      <point x="457" y="420" type="line"/>
      <point x="980" y="420" type="line"/>
      <point x="980" y="0" type="line"/>
      <point x="1780" y="0" type="line"/>
      <point x="1780" y="160" type="line"/>
      <point x="1150" y="160" type="line"/>
      <point x="1150" y="680" type="line"/>
      <point x="1740" y="680" type="line"/>
      <point x="1740" y="840" type="line"/>
      <point x="1150" y="840" type="line"/>
      <point x="1150" y="1240" type="line"/>
      <point x="1780" y="1240" type="line"/>
      <point x="1780" y="1400" type="line"/>
      <point x="870" y="1400" type="line"/>
    </contour>
    <contour>
      <point x="555" y="580" type="line"/>
      <point x="980" y="1274" type="line"/>
      <point x="980" y="580" type="line"/>
    </contour>
  </outline>
</glyph>
<glyph name="Eth" format="2">
  <advance width="1360"/>
  <unicode hex="00D0"/>
  <outline>
    <contour>
      <point x="160" y="0" type="line"/>
      <point x="580" y="0" type="line" smooth="yes"/>
      <point x="993" y="0"/>
      <point x="1280" y="287"/>
      <point x="1280" y="700" type="curve" smooth="yes"/>
      <point x="1280" y="1113"/>
      <point x="993" y="1400"/>
      <point x="580" y="1400" type="curve" smooth="yes"/>
      <point x="160" y="1400" type="line"/>
      <point x="160" y="770" type="line"/>
      <point x="10" y="770" type="line"/>
      <point x="10" y="620" type="line"/>
      <point x="160" y="620" type="line"/>
    </contour>
    <contour>
      <point x="330" y="170" type="line"/>
      <point x="330" y="620" type="line"/>
      <point x="610" y="620" type="line"/>
      <point x="610" y="770" type="line"/>
      <point x="330" y="770" type="line"/>
      <point x="330" y="1230" type="line"/>
      <point x="580" y="1230" type="line" smooth="yes"/>
      <point x="901" y="1230"/>
      <point x="1110" y="1021"/>
      <point x="1110" y="700" type="curve" smooth="yes"/>
      <point x="1110" y="379"/>
      <point x="901" y="170"/>
      <point x="580" y="170" type="curve" smooth="yes"/>
    </contour>
  </outline>
</glyph>
<glyph name="multiply" format="2">
  <advance width="1192"/>
  <unicode hex="00D7"/>
  <outline>
    <contour>
      <point x="242" y="44" type="line"/>
      <point x="596" y="408" type="line"/>
      <point x="950" y="44" type="line"/>
      <point x="1062" y="156" type="line"/>
      <point x="698" y="510" type="line"/>
      <point x="1062" y="864" type="line"/>
      <point x="950" y="976" type="line"/>
      <point x="596" y="612" type="line"/>
      <point x="242" y="976" type="line"/>
      <point x="130" y="864" type="line"/>
      <point x="494" y="510" type="line"/>
      <point x="130" y="156" type="line"/>
    </contour>
  </outline>
</glyph>
<glyph name="Oslash" format="2">
  <advance width="1580"/>
  <unicode hex="00D8"/>
  <anchor x="790" y="0" name="bottom"/>
  <anchor x="790" y="700" name="center"/>
  <anchor x="922" y="20" name="ogonek"/>
  <anchor x="790" y="1400" name="top"/>
  <anchor x="20" y="1400" name="topleft"/>
  <anchor x="1560" y="1400" name="topright"/>
  <outline>
    <contour>
      <point x="196" y="-100" type="line"/>
      <point x="429" y="173" type="line"/>
      <point x="459" y="208" type="line"/>
      <point x="1229" y="1111" type="line"/>
      <point x="1256" y="1142" type="line"/>
      <point x="1494" y="1420" type="line"/>
      <point x="1376" y="1500" type="line"/>
      <point x="1141" y="1224" type="line"/>
      <point x="1116" y="1194" type="line"/>
      <point x="353" y="301" type="line"/>
      <point x="325" y="268" type="line"/>
      <point x="80" y="-20" type="line"/>
    </contour>
    <contour>
      <point x="790" y="-20" type="curve" smooth="yes"/>
      <point x="1195" y="-20"/>
      <point x="1500" y="289"/>
      <point x="1500" y="700" type="curve" smooth="yes"/>
      <point x="1500" y="1111"/>
      <point x="1195" y="1420"/>
      <point x="790" y="1420" type="curve" smooth="yes"/>
      <point x="385" y="1420"/>
      <point x="80" y="1111"/>
      <point x="80" y="700" type="curve" smooth="yes"/>
      <point x="80" y="289"/>
      <point x="385" y="-20"/>
    </contour>
    <contour>
      <point x="790" y="150" type="curve" smooth="yes"/>
      <point x="485" y="150"/>
      <point x="260" y="383"/>
      <point x="260" y="700" type="curve" smooth="yes"/>
      <point x="260" y="1017"/>
      <point x="485" y="1250"/>
      <point x="790" y="1250" type="curve" smooth="yes"/>
      <point x="1095" y="1250"/>
      <point x="1320" y="1017"/>
      <point x="1320" y="700" type="curve" smooth="yes"/>
      <point x="1320" y="383"/>
      <point x="1095" y="150"/>
    </contour>
  </outline>
</glyph>
<glyph name="Thorn" format="2">
  <advance width="1100"/>
  <unicode hex="00DE"/>
  <anchor x="550" y="0" name="bottom"/>
  <anchor x="550" y="1400" name="top"/>
  <outline>
    <contour>
      <point x="160" y="0" type="line"/>
      <point x="330" y="0" type="line"/>
      <point x="330" y="280" type="line"/>
      <point x="540" y="280" type="line" smooth="yes"/>
      <point x="821" y="280"/>
      <point x="1016" y="452"/>
      <point x="1016" y="700" type="curve" smooth="yes"/>
      <point x="1016" y="948"/>
      <point x="821" y="1120"/>
      <point x="540" y="1120" type="curve" smooth="yes"/>
      <point x="330" y="1120" type="line"/>
      <point x="330" y="1400" type="line"/>
      <point x="160" y="1400" type="line"/>
    </contour>
    <contour>
      <point x="330" y="440" type="line"/>
      <point x="330" y="960" type="line"/>
      <point x="540" y="960" type="line" smooth="yes"/>
      <point x="731" y="960"/>
      <point x="846" y="862"/>
      <point x="846" y="700" type="curve" smooth="yes"/>
      <point x="846" y="538"/>
      <point x="731" y="440"/>
      <point x="540" y="440" type="curve" smooth="yes"/>
    </contour>
  </outline>
</glyph>
<glyph name="germandbls" format="2">
  <advance width="1131"/>
  <unicode hex="00DF"/>
  <outline>
    <contour>
      <point x="683" y="-23" type="curve" smooth="yes"/>
      <point x="901" y="-23"/>
      <point x="1071" y="147"/>
      <point x="1071" y="363" type="curve" smooth="yes"/>
      <point x="1071" y="651"/>
      <point x="739" y="664"/>
      <point x="739" y="804" type="curve" smooth="yes"/>
      <point x="739" y="973"/>
      <point x="959" y="1012"/>
      <point x="959" y="1284" type="curve" smooth="yes"/>
      <point x="959" y="1495"/>
      <point x="808" y="1588"/>
      <point x="593" y="1588" type="curve" smooth="yes"/>
      <point x="322" y="1588"/>
      <point x="144" y="1434"/>
      <point x="144" y="1217" type="curve" smooth="yes"/>
      <point x="144" y="-3" type="line"/>
      <point x="306" y="-3" type="line"/>
      <point x="303" y="1175" type="line" smooth="yes"/>
      <point x="303" y="1364"/>
      <point x="415" y="1442"/>
      <point x="566" y="1442" type="curve" smooth="yes"/>
      <point x="684" y="1442"/>
      <point x="793" y="1400"/>
      <point x="793" y="1270" type="curve" smooth="yes"/>
      <point x="793" y="1061"/>
      <point x="565" y="991"/>
      <point x="565" y="804" type="curve" smooth="yes"/>
      <point x="565" y="575"/>
      <point x="905" y="567"/>
      <point x="905" y="342" type="curve" smooth="yes"/>
      <point x="905" y="226"/>
      <point x="814" y="127"/>
      <point x="695" y="127" type="curve" smooth="yes"/>
      <point x="617" y="127"/>
      <point x="549" y="169"/>
      <point x="489" y="231" type="curve"/>
      <point x="390" y="112" type="line"/>
      <point x="461" y="31"/>
      <point x="560" y="-23"/>
    </contour>
  </outline>
</glyph>
<glyph name="ae" format="2">
  <advance width="1650"/>
  <unicode hex="00E6"/>
  <anchor x="825" y="0" name="bottom"/>
  <anchor x="825" y="920" name="top"/>
  <outline>
    <contour>
      <point x="416" y="-20" type="curve" smooth="yes"/>
      <point x="617" y="-20"/>
      <point x="756" y="72"/>
      <point x="779" y="220" type="curve"/>
      <point x="759" y="220" type="line"/>
      <point x="836" y="52"/>
      <point x="946" y="-20"/>
      <point x="1126" y="-20" type="curve" smooth="yes"/>
      <point x="1314" y="-20"/>
      <point x="1463" y="60"/>
      <point x="1564" y="214" type="curve"/>
      <point x="1434" y="296" type="line"/>
      <point x="1366" y="185"/>
      <point x="1269" y="130"/>
      <point x="1146" y="130" type="curve" smooth="yes"/>
      <point x="963" y="130"/>
      <point x="853" y="252"/>
      <point x="852" y="458" type="curve"/>
      <point x="808" y="420" type="line"/>
      <point x="1577" y="420" type="line"/>
      <point x="1579" y="427"/>
      <point x="1580" y="446"/>
      <point x="1580" y="468" type="curve" smooth="yes"/>
      <point x="1580" y="746"/>
      <point x="1410" y="940"/>
      <point x="1166" y="940" type="curve" smooth="yes"/>
      <point x="1001" y="940"/>
      <point x="859" y="854"/>
      <point x="788" y="712" type="curve"/>
      <point x="807" y="712" type="line"/>
      <point x="789" y="859"/>
      <point x="678" y="940"/>
      <point x="496" y="940" type="curve" smooth="yes"/>
      <point x="368" y="940"/>
      <point x="244" y="900"/>
      <point x="144" y="826" type="curve"/>
      <point x="222" y="704" type="line"/>
      <point x="302" y="763"/>
      <point x="406" y="800"/>
      <point x="496" y="800" type="curve" smooth="yes"/>
      <point x="621" y="800"/>
      <point x="690" y="728"/>
      <point x="690" y="600" type="curve" smooth="yes"/>
      <point x="690" y="461" type="line"/>
      <point x="775" y="461" type="line"/>
      <point x="639" y="545"/>
      <point x="560" y="572"/>
      <point x="452" y="572" type="curve" smooth="yes"/>
      <point x="220" y="572"/>
      <point x="60" y="441"/>
      <point x="60" y="250" type="curve" smooth="yes"/>
      <point x="60" y="85"/>
      <point x="198" y="-20"/>
    </contour>
    <contour>
      <point x="416" y="122" type="curve" smooth="yes"/>
      <point x="282" y="122"/>
      <point x="222" y="168"/>
      <point x="222" y="270" type="curve" smooth="yes"/>
      <point x="222" y="388"/>
      <point x="304" y="450"/>
      <point x="460" y="450" type="curve" smooth="yes"/>
      <point x="552" y="450"/>
      <point x="637" y="429"/>
      <point x="708" y="388" type="curve"/>
      <point x="690" y="442" type="line"/>
      <point x="702" y="233" type="line"/>
      <point x="708" y="385" type="line"/>
      <point x="685" y="204"/>
      <point x="595" y="122"/>
    </contour>
    <contour>
      <point x="852" y="478" type="line"/>
      <point x="852" y="675"/>
      <point x="965" y="800"/>
      <point x="1142" y="800" type="curve" smooth="yes"/>
      <point x="1304" y="800"/>
      <point x="1408" y="694"/>
      <point x="1408" y="531" type="curve" smooth="yes"/>
      <point x="1408" y="514"/>
      <point x="1407" y="507"/>
      <point x="1403" y="499" type="curve"/>
      <point x="1452" y="556" type="line"/>
      <point x="808" y="556" type="line"/>
    </contour>
  </outline>
</glyph>
<glyph name="eth" format="2">
  <advance width="1152"/>
  <unicode hex="00F0"/>
  <outline>
    <contour>
      <point x="576" y="-20" type="curve" smooth="yes"/>
      <point x="854" y="-20"/>
      <point x="1052" y="179"/>
      <point x="1052" y="460" type="curve" smooth="yes"/>
      <point x="1052" y="728"/>
      <point x="871" y="1022"/>
      <point x="442" y="1450" type="curve"/>
      <point x="346" y="1338" type="line"/>
      <point x="575" y="1132"/>
      <point x="717" y="958"/>
      <point x="806" y="772" type="curve"/>
      <point x="898" y="772" type="line"/>
      <point x="764" y="866"/>
      <point x="633" y="914"/>
      <point x="514" y="914" type="curve" smooth="yes"/>
      <point x="275" y="914"/>
      <point x="100" y="722"/>
      <point x="100" y="460" type="curve" smooth="yes"/>
      <point x="100" y="180"/>
      <point x="298" y="-20"/>
    </contour>
    <contour>
      <point x="576" y="134" type="curve" smooth="yes"/>
      <point x="393" y="134"/>
      <point x="262" y="271"/>
      <point x="262" y="460" type="curve" smooth="yes"/>
      <point x="262" y="650"/>
      <point x="395" y="790"/>
      <point x="576" y="790" type="curve" smooth="yes"/>
      <point x="757" y="790"/>
      <point x="890" y="650"/>
      <point x="890" y="460" type="curve" smooth="yes"/>
      <point x="890" y="271"/>
      <point x="759" y="134"/>
    </contour>
    <contour>
      <point x="368" y="1006" type="line"/>
      <point x="928" y="1221" type="line"/>
      <point x="892" y="1314" type="line"/>
      <point x="332" y="1099" type="line"/>
    </contour>
  </outline>
</glyph>
<glyph name="divide" format="2">
  <advance width="1246"/>
  <unicode hex="00F7"/>
  <outline>
    <contour>
      <point x="620" y="790" type="curve" smooth="yes"/>
      <point x="680" y="790"/>
      <point x="730" y="840"/>
      <point x="730" y="900" type="curve" smooth="yes"/>
      <point x="730" y="960"/>
      <point x="680" y="1010"/>
      <point x="620" y="1010" type="curve" smooth="yes"/>
      <point x="560" y="1010"/>
      <point x="510" y="960"/>
      <point x="510" y="900" type="curve" smooth="yes"/>
      <point x="510" y="840"/>
      <point x="560" y="790"/>
    </contour>
    <contour>
      <point x="120" y="450" type="line"/>
      <point x="1120" y="450" type="line"/>
      <point x="1120" y="610" type="line"/>
      <point x="120" y="610" type="line"/>
    </contour>
    <contour>
      <point x="620" y="30" type="curve" smooth="yes"/>
      <point x="680" y="30"/>
      <point x="730" y="80"/>
      <point x="730" y="140" type="curve" smooth="yes"/>
      <point x="730" y="200"/>
      <point x="680" y="250"/>
      <point x="620" y="250" type="curve" smooth="yes"/>
      <point x="560" y="250"/>
      <point x="510" y="200"/>
      <point x="510" y="140" type="curve" smooth="yes"/>
      <point x="510" y="80"/>
      <point x="560" y="30"/>
    </contour>
  </outline>
</glyph>
<glyph name="oslash" format="2">
  <advance width="1092"/>
  <unicode hex="00F8"/>
  <anchor x="546" y="0" name="bottom"/>
  <anchor x="546" y="460" name="center"/>
  <anchor x="690" y="41" name="ogonek"/>
  <anchor x="546" y="940" name="top"/>
  <anchor x="1072" y="920" name="topright"/>
  <outline>
    <contour>
      <point x="546" y="-20" type="curve" smooth="yes"/>
      <point x="819" y="-20"/>
      <point x="1022" y="185"/>
      <point x="1022" y="460" type="curve" smooth="yes"/>
      <point x="1022" y="735"/>
      <point x="819" y="940"/>
      <point x="546" y="940" type="curve" smooth="yes"/>
      <point x="273" y="940"/>
      <point x="70" y="735"/>
      <point x="70" y="460" type="curve" smooth="yes"/>
      <point x="70" y="185"/>
      <point x="273" y="-20"/>
    </contour>
    <contour>
      <point x="546" y="130" type="curve" smooth="yes"/>
      <point x="365" y="130"/>
      <point x="232" y="269"/>
      <point x="232" y="460" type="curve" smooth="yes"/>
      <point x="232" y="651"/>
      <point x="365" y="790"/>
      <point x="546" y="790" type="curve" smooth="yes"/>
      <point x="727" y="790"/>
      <point x="860" y="651"/>
      <point x="860" y="460" type="curve" smooth="yes"/>
      <point x="860" y="269"/>
      <point x="727" y="130"/>
    </contour>
    <contour>
      <point x="218" y="-67" type="line"/>
      <point x="322" y="67" type="line"/>
      <point x="364" y="96" type="line"/>
      <point x="828" y="725" type="line"/>
      <point x="883" y="758" type="line"/>
      <point x="1007" y="910" type="line"/>
      <point x="917" y="986" type="line"/>
      <point x="791" y="832" type="line"/>
      <point x="739" y="800" type="line"/>
      <point x="276" y="171" type="line"/>
      <point x="233" y="139" type="line"/>
      <point x="124" y="7" type="line"/>
    </contour>
  </outline>
</glyph>
<glyph name="thorn" format="2">
  <advance width="1140"/>
  <unicode hex="00FE"/>
  <anchor x="570" y="0" name="bottom"/>
  <anchor x="570" y="920" name="top"/>
  <outline>
    <contour>
      <point x="140" y="-440" type="line"/>
      <point x="300" y="-440" type="line"/>
      <point x="300" y="1560" type="line"/>
      <point x="140" y="1560" type="line"/>
    </contour>
    <contour>
      <point x="614" y="-20" type="curve" smooth="yes"/>
      <point x="876" y="-20"/>
      <point x="1070" y="184"/>
      <point x="1070" y="460" type="curve" smooth="yes"/>
      <point x="1070" y="735"/>
      <point x="875" y="940"/>
      <point x="614" y="940" type="curve" smooth="yes"/>
      <point x="376" y="940"/>
      <point x="228" y="757"/>
      <point x="228" y="460" type="curve" smooth="yes"/>
      <point x="228" y="159"/>
      <point x="372" y="-20"/>
    </contour>
    <contour>
      <point x="594" y="130" type="curve" smooth="yes"/>
      <point x="423" y="130"/>
      <point x="300" y="268"/>
      <point x="300" y="460" type="curve" smooth="yes"/>
      <point x="300" y="652"/>
      <point x="423" y="790"/>
      <point x="594" y="790" type="curve" smooth="yes"/>
      <point x="775" y="790"/>
      <point x="908" y="650"/>
      <point x="908" y="460" type="curve" smooth="yes"/>
      <point x="908" y="274"/>
      <point x="771" y="130"/>
    </contour>
  </outline>
</glyph>
<glyph name="Hbar" format="2">
  <advance width="1430"/>
  <unicode hex="0126"/>
  <anchor x="715" y="0" name="bottom"/>
  <anchor x="715" y="700" name="center"/>
  <anchor x="715" y="1400" name="top"/>
  <anchor x="20" y="1400" name="topleft"/>
  <outline>
    <contour>
      <point x="160" y="0" type="line"/>
      <point x="330" y="0" type="line"/>
      <point x="330" y="580" type="line"/>
      <point x="1100" y="580" type="line"/>
      <point x="1100" y="0" type="line"/>
      <point x="1270" y="0" type="line"/>
      <point x="1270" y="930" type="line"/>
      <point x="1352" y="930" type="line"/>
      <point x="1352" y="1090" type="line"/>
      <point x="1270" y="1090" type="line"/>
      <point x="1270" y="1400" type="line"/>
      <point x="1100" y="1400" type="line"/>
      <point x="1100" y="1090" type="line"/>
      <point x="330" y="1090" type="line"/>
      <point x="330" y="1400" type="line"/>
      <point x="160" y="1400" type="line"/>
      <point x="160" y="1090" type="line"/>
      <point x="78" y="1090" type="line"/>
      <point x="78" y="930" type="line"/>
      <point x="160" y="930" type="line"/>
    </contour>
    <contour>
      <point x="330" y="740" type="line"/>
      <point x="330" y="930" type="line"/>
      <point x="1100" y="930" type="line"/>
      <point x="1100" y="740" type="line"/>
    </contour>
  </outline>
</glyph>
<glyph name="hbar" format="2">
  <advance width="1050"/>
  <unicode hex="0127"/>
  <anchor x="525" y="0" name="bottom"/>
  <anchor x="525" y="800" name="center"/>
  <anchor x="656" y="1400" name="top"/>
  <outline>
    <contour>
      <point x="150" y="0" type="line"/>
      <point x="310" y="0" type="line"/>
      <point x="310" y="1560" type="line"/>
      <point x="150" y="1560" type="line"/>
    </contour>
    <contour>
      <point x="10" y="1115" type="line"/>
      <point x="510" y="1115" type="line"/>
      <point x="510" y="1265" type="line"/>
      <point x="10" y="1265" type="line"/>
    </contour>
    <contour>
      <point x="740" y="0" type="line"/>
      <point x="900" y="0" type="line"/>
      <point x="900" y="580" type="line" smooth="yes"/>
      <point x="900" y="799"/>
      <point x="776" y="940"/>
      <point x="584" y="940" type="curve" smooth="yes"/>
      <point x="388" y="940"/>
      <point x="258" y="788"/>
      <point x="258" y="560" type="curve"/>
      <point x="310" y="560" type="line"/>
      <point x="310" y="696"/>
      <point x="405" y="790"/>
      <point x="544" y="790" type="curve" smooth="yes"/>
      <point x="672" y="790"/>
      <point x="740" y="711"/>
      <point x="740" y="560" type="curve" smooth="yes"/>
    </contour>
  </outline>
</glyph>
<glyph name="Lslash" format="2">
  <advance width="900"/>
  <unicode hex="0141"/>
  <anchor x="481" y="0" name="bottom"/>
  <anchor x="450" y="700" name="center"/>
  <anchor x="570" y="1400" name="top"/>
  <anchor x="880" y="1400" name="topright"/>
  <outline>
    <contour>
      <point x="160" y="0" type="line"/>
      <point x="880" y="0" type="line"/>
      <point x="880" y="160" type="line"/>
      <point x="330" y="160" type="line"/>
      <point x="330" y="1400" type="line"/>
      <point x="160" y="1400" type="line"/>
    </contour>
    <contour>
      <point x="90" y="692" type="line"/>
      <point x="534" y="1015" type="line"/>
      <point x="440" y="1144" type="line"/>
      <point x="-4" y="821" type="line"/>
    </contour>
  </outline>
</glyph>
<glyph name="lslash" format="2">
  <advance width="460"/>
  <unicode hex="0142"/>
  <anchor x="230" y="0" name="bottom"/>
  <anchor x="230" y="800" name="center"/>
  <anchor x="230" y="1560" name="top"/>
  <anchor x="440" y="1600" name="topright"/>
  <outline>
    <contour>
      <point x="150" y="0" type="line"/>
      <point x="310" y="0" type="line"/>
      <point x="310" y="913" type="line"/>
      <point x="522" y="1085" type="line"/>
      <point x="440" y="1186" type="line"/>
      <point x="310" y="1081" type="line"/>
      <point x="310" y="1560" type="line"/>
      <point x="150" y="1560" type="line"/>
      <point x="150" y="951" type="line"/>
      <point x="-26" y="809" type="line"/>
      <point x="56" y="708" type="line"/>
      <point x="150" y="784" type="line"/>
    </contour>
  </outline>
</glyph>
<glyph name="Eng" format="2">
  <advance width="1550"/>
  <unicode hex="014A"/>
  <anchor x="775" y="0" name="bottom"/>
  <anchor x="775" y="1400" name="top"/>
  <outline>
    <contour>
      <point x="1124" y="-440" type="curve" smooth="yes"/>
      <point x="1292" y="-440"/>
      <point x="1390" y="-322"/>
      <point x="1390" y="-120" type="curve" smooth="yes"/>
      <point x="1390" y="1400" type="line"/>
      <point x="1220" y="1400" type="line"/>
      <point x="1220" y="358" type="line"/>
      <point x="160" y="1470" type="line"/>
      <point x="160" y="0" type="line"/>
      <point x="330" y="0" type="line"/>
      <point x="330" y="1042" type="line"/>
      <point x="1230" y="98" type="line"/>
      <point x="1230" y="-100" type="line" smooth="yes"/>
      <point x="1230" y="-229"/>
      <point x="1203" y="-280"/>
      <point x="1134" y="-280" type="curve" smooth="yes"/>
      <point x="1092" y="-280"/>
      <point x="1056" y="-261"/>
      <point x="1036" y="-228" type="curve"/>
      <point x="948" y="-360" type="line"/>
      <point x="988" y="-414"/>
      <point x="1045" y="-440"/>
    </contour>
  </outline>
</glyph>
<glyph name="eng" format="2">
  <advance width="1050"/>
  <unicode hex="014B"/>
  <outline>
    <contour>
      <point x="634" y="-440" type="curve" smooth="yes"/>
      <point x="809" y="-440"/>
      <point x="900" y="-330"/>
      <point x="900" y="-120" type="curve" smooth="yes"/>
      <point x="900" y="580" type="line" smooth="yes"/>
      <point x="900" y="808"/>
      <point x="784" y="940"/>
      <point x="584" y="940" type="curve" smooth="yes"/>
      <point x="468" y="940"/>
      <point x="369" y="880"/>
      <point x="310" y="775" type="curve"/>
      <point x="310" y="920" type="line"/>
      <point x="150" y="920" type="line"/>
      <point x="150" y="0" type="line"/>
      <point x="310" y="0" type="line"/>
      <point x="310" y="560" type="line" smooth="yes"/>
      <point x="310" y="695"/>
      <point x="407" y="790"/>
      <point x="544" y="790" type="curve" smooth="yes"/>
      <point x="674" y="790"/>
      <point x="740" y="712"/>
      <point x="740" y="560" type="curve" smooth="yes"/>
      <point x="740" y="-100" type="line" smooth="yes"/>
      <point x="740" y="-222"/>
      <point x="709" y="-280"/>
      <point x="644" y="-280" type="curve" smooth="yes"/>
      <point x="599" y="-280"/>
      <point x="568" y="-264"/>
      <point x="546" y="-228" type="curve"/>
      <point x="458" y="-360" type="line"/>
      <point x="495" y="-410"/>
      <point x="562" y="-440"/>
    </contour>
  </outline>
</glyph>
<glyph name="OE" format="2">
  <advance width="1970"/>
  <unicode hex="0152"/>
  <anchor x="985" y="0" name="bottom"/>
  <anchor x="1114" y="1400" name="top"/>
  <outline>
    <contour>
      <point x="780" y="0" type="curve" smooth="yes"/>
      <point x="1832" y="0" type="line"/>
      <point x="1832" y="160" type="line"/>
      <point x="1200" y="160" type="line"/>
      <point x="1200" y="680" type="line"/>
      <point x="1790" y="680" type="line"/>
      <point x="1790" y="840" type="line"/>
      <point x="1200" y="840" type="line"/>
      <point x="1200" y="1240" type="line"/>
      <point x="1830" y="1240" type="line"/>
      <point x="1830" y="1400" type="line"/>
      <point x="780" y="1400" type="line" smooth="yes"/>
      <point x="368" y="1400"/>
      <point x="80" y="1113"/>
      <point x="80" y="700" type="curve" smooth="yes"/>
      <point x="80" y="288"/>
      <point x="368" y="0"/>
    </contour>
    <contour>
      <point x="780" y="160" type="line" smooth="yes"/>
      <point x="463" y="160"/>
      <point x="250" y="377"/>
      <point x="250" y="700" type="curve" smooth="yes"/>
      <point x="250" y="1024"/>
      <point x="462" y="1240"/>
      <point x="780" y="1240" type="curve" smooth="yes"/>
      <point x="1030" y="1240" type="line"/>
      <point x="1030" y="160" type="line"/>
    </contour>
  </outline>
</glyph>
<glyph name="oe" format="2">
  <advance width="1800"/>
  <unicode hex="0153"/>
  <anchor x="900" y="0" name="bottom"/>
  <anchor x="900" y="920" name="top"/>
  <outline>
    <contour>
      <point x="526" y="-20" type="curve" smooth="yes"/>
      <point x="723" y="-20"/>
      <point x="883" y="103"/>
      <point x="917" y="281" type="curve"/>
      <point x="883" y="279" type="line"/>
      <point x="949" y="88"/>
      <point x="1099" y="-20"/>
      <point x="1296" y="-20" type="curve" smooth="yes"/>
      <point x="1468" y="-20"/>
      <point x="1614" y="61"/>
      <point x="1714" y="214" type="curve"/>
      <point x="1584" y="296" type="line"/>
      <point x="1516" y="185"/>
      <point x="1419" y="130"/>
      <point x="1296" y="130" type="curve" smooth="yes"/>
      <point x="1113" y="130"/>
      <point x="1003" y="252"/>
      <point x="1002" y="458" type="curve"/>
      <point x="958" y="420" type="line"/>
      <point x="1728" y="420" type="line"/>
      <point x="1729" y="425"/>
      <point x="1730" y="449"/>
      <point x="1730" y="468" type="curve" smooth="yes"/>
      <point x="1730" y="758"/>
      <point x="1570" y="940"/>
      <point x="1316" y="940" type="curve" smooth="yes"/>
      <point x="1115" y="940"/>
      <point x="948" y="825"/>
      <point x="883" y="641" type="curve"/>
      <point x="917" y="641" type="line"/>
      <point x="883" y="818"/>
      <point x="723" y="940"/>
      <point x="526" y="940" type="curve" smooth="yes"/>
      <point x="263" y="940"/>
      <point x="70" y="737"/>
      <point x="70" y="460" type="curve" smooth="yes"/>
      <point x="70" y="187"/>
      <point x="267" y="-20"/>
    </contour>
    <contour>
      <point x="546" y="130" type="curve" smooth="yes"/>
      <point x="368" y="130"/>
      <point x="232" y="273"/>
      <point x="232" y="460" type="curve" smooth="yes"/>
      <point x="232" y="646"/>
      <point x="369" y="790"/>
      <point x="546" y="790" type="curve" smooth="yes"/>
      <point x="708" y="790"/>
      <point x="822" y="654"/>
      <point x="822" y="460" type="curve" smooth="yes"/>
      <point x="822" y="260"/>
      <point x="713" y="130"/>
    </contour>
    <contour>
      <point x="1006" y="522" type="line"/>
      <point x="1008" y="685"/>
      <point x="1128" y="800"/>
      <point x="1296" y="800" type="curve" smooth="yes"/>
      <point x="1446" y="800"/>
      <point x="1545" y="703"/>
      <point x="1559" y="543" type="curve" smooth="yes"/>
      <point x="1560" y="532"/>
      <point x="1560" y="531"/>
      <point x="1560" y="523" type="curve"/>
      <point x="1602" y="556" type="line"/>
      <point x="963" y="556" type="line"/>
    </contour>
  </outline>
</glyph>
<glyph name="Tbar" format="2">
  <advance width="930"/>
  <unicode hex="0166"/>
  <anchor x="391" y="-10" name="bottom"/>
  <anchor x="465" y="700" name="center"/>
  <anchor x="485" y="1400" name="top"/>
  <outline>
    <contour>
      <point x="380" y="0" type="line"/>
      <point x="550" y="0" type="line"/>
      <point x="550" y="1240" type="line"/>
      <point x="910" y="1240" type="line"/>
      <point x="910" y="1400" type="line"/>
      <point x="20" y="1400" type="line"/>
      <point x="20" y="1240" type="line"/>
      <point x="380" y="1240" type="line"/>
    </contour>
    <contour>
      <point x="71" y="840" type="line"/>
      <point x="859" y="840" type="line"/>
      <point x="859" y="1000" type="line"/>
      <point x="71" y="1000" type="line"/>
    </contour>
  </outline>
</glyph>
<glyph name="tbar" format="2">
  <advance width="480"/>
  <unicode hex="0167"/>
  <anchor x="160" y="-20" name="bottom"/>
  <anchor x="240" y="460" name="center"/>
  <anchor x="240" y="1095" name="top"/>
  <anchor x="460" y="920" name="topright"/>
  <outline>
    <contour>
      <point x="160" y="0" type="line"/>
      <point x="320" y="0" type="line"/>
      <point x="320" y="470" type="line"/>
      <point x="470" y="470" type="line"/>
      <point x="470" y="620" type="line"/>
      <point x="320" y="620" type="line"/>
      <point x="320" y="770" type="line"/>
      <point x="470" y="770" type="line"/>
      <point x="470" y="920" type="line"/>
      <point x="320" y="920" type="line"/>
      <point x="320" y="1240" type="line"/>
      <point x="160" y="1240" type="line"/>
      <point x="160" y="920" type="line"/>
      <point x="10" y="920" type="line"/>
      <point x="10" y="770" type="line"/>
      <point x="160" y="770" type="line"/>
      <point x="160" y="620" type="line"/>
      <point x="10" y="620" type="line"/>
      <point x="10" y="470" type="line"/>
      <point x="160" y="470" type="line"/>
    </contour>
  </outline>
</glyph>
<glyph name="gravecomb" format="2">
  <unicode hex="0300"/>
  <anchor x="225" y="920" name="_top"/>
  <anchor x="225" y="1400" name="top"/>
  <outline>
    <contour>
      <point x="360" y="1090" type="line"/>
      <point x="450" y="1150" type="line"/>
      <point x="150" y="1470" type="line"/>
      <point x="0" y="1390" type="line"/>
    </contour>
  </outline>
</glyph>
<glyph name="acutecomb" format="2">
  <unicode hex="0301"/>
  <anchor x="195" y="920" name="_top"/>
  <anchor x="195" y="1400" name="top"/>
  <outline>
    <contour>
      <point x="120" y="1090" type="line"/>
      <point x="480" y="1390" type="line"/>
      <point x="330" y="1470" type="line"/>
      <point x="30" y="1150" type="line"/>
    </contour>
  </outline>
</glyph>
<glyph name="circumflexcomb" format="2">
  <unicode hex="0302"/>
  <anchor x="302" y="920" name="_top"/>
  <anchor x="302" y="1453" name="top"/>
  <outline>
    <contour>
      <point x="82" y="1094" type="line"/>
      <point x="336" y="1313" type="line"/>
      <point x="268" y="1313" type="line"/>
      <point x="522" y="1094" type="line"/>
      <point x="604" y="1192" type="line"/>
      <point x="302" y="1453" type="line"/>
      <point x="0" y="1192" type="line"/>
    </contour>
  </outline>
</glyph>
<glyph name="tildecomb" format="2">
  <unicode hex="0303"/>
  <anchor x="330" y="920" name="_top"/>
  <anchor x="330" y="1416" name="top"/>
  <outline>
    <contour>
      <point x="106" y="1176" type="line"/>
      <point x="106" y="1206"/>
      <point x="124" y="1278"/>
      <point x="206" y="1278" type="curve" smooth="yes"/>
      <point x="296" y="1278"/>
      <point x="338" y="1184"/>
      <point x="448" y="1184" type="curve" smooth="yes"/>
      <point x="548" y="1184"/>
      <point x="628" y="1256"/>
      <point x="660" y="1330" type="curve"/>
      <point x="568" y="1416" type="line"/>
      <point x="528" y="1352"/>
      <point x="494" y="1320"/>
      <point x="456" y="1320" type="curve" smooth="yes"/>
      <point x="348" y="1320"/>
      <point x="338" y="1414"/>
      <point x="208" y="1414" type="curve" smooth="yes"/>
      <point x="118" y="1414"/>
      <point x="20" y="1348"/>
      <point x="0" y="1250" type="curve"/>
    </contour>
  </outline>
</glyph>
<glyph name="brevecomb" format="2">
  <unicode hex="0306"/>
  <anchor x="316" y="920" name="_top"/>
  <anchor x="316" y="1420" name="top"/>
  <outline>
    <contour>
      <point x="316" y="1080" type="curve" smooth="yes"/>
      <point x="499" y="1080"/>
      <point x="632" y="1198"/>
      <point x="632" y="1360" type="curve"/>
      <point x="490" y="1360" type="line"/>
      <point x="490" y="1274"/>
      <point x="416" y="1210"/>
      <point x="316" y="1210" type="curve" smooth="yes"/>
      <point x="216" y="1210"/>
      <point x="142" y="1274"/>
      <point x="142" y="1360" type="curve"/>
      <point x="0" y="1360" type="line"/>
      <point x="0" y="1198"/>
      <point x="133" y="1080"/>
    </contour>
  </outline>
</glyph>
<glyph name="dotaccentcomb" format="2">
  <unicode hex="0307"/>
  <anchor x="110" y="920" name="_top"/>
  <anchor x="110" y="1410" name="top"/>
  <outline>
    <contour>
      <point x="110" y="1140" type="curve" smooth="yes"/>
      <point x="170" y="1140"/>
      <point x="220" y="1190"/>
      <point x="220" y="1250" type="curve" smooth="yes"/>
      <point x="220" y="1310"/>
      <point x="170" y="1360"/>
      <point x="110" y="1360" type="curve" smooth="yes"/>
      <point x="50" y="1360"/>
      <point x="0" y="1310"/>
      <point x="0" y="1250" type="curve" smooth="yes"/>
      <point x="0" y="1190"/>
      <point x="50" y="1140"/>
    </contour>
  </outline>
</glyph>
<glyph name="dieresiscomb" format="2">
  <unicode hex="0308"/>
  <anchor x="310" y="920" name="_top"/>
  <anchor x="310" y="1430" name="top"/>
  <outline>
    <contour>
      <point x="110" y="1210" type="curve" smooth="yes"/>
      <point x="176" y="1210"/>
      <point x="220" y="1254"/>
      <point x="220" y="1320" type="curve" smooth="yes"/>
      <point x="220" y="1386"/>
      <point x="176" y="1430"/>
      <point x="110" y="1430" type="curve" smooth="yes"/>
      <point x="44" y="1430"/>
      <point x="0" y="1386"/>
      <point x="0" y="1320" type="curve" smooth="yes"/>
      <point x="0" y="1254"/>
      <point x="44" y="1210"/>
    </contour>
    <contour>
      <point x="510" y="1210" type="curve" smooth="yes"/>
      <point x="576" y="1210"/>
      <point x="620" y="1254"/>
      <point x="620" y="1320" type="curve" smooth="yes"/>
      <point x="620" y="1386"/>
      <point x="576" y="1430"/>
      <point x="510" y="1430" type="curve" smooth="yes"/>
      <point x="444" y="1430"/>
      <point x="400" y="1386"/>
      <point x="400" y="1320" type="curve" smooth="yes"/>
      <point x="400" y="1254"/>
      <point x="444" y="1210"/>
    </contour>
  </outline>
</glyph>
<glyph name="ringcomb" format="2">
  <unicode hex="030A"/>
  <anchor x="225" y="920" name="_top"/>
  <anchor x="225" y="1480" name="top"/>
  <outline>
    <contour>
      <point x="225" y="1040" type="curve" smooth="yes"/>
      <point x="350" y="1040"/>
      <point x="450" y="1138"/>
      <point x="450" y="1260" type="curve" smooth="yes"/>
      <point x="450" y="1382"/>
      <point x="350" y="1480"/>
      <point x="225" y="1480" type="curve" smooth="yes"/>
      <point x="100" y="1480"/>
      <point x="0" y="1382"/>
      <point x="0" y="1260" type="curve" smooth="yes"/>
      <point x="0" y="1138"/>
      <point x="100" y="1040"/>
    </contour>
    <contour>
      <point x="225" y="1143" type="curve" smooth="yes"/>
      <point x="163" y="1143"/>
      <point x="113" y="1195"/>
      <point x="113" y="1260" type="curve" smooth="yes"/>
      <point x="113" y="1325"/>
      <point x="163" y="1377"/>
      <point x="225" y="1377" type="curve" smooth="yes"/>
      <point x="287" y="1377"/>
      <point x="337" y="1325"/>
      <point x="337" y="1260" type="curve" smooth="yes"/>
      <point x="337" y="1195"/>
      <point x="287" y="1143"/>
    </contour>
  </outline>
</glyph>
<glyph name="hungarumlautcomb" format="2">
  <unicode hex="030B"/>
  <anchor x="242" y="920" name="_top"/>
  <anchor x="242" y="1443" name="top"/>
  <outline>
    <contour>
      <point x="103" y="1022" type="line"/>
      <point x="373" y="1405" type="line"/>
      <point x="207" y="1443" type="line"/>
      <point x="0" y="1057" type="line"/>
    </contour>
    <contour>
      <point x="433" y="1022" type="line"/>
      <point x="703" y="1405" type="line"/>
      <point x="537" y="1443" type="line"/>
      <point x="330" y="1057" type="line"/>
    </contour>
  </outline>
</glyph>
<glyph name="caroncomb" format="2">
  <unicode hex="030C"/>
  <anchor x="302" y="920" name="_top"/>
  <anchor x="302" y="1453" name="top"/>
  <outline>
    <contour>
      <point x="302" y="1094" type="line"/>
      <point x="604" y="1355" type="line"/>
      <point x="522" y="1453" type="line"/>
      <point x="268" y="1234" type="line"/>
      <point x="336" y="1234" type="line"/>
      <point x="82" y="1453" type="line"/>
      <point x="0" y="1355" type="line"/>
    </contour>
  </outline>
</glyph>
<glyph name="commaturnedabovecomb" format="2">
  <unicode hex="0312"/>
  <anchor x="168" y="920" name="_top"/>
  <anchor x="168" y="1560" name="top"/>
  <outline>
    <contour>
      <point x="160" y="1000" type="line"/>
      <point x="336" y="1518" type="line"/>
      <point x="220" y="1560" type="line"/>
      <point x="0" y="1060" type="line"/>
    </contour>
  </outline>
</glyph>
<glyph name="commaaccentcomb" format="2">
  <unicode hex="0326"/>
  <anchor x="155" y="0" name="_bottom"/>
  <anchor x="155" y="-480" name="bottom"/>
  <outline>
    <contour>
      <point x="80" y="-440" type="line"/>
      <point x="308" y="-99" type="line"/>
      <point x="197" y="-34" type="line"/>
      <point x="0" y="-394" type="line"/>
    </contour>
  </outline>
</glyph>
<glyph name="cedillacomb" format="2">
  <unicode hex="0327"/>
  <anchor x="196" y="0" name="_bottom"/>
  <anchor x="196" y="-440" name="bottom"/>
  <outline>
    <contour>
      <point x="178" y="-440" type="curve" smooth="yes"/>
      <point x="302" y="-440"/>
      <point x="392" y="-361"/>
      <point x="392" y="-252" type="curve" smooth="yes"/>
      <point x="392" y="-172"/>
      <point x="332" y="-94"/>
      <point x="246" y="-94" type="curve" smooth="yes"/>
      <point x="196" y="-94"/>
      <point x="177" y="-105"/>
      <point x="158" y="-144" type="curve"/>
      <point x="206" y="-143" type="line"/>
      <point x="356" y="120" type="line"/>
      <point x="234" y="120" type="line"/>
      <point x="74" y="-186" type="line"/>
      <point x="100" y="-183"/>
      <point x="145" y="-180"/>
      <point x="178" y="-180" type="curve" smooth="yes"/>
      <point x="245" y="-180"/>
      <point x="278" y="-204"/>
      <point x="278" y="-252" type="curve" smooth="yes"/>
      <point x="278" y="-303"/>
      <point x="242" y="-332"/>
      <point x="178" y="-332" type="curve" smooth="yes"/>
      <point x="127" y="-332"/>
      <point x="101" y="-325"/>
      <point x="46" y="-294" type="curve"/>
      <point x="0" y="-384" type="line"/>
      <point x="56" y="-425"/>
      <point x="104" y="-440"/>
    </contour>
  </outline>
</glyph>
<glyph name="ogonekcomb" format="2">
  <unicode hex="0328"/>
  <anchor x="346" y="0" name="_ogonek"/>
  <outline>
    <contour>
      <point x="246" y="-440" type="curve" smooth="yes"/>
      <point x="332" y="-440"/>
      <point x="392" y="-400"/>
      <point x="422" y="-360" type="curve"/>
      <point x="356" y="-260" type="line"/>
      <point x="328" y="-286"/>
      <point x="308" y="-300"/>
      <point x="256" y="-300" type="curve" smooth="yes"/>
      <point x="196" y="-300"/>
      <point x="160" y="-272"/>
      <point x="160" y="-200" type="curve" smooth="yes"/>
      <point x="160" y="-126"/>
      <point x="242" y="-44"/>
      <point x="346" y="0" type="curve"/>
      <point x="264" y="50" type="line"/>
      <point x="124" y="-22"/>
      <point x="0" y="-122"/>
      <point x="0" y="-240" type="curve" smooth="yes"/>
      <point x="0" y="-358"/>
      <point x="78" y="-440"/>
    </contour>
  </outline>
</glyph>
<glyph name="Omega" format="2">
  <advance width="1200"/>
  <unicode hex="03A9"/>
  <outline>
    <contour>
      <point x="132" y="0" type="line"/>
      <point x="518" y="0" type="line"/>
      <point x="518" y="157" type="line"/>
      <point x="404" y="247"/>
      <point x="317" y="448"/>
      <point x="317" y="622" type="curve" smooth="yes"/>
      <point x="317" y="826"/>
      <point x="414" y="932"/>
      <point x="599" y="932" type="curve" smooth="yes"/>
      <point x="784" y="932"/>
      <point x="881" y="826"/>
      <point x="881" y="622" type="curve" smooth="yes"/>
      <point x="881" y="447"/>
      <point x="795" y="247"/>
      <point x="681" y="157" type="curve"/>
      <point x="681" y="0" type="line"/>
      <point x="1066" y="0" type="line"/>
      <point x="1066" y="137" type="line"/>
      <point x="892" y="137" type="line"/>
      <point x="997" y="282"/>
      <point x="1060" y="469"/>
      <point x="1060" y="634" type="curve" smooth="yes"/>
      <point x="1060" y="910"/>
      <point x="862" y="1118"/>
      <point x="599" y="1118" type="curve" smooth="yes"/>
      <point x="336" y="1118"/>
      <point x="138" y="910"/>
      <point x="138" y="634" type="curve" smooth="yes"/>
      <point x="138" y="469"/>
      <point x="201" y="282"/>
      <point x="306" y="137" type="curve"/>
      <point x="132" y="137" type="line"/>
    </contour>
  </outline>
</glyph>
<glyph name="pi" format="2">
  <advance width="1080"/>
  <unicode hex="03C0"/>
  <outline>
    <contour>
      <point x="946" y="-18" type="curve"/>
      <point x="946" y="142" type="line"/>
      <point x="886" y="142"/>
      <point x="840" y="150"/>
      <point x="840" y="282" type="curve" smooth="yes"/>
      <point x="840" y="770" type="line"/>
      <point x="1000" y="770" type="line"/>
      <point x="1000" y="920" type="line"/>
      <point x="60" y="920" type="line"/>
      <point x="60" y="770" type="line"/>
      <point x="180" y="770" type="line"/>
      <point x="180" y="0" type="line"/>
      <point x="340" y="0" type="line"/>
      <point x="340" y="770" type="line"/>
      <point x="680" y="770" type="line"/>
      <point x="680" y="242" type="line" smooth="yes"/>
      <point x="680" y="24"/>
      <point x="778" y="-18"/>
    </contour>
  </outline>
</glyph>
<glyph name="A-cy" format="2">
  <advance width="1320"/>
  <unicode hex="0410"/>
  <outline>
    <contour>
      <point x="10" y="0" type="line"/>
      <point x="200" y="0" type="line"/>
      <point x="378" y="420" type="line"/>
      <point x="942" y="420" type="line"/>
      <point x="1120" y="0" type="line"/>
      <point x="1310" y="0" type="line"/>
      <point x="660" y="1470" type="line"/>
    </contour>
    <contour>
      <point x="446" y="580" type="line"/>
      <point x="660" y="1084" type="line"/>
      <point x="874" y="580" type="line"/>
    </contour>
  </outline>
</glyph>
<glyph name="Ve-cy" format="2">
  <advance width="1116"/>
  <unicode hex="0412"/>
  <outline>
    <contour>
      <point x="160" y="0" type="line"/>
      <point x="540" y="0" type="line" smooth="yes"/>
      <point x="834" y="0"/>
      <point x="1016" y="154"/>
      <point x="1016" y="403" type="curve" smooth="yes"/>
      <point x="1016" y="595"/>
      <point x="908" y="721"/>
      <point x="705" y="764" type="curve"/>
      <point x="855" y="808"/>
      <point x="936" y="912"/>
      <point x="936" y="1064" type="curve" smooth="yes"/>
      <point x="936" y="1274"/>
      <point x="780" y="1400"/>
      <point x="520" y="1400" type="curve" smooth="yes"/>
      <point x="160" y="1400" type="line"/>
    </contour>
    <contour>
      <point x="330" y="150" type="line"/>
      <point x="330" y="686" type="line"/>
      <point x="540" y="686" type="line" smooth="yes"/>
      <point x="729" y="686"/>
      <point x="846" y="584"/>
      <point x="846" y="420" type="curve" smooth="yes"/>
      <point x="846" y="255"/>
      <point x="727" y="150"/>
      <point x="540" y="150" type="curve" smooth="yes"/>
    </contour>
    <contour>
      <point x="330" y="834" type="line"/>
      <point x="330" y="1250" type="line"/>
      <point x="520" y="1250" type="line" smooth="yes"/>
      <point x="667" y="1250"/>
      <point x="766" y="1166"/>
      <point x="766" y="1040" type="curve" smooth="yes"/>
      <point x="766" y="915"/>
      <point x="669" y="834"/>
      <point x="520" y="834" type="curve" smooth="yes"/>
    </contour>
  </outline>
</glyph>
<glyph name="Ge-cy" format="2">
  <advance width="870"/>
  <unicode hex="0413"/>
  <anchor x="850" y="0" name="bottomright"/>
  <anchor x="435" y="1400" name="top"/>
  <outline>
    <contour>
      <point x="160" y="0" type="line"/>
      <point x="330" y="0" type="line"/>
      <point x="330" y="1240" type="line"/>
      <point x="850" y="1240" type="line"/>
      <point x="850" y="1400" type="line"/>
      <point x="160" y="1400" type="line"/>
    </contour>
  </outline>
</glyph>
<glyph name="De-cy" format="2">
  <advance width="1660"/>
  <unicode hex="0414"/>
  <outline>
    <contour>
      <point x="300" y="120" type="curve"/>
      <point x="520" y="120" type="line"/>
      <point x="758" y="519"/>
      <point x="823" y="771"/>
      <point x="823" y="1296" type="curve"/>
      <point x="761" y="1233" type="line"/>
      <point x="1348" y="1233" type="line"/>
      <point x="1260" y="1310" type="line"/>
      <point x="1260" y="120" type="line"/>
      <point x="1430" y="120" type="line"/>
      <point x="1430" y="1400" type="line"/>
      <point x="653" y="1400" type="line"/>
      <point x="653" y="772"/>
      <point x="581" y="511"/>
    </contour>
    <contour>
      <point x="160" y="-220" type="line"/>
      <point x="330" y="-220" type="line"/>
      <point x="330" y="45" type="line"/>
      <point x="285" y="0" type="line"/>
      <point x="1455" y="0" type="line"/>
      <point x="1410" y="45" type="line"/>
      <point x="1410" y="-220" type="line"/>
      <point x="1580" y="-220" type="line"/>
      <point x="1580" y="160" type="line"/>
      <point x="160" y="160" type="line"/>
    </contour>
  </outline>
</glyph>
<glyph name="Ie-cy" format="2">
  <advance width="1100"/>
  <unicode hex="0415"/>
  <anchor x="570" y="1400" name="top"/>
  <outline>
    <contour>
      <point x="160" y="0" type="line"/>
      <point x="960" y="0" type="line"/>
      <point x="960" y="160" type="line"/>
      <point x="330" y="160" type="line"/>
      <point x="330" y="680" type="line"/>
      <point x="920" y="680" type="line"/>
      <point x="920" y="840" type="line"/>
      <point x="330" y="840" type="line"/>
      <point x="330" y="1240" type="line"/>
      <point x="960" y="1240" type="line"/>
      <point x="960" y="1400" type="line"/>
      <point x="160" y="1400" type="line"/>
    </contour>
  </outline>
</glyph>
<glyph name="Zhe-cy" format="2">
  <advance width="1790"/>
  <unicode hex="0416"/>
  <anchor x="1770" y="0" name="bottomright"/>
  <anchor x="895" y="1400" name="top"/>
  <outline>
    <contour>
      <point x="10" y="0" type="line"/>
      <point x="220" y="0" type="line"/>
      <point x="820" y="703" type="line"/>
      <point x="820" y="0" type="line"/>
      <point x="990" y="0" type="line"/>
      <point x="990" y="701" type="line"/>
      <point x="1570" y="0" type="line"/>
      <point x="1780" y="0" type="line"/>
      <point x="1144" y="744" type="line"/>
      <point x="1750" y="1400" type="line"/>
      <point x="1540" y="1400" type="line"/>
      <point x="990" y="776" type="line"/>
      <point x="990" y="1400" type="line"/>
      <point x="820" y="1400" type="line"/>
      <point x="820" y="775" type="line"/>
      <point x="250" y="1400" type="line"/>
      <point x="40" y="1400" type="line"/>
      <point x="646" y="744" type="line"/>
    </contour>
  </outline>
</glyph>
<glyph name="Ze-cy" format="2">
  <advance width="1212"/>
  <unicode hex="0417"/>
  <anchor x="606" y="0" name="bottom"/>
  <anchor x="606" y="1400" name="top"/>
  <outline>
    <contour>
      <point x="626" y="-20" type="curve" smooth="yes"/>
      <point x="931" y="-20"/>
      <point x="1122" y="131"/>
      <point x="1122" y="372" type="curve" smooth="yes"/>
      <point x="1122" y="552"/>
      <point x="1016" y="677"/>
      <point x="816" y="730" type="curve"/>
      <point x="985" y="792"/>
      <point x="1082" y="911"/>
      <point x="1082" y="1056" type="curve" smooth="yes"/>
      <point x="1082" y="1265"/>
      <point x="890" y="1420"/>
      <point x="629" y="1420" type="curve" smooth="yes"/>
      <point x="367" y="1420"/>
      <point x="180" y="1267"/>
      <point x="180" y="1052" type="curve"/>
      <point x="342" y="1052" type="line"/>
      <point x="342" y="1175"/>
      <point x="468" y="1266"/>
      <point x="639" y="1266" type="curve" smooth="yes"/>
      <point x="803" y="1266"/>
      <point x="908" y="1181"/>
      <point x="908" y="1048" type="curve" smooth="yes"/>
      <point x="908" y="897"/>
      <point x="774" y="800"/>
      <point x="566" y="800" type="curve"/>
      <point x="566" y="650" type="line"/>
      <point x="807" y="650"/>
      <point x="948" y="552"/>
      <point x="948" y="384" type="curve" smooth="yes"/>
      <point x="948" y="229"/>
      <point x="830" y="140"/>
      <point x="625" y="140" type="curve" smooth="yes"/>
      <point x="427" y="140"/>
      <point x="308" y="222"/>
      <point x="292" y="370" type="curve"/>
      <point x="120" y="370" type="line"/>
      <point x="120" y="133"/>
      <point x="319" y="-20"/>
    </contour>
  </outline>
</glyph>
<glyph name="Ii-cy" format="2">
  <advance width="1550"/>
  <unicode hex="0418"/>
  <anchor x="1530" y="0" name="bottomright"/>
  <anchor x="815" y="1400" name="top"/>
  <outline>
    <contour>
      <point x="160" y="-70" type="line"/>
      <point x="1220" y="1042" type="line"/>
      <point x="1220" y="0" type="line"/>
      <point x="1390" y="0" type="line"/>
      <point x="1390" y="1470" type="line"/>
      <point x="330" y="358" type="line"/>
      <point x="330" y="1400" type="line"/>
      <point x="160" y="1400" type="line"/>
    </contour>
  </outline>
</glyph>
<glyph name="El-cy" format="2">
  <advance width="1316"/>
  <unicode hex="041B"/>
  <outline>
    <contour>
      <point x="20" y="0" type="line"/>
      <point x="227" y="0"/>
      <point x="366" y="193"/>
      <point x="366" y="480" type="curve" smooth="yes"/>
      <point x="366" y="1240" type="line"/>
      <point x="986" y="1240" type="line"/>
      <point x="986" y="0" type="line"/>
      <point x="1156" y="0" type="line"/>
      <point x="1156" y="1400" type="line"/>
      <point x="206" y="1400" type="line"/>
      <point x="206" y="520" type="line" smooth="yes"/>
      <point x="206" y="293"/>
      <point x="133" y="146"/>
      <point x="20" y="146" type="curve"/>
    </contour>
  </outline>
</glyph>
<glyph name="Em-cy" format="2">
  <advance width="1620"/>
  <unicode hex="041C"/>
  <outline>
    <contour>
      <point x="80" y="0" type="line"/>
      <point x="250" y="0" type="line"/>
      <point x="354" y="946" type="line"/>
      <point x="810" y="130" type="line"/>
      <point x="1266" y="946" type="line"/>
      <point x="1370" y="0" type="line"/>
      <point x="1540" y="0" type="line"/>
      <point x="1370" y="1470" type="line"/>
      <point x="810" y="456" type="line"/>
      <point x="250" y="1470" type="line"/>
    </contour>
  </outline>
</glyph>
<glyph name="Pe-cy" format="2">
  <advance width="1430"/>
  <unicode hex="041F"/>
  <anchor x="1410" y="0" name="bottomright"/>
  <outline>
    <contour>
      <point x="160" y="0" type="line"/>
      <point x="330" y="0" type="line"/>
      <point x="330" y="1240" type="line"/>
      <point x="1100" y="1240" type="line"/>
      <point x="1100" y="0" type="line"/>
      <point x="1270" y="0" type="line"/>
      <point x="1270" y="1400" type="line"/>
      <point x="160" y="1400" type="line"/>
    </contour>
  </outline>
</glyph>
<glyph name="Te-cy" format="2">
  <advance width="930"/>
  <unicode hex="0422"/>
  <anchor x="910" y="0" name="bottomright"/>
  <outline>
    <contour>
      <point x="380" y="0" type="line"/>
      <point x="550" y="0" type="line"/>
      <point x="550" y="1240" type="line"/>
      <point x="910" y="1240" type="line"/>
      <point x="910" y="1400" type="line"/>
      <point x="20" y="1400" type="line"/>
      <point x="20" y="1240" type="line"/>
      <point x="380" y="1240" type="line"/>
    </contour>
  </outline>
</glyph>
<glyph name="U-cy" format="2">
  <advance width="1130"/>
  <unicode hex="0423"/>
  <anchor x="565" y="1400" name="top"/>
  <outline>
    <contour>
      <point x="282" y="0" type="line"/>
      <point x="472" y="0" type="line"/>
      <point x="1130" y="1400" type="line"/>
      <point x="940" y="1400" type="line"/>
      <point x="516" y="468" type="line"/>
      <point x="622" y="460" type="line"/>
      <point x="210" y="1400" type="line"/>
      <point x="0" y="1400" type="line"/>
      <point x="462" y="414" type="line"/>
    </contour>
  </outline>
</glyph>
<glyph name="Ef-cy" format="2">
  <advance width="1566"/>
  <unicode hex="0424"/>
  <outline>
    <contour>
      <point x="720" y="160" type="curve" smooth="yes"/>
      <point x="846" y="160" type="line" smooth="yes"/>
      <point x="1214" y="160"/>
      <point x="1486" y="362"/>
      <point x="1486" y="700" type="curve" smooth="yes"/>
      <point x="1486" y="1038"/>
      <point x="1214" y="1240"/>
      <point x="846" y="1240" type="curve" smooth="yes"/>
      <point x="720" y="1240" type="line" smooth="yes"/>
      <point x="352" y="1240"/>
      <point x="80" y="1038"/>
      <point x="80" y="700" type="curve" smooth="yes"/>
      <point x="80" y="362"/>
      <point x="352" y="160"/>
    </contour>
    <contour>
      <point x="720" y="330" type="line" smooth="yes"/>
      <point x="444" y="330"/>
      <point x="250" y="454"/>
      <point x="250" y="700" type="curve" smooth="yes"/>
      <point x="250" y="946"/>
      <point x="444" y="1070"/>
      <point x="720" y="1070" type="curve" smooth="yes"/>
      <point x="846" y="1070" type="line" smooth="yes"/>
      <point x="1122" y="1070"/>
      <point x="1316" y="946"/>
      <point x="1316" y="700" type="curve" smooth="yes"/>
      <point x="1316" y="454"/>
      <point x="1122" y="330"/>
      <point x="846" y="330" type="curve" smooth="yes"/>
    </contour>
    <contour>
      <point x="698" y="0" type="line"/>
      <point x="868" y="0" type="line"/>
      <point x="868" y="1400" type="line"/>
      <point x="698" y="1400" type="line"/>
    </contour>
  </outline>
</glyph>
<glyph name="Ha-cy" format="2">
  <advance width="1110"/>
  <unicode hex="0425"/>
  <anchor x="1090" y="0" name="bottomright"/>
  <outline>
    <contour>
      <point x="20" y="0" type="line"/>
      <point x="220" y="0" type="line"/>
      <point x="560" y="586" type="line"/>
      <point x="890" y="0" type="line"/>
      <point x="1090" y="0" type="line"/>
      <point x="646" y="734" type="line"/>
      <point x="1060" y="1400" type="line"/>
      <point x="860" y="1400" type="line"/>
      <point x="562" y="882" type="line"/>
      <point x="270" y="1400" type="line"/>
      <point x="70" y="1400" type="line"/>
      <point x="476" y="734" type="line"/>
    </contour>
  </outline>
</glyph>
<glyph name="Tse-cy" format="2">
  <advance width="1520"/>
  <unicode hex="0426"/>
  <outline>
    <contour>
      <point x="1290" y="-220" type="line"/>
      <point x="1440" y="-220" type="line"/>
      <point x="1440" y="160" type="line"/>
      <point x="1270" y="160" type="line"/>
      <point x="1270" y="1400" type="line"/>
      <point x="1100" y="1400" type="line"/>
      <point x="1100" y="160" type="line"/>
      <point x="330" y="160" type="line"/>
      <point x="330" y="1400" type="line"/>
      <point x="160" y="1400" type="line"/>
      <point x="160" y="0" type="line"/>
      <point x="1290" y="0" type="line"/>
    </contour>
  </outline>
</glyph>
<glyph name="Che-cy" format="2">
  <advance width="1230"/>
  <unicode hex="0427"/>
  <anchor x="1210" y="0" name="bottomright"/>
  <anchor x="615" y="1400" name="top"/>
  <outline>
    <contour>
      <point x="900" y="0" type="line"/>
      <point x="1070" y="0" type="line"/>
      <point x="1070" y="1400" type="line"/>
      <point x="900" y="1400" type="line"/>
      <point x="900" y="710" type="line"/>
      <point x="580" y="710" type="line" smooth="yes"/>
      <point x="408" y="710"/>
      <point x="320" y="856"/>
      <point x="320" y="1036" type="curve" smooth="yes"/>
      <point x="320" y="1400" type="line"/>
      <point x="160" y="1400" type="line"/>
      <point x="160" y="1036" type="line" smooth="yes"/>
      <point x="160" y="766"/>
      <point x="302" y="560"/>
      <point x="580" y="560" type="curve" smooth="yes"/>
      <point x="900" y="560" type="line"/>
    </contour>
  </outline>
</glyph>
<glyph name="Sha-cy" format="2">
  <advance width="1970"/>
  <unicode hex="0428"/>
  <outline>
    <contour>
      <point x="160" y="0" type="line"/>
      <point x="1810" y="0" type="line"/>
      <point x="1810" y="1400" type="line"/>
      <point x="1640" y="1400" type="line"/>
      <point x="1640" y="160" type="line"/>
      <point x="1070" y="160" type="line"/>
      <point x="1070" y="1400" type="line"/>
      <point x="900" y="1400" type="line"/>
      <point x="900" y="160" type="line"/>
      <point x="330" y="160" type="line"/>
      <point x="330" y="1400" type="line"/>
      <point x="160" y="1400" type="line"/>
    </contour>
  </outline>
</glyph>
<glyph name="Shcha-cy" format="2">
  <advance width="2060"/>
  <unicode hex="0429"/>
  <outline>
    <contour>
      <point x="1830" y="-220" type="line"/>
      <point x="1980" y="-220" type="line"/>
      <point x="1980" y="160" type="line"/>
      <point x="1810" y="160" type="line"/>
      <point x="1810" y="1400" type="line"/>
      <point x="1640" y="1400" type="line"/>
      <point x="1640" y="160" type="line"/>
      <point x="1070" y="160" type="line"/>
      <point x="1070" y="1400" type="line"/>
      <point x="900" y="1400" type="line"/>
      <point x="900" y="160" type="line"/>
      <point x="330" y="160" type="line"/>
      <point x="330" y="1400" type="line"/>
      <point x="160" y="1400" type="line"/>
      <point x="160" y="0" type="line"/>
      <point x="1830" y="0" type="line"/>
    </contour>
  </outline>
</glyph>
<glyph name="Hardsign-cy" format="2">
  <advance width="1316"/>
  <unicode hex="042A"/>
  <anchor x="658" y="1400" name="top"/>
  <outline>
    <contour>
      <point x="380" y="0" type="line"/>
      <point x="760" y="0" type="line" smooth="yes"/>
      <point x="1030" y="0"/>
      <point x="1236" y="162"/>
      <point x="1236" y="420" type="curve" smooth="yes"/>
      <point x="1236" y="678"/>
      <point x="1030" y="840"/>
      <point x="760" y="840" type="curve" smooth="yes"/>
      <point x="550" y="840" type="line"/>
      <point x="550" y="1400" type="line"/>
      <point x="20" y="1400" type="line"/>
      <point x="20" y="1240" type="line"/>
      <point x="380" y="1240" type="line"/>
    </contour>
    <contour>
      <point x="550" y="160" type="line"/>
      <point x="550" y="680" type="line"/>
      <point x="760" y="680" type="line" smooth="yes"/>
      <point x="940" y="680"/>
      <point x="1066" y="592"/>
      <point x="1066" y="420" type="curve" smooth="yes"/>
      <point x="1066" y="248"/>
      <point x="940" y="160"/>
      <point x="760" y="160" type="curve" smooth="yes"/>
    </contour>
  </outline>
</glyph>
<glyph name="Yeru-cy" format="2">
  <advance width="1530"/>
  <unicode hex="042B"/>
  <anchor x="765" y="1400" name="top"/>
  <outline>
    <contour>
      <point x="160" y="0" type="line"/>
      <point x="540" y="0" type="line" smooth="yes"/>
      <point x="810" y="0"/>
      <point x="1016" y="162"/>
      <point x="1016" y="420" type="curve" smooth="yes"/>
      <point x="1016" y="678"/>
      <point x="810" y="840"/>
      <point x="540" y="840" type="curve" smooth="yes"/>
      <point x="330" y="840" type="line"/>
      <point x="330" y="1400" type="line"/>
      <point x="160" y="1400" type="line"/>
    </contour>
    <contour>
      <point x="330" y="160" type="line"/>
      <point x="330" y="680" type="line"/>
      <point x="540" y="680" type="line" smooth="yes"/>
      <point x="720" y="680"/>
      <point x="846" y="592"/>
      <point x="846" y="420" type="curve" smooth="yes"/>
      <point x="846" y="248"/>
      <point x="720" y="160"/>
      <point x="540" y="160" type="curve" smooth="yes"/>
    </contour>
    <contour>
      <point x="1200" y="0" type="line"/>
      <point x="1370" y="0" type="line"/>
      <point x="1370" y="1400" type="line"/>
      <point x="1200" y="1400" type="line"/>
    </contour>
  </outline>
</glyph>
<glyph name="Ereversed-cy" format="2">
  <advance width="1310"/>
  <unicode hex="042D"/>
  <outline>
    <contour>
      <point x="529" y="-10" type="curve" smooth="yes"/>
      <point x="946" y="-10"/>
      <point x="1230" y="288"/>
      <point x="1230" y="710" type="curve" smooth="yes"/>
      <point x="1230" y="1135"/>
      <point x="943" y="1430"/>
      <point x="530" y="1430" type="curve" smooth="yes"/>
      <point x="351" y="1430"/>
      <point x="194" y="1376"/>
      <point x="80" y="1276" type="curve"/>
      <point x="80" y="1052" type="line"/>
      <point x="182" y="1181"/>
      <point x="353" y="1260"/>
      <point x="530" y="1260" type="curve" smooth="yes"/>
      <point x="800" y="1260"/>
      <point x="1009" y="1069"/>
      <point x="1045" y="790" type="curve"/>
      <point x="204" y="790" type="line"/>
      <point x="204" y="630" type="line"/>
      <point x="1045" y="630" type="line"/>
      <point x="1009" y="351"/>
      <point x="800" y="160"/>
      <point x="530" y="160" type="curve" smooth="yes"/>
      <point x="353" y="160"/>
      <point x="182" y="239"/>
      <point x="80" y="368" type="curve"/>
      <point x="80" y="144" type="line"/>
      <point x="194" y="44"/>
      <point x="351" y="-10"/>
    </contour>
  </outline>
</glyph>
<glyph name="Iu-cy" format="2">
  <advance width="2060"/>
  <unicode hex="042E"/>
  <anchor x="1030" y="1400" name="top"/>
  <outline>
    <contour>
      <point x="1270" y="-20" type="curve" smooth="yes"/>
      <point x="1678" y="-20"/>
      <point x="1980" y="292"/>
      <point x="1980" y="700" type="curve" smooth="yes"/>
      <point x="1980" y="1108"/>
      <point x="1678" y="1420"/>
      <point x="1270" y="1420" type="curve" smooth="yes"/>
      <point x="862" y="1420"/>
      <point x="560" y="1108"/>
      <point x="560" y="700" type="curve" smooth="yes"/>
      <point x="560" y="292"/>
      <point x="862" y="-20"/>
    </contour>
    <contour>
      <point x="160" y="0" type="line"/>
      <point x="330" y="0" type="line"/>
      <point x="330" y="1400" type="line"/>
      <point x="160" y="1400" type="line"/>
    </contour>
    <contour>
      <point x="254" y="680" type="line"/>
      <point x="694" y="680" type="line"/>
      <point x="694" y="840" type="line"/>
      <point x="254" y="840" type="line"/>
    </contour>
    <contour>
      <point x="1270" y="150" type="curve" smooth="yes"/>
      <point x="964" y="150"/>
      <point x="740" y="384"/>
      <point x="740" y="700" type="curve" smooth="yes"/>
      <point x="740" y="1016"/>
      <point x="964" y="1250"/>
      <point x="1270" y="1250" type="curve" smooth="yes"/>
      <point x="1576" y="1250"/>
      <point x="1800" y="1016"/>
      <point x="1800" y="700" type="curve" smooth="yes"/>
      <point x="1800" y="384"/>
      <point x="1576" y="150"/>
    </contour>
  </outline>
</glyph>
<glyph name="Ia-cy" format="2">
  <advance width="1120"/>
  <unicode hex="042F"/>
  <anchor x="560" y="1400" name="top"/>
  <outline>
    <contour>
      <point x="20" y="0" type="line"/>
      <point x="230" y="0" type="line"/>
      <point x="620" y="560" type="line"/>
      <point x="790" y="560" type="line"/>
      <point x="790" y="0" type="line"/>
      <point x="960" y="0" type="line"/>
      <point x="960" y="1400" type="line"/>
      <point x="580" y="1400" type="line" smooth="yes"/>
      <point x="310" y="1400"/>
      <point x="104" y="1238"/>
      <point x="104" y="980" type="curve" smooth="yes"/>
      <point x="104" y="770"/>
      <point x="241" y="623"/>
      <point x="438" y="576" type="curve"/>
    </contour>
    <contour>
      <point x="580" y="710" type="line" smooth="yes"/>
      <point x="400" y="710"/>
      <point x="274" y="808"/>
      <point x="274" y="980" type="curve" smooth="yes"/>
      <point x="274" y="1152"/>
      <point x="400" y="1250"/>
      <point x="580" y="1250" type="curve" smooth="yes"/>
      <point x="790" y="1250" type="line"/>
      <point x="790" y="710" type="line"/>
    </contour>
  </outline>
</glyph>
<glyph name="be-cy" format="2">
  <advance width="1092"/>
  <unicode hex="0431"/>
  <outline>
    <contour>
      <point x="540" y="-20" type="curve" smooth="yes"/>
      <point x="818" y="-20"/>
      <point x="1022" y="182"/>
      <point x="1022" y="459" type="curve" smooth="yes"/>
      <point x="1022" y="738"/>
      <point x="814" y="940"/>
      <point x="553" y="940" type="curve" smooth="yes"/>
      <point x="396" y="940"/>
      <point x="280" y="867"/>
      <point x="211" y="725" type="curve"/>
      <point x="231" y="961"/>
      <point x="293" y="1089"/>
      <point x="524" y="1182" type="curve" smooth="yes"/>
      <point x="637" y="1228"/>
      <point x="885" y="1301"/>
      <point x="926" y="1560" type="curve"/>
      <point x="768" y="1560" type="line"/>
      <point x="731" y="1414"/>
      <point x="617" y="1364"/>
      <point x="484" y="1312" type="curve" smooth="yes"/>
      <point x="344" y="1257"/>
      <point x="70" y="1151"/>
      <point x="70" y="622" type="curve" smooth="yes"/>
      <point x="70" y="163"/>
      <point x="276" y="-20"/>
    </contour>
    <contour>
      <point x="546" y="130" type="curve" smooth="yes"/>
      <point x="363" y="130"/>
      <point x="230" y="271"/>
      <point x="230" y="459" type="curve" smooth="yes"/>
      <point x="230" y="672"/>
      <point x="401" y="790"/>
      <point x="555" y="790" type="curve" smooth="yes"/>
      <point x="722" y="790"/>
      <point x="860" y="652"/>
      <point x="860" y="459" type="curve" smooth="yes"/>
      <point x="860" y="271"/>
      <point x="729" y="130"/>
    </contour>
  </outline>
</glyph>
<glyph name="ve-cy" format="2">
  <advance width="906"/>
  <unicode hex="0432"/>
  <outline>
    <contour>
      <point x="150" y="0" type="line"/>
      <point x="550" y="0" type="line" smooth="yes"/>
      <point x="760" y="0"/>
      <point x="846" y="112"/>
      <point x="846" y="250" type="curve" smooth="yes"/>
      <point x="846" y="379"/>
      <point x="769" y="442"/>
      <point x="654" y="467" type="curve"/>
      <point x="745" y="502"/>
      <point x="806" y="565"/>
      <point x="806" y="675" type="curve" smooth="yes"/>
      <point x="806" y="846"/>
      <point x="660" y="920"/>
      <point x="490" y="920" type="curve" smooth="yes"/>
      <point x="150" y="920" type="line"/>
    </contour>
    <contour>
      <point x="310" y="140" type="line"/>
      <point x="310" y="396" type="line"/>
      <point x="510" y="396" type="line" smooth="yes"/>
      <point x="630" y="396"/>
      <point x="686" y="342"/>
      <point x="686" y="270" type="curve" smooth="yes"/>
      <point x="686" y="198"/>
      <point x="630" y="140"/>
      <point x="510" y="140" type="curve" smooth="yes"/>
    </contour>
    <contour>
      <point x="310" y="534" type="line"/>
      <point x="310" y="780" type="line"/>
      <point x="490" y="780" type="line" smooth="yes"/>
      <point x="586" y="780"/>
      <point x="646" y="732"/>
      <point x="646" y="660" type="curve" smooth="yes"/>
      <point x="646" y="588"/>
      <point x="586" y="534"/>
      <point x="490" y="534" type="curve" smooth="yes"/>
    </contour>
  </outline>
</glyph>
<glyph name="de-cy" format="2">
  <advance width="1310"/>
  <unicode hex="0434"/>
  <outline>
    <contour>
      <point x="170" y="50" type="curve"/>
      <point x="355" y="50" type="line"/>
      <point x="520" y="253"/>
      <point x="646" y="478"/>
      <point x="646" y="851" type="curve"/>
      <point x="599" y="783" type="line"/>
      <point x="912" y="793" type="line"/>
      <point x="853" y="851" type="line"/>
      <point x="853" y="60" type="line"/>
      <point x="1013" y="60" type="line"/>
      <point x="1013" y="943" type="line"/>
      <point x="500" y="933" type="line"/>
      <point x="500" y="472"/>
      <point x="382" y="295"/>
    </contour>
    <contour>
      <point x="110" y="-180" type="line"/>
      <point x="270" y="-180" type="line"/>
      <point x="270" y="45" type="line"/>
      <point x="225" y="0" type="line"/>
      <point x="1035" y="0" type="line"/>
      <point x="990" y="45" type="line"/>
      <point x="990" y="-180" type="line"/>
      <point x="1150" y="-180" type="line"/>
      <point x="1150" y="150" type="line"/>
      <point x="110" y="150" type="line"/>
    </contour>
  </outline>
</glyph>
<glyph name="zhe-cy" format="2">
  <advance width="1350"/>
  <unicode hex="0436"/>
  <anchor x="1330" y="0" name="bottomright"/>
  <anchor x="675" y="920" name="top"/>
  <outline>
    <contour>
      <point x="0" y="0" type="line"/>
      <point x="200" y="0" type="line"/>
      <point x="600" y="491" type="line"/>
      <point x="600" y="0" type="line"/>
      <point x="750" y="0" type="line"/>
      <point x="750" y="491" type="line"/>
      <point x="1150" y="0" type="line"/>
      <point x="1350" y="0" type="line"/>
      <point x="890" y="520" type="line"/>
      <point x="1310" y="920" type="line"/>
      <point x="1110" y="920" type="line"/>
      <point x="750" y="578" type="line"/>
      <point x="750" y="920" type="line"/>
      <point x="600" y="920" type="line"/>
      <point x="600" y="578" type="line"/>
      <point x="240" y="920" type="line"/>
      <point x="40" y="920" type="line"/>
      <point x="460" y="520" type="line"/>
    </contour>
  </outline>
</glyph>
<glyph name="ze-cy" format="2">
  <advance width="952"/>
  <unicode hex="0437"/>
  <anchor x="476" y="0" name="bottom"/>
  <anchor x="502" y="940" name="top"/>
  <outline>
    <contour>
      <point x="496" y="-20" type="curve" smooth="yes"/>
      <point x="701" y="-20"/>
      <point x="862" y="106"/>
      <point x="862" y="266" type="curve" smooth="yes"/>
      <point x="862" y="367"/>
      <point x="798" y="446"/>
      <point x="682" y="489" type="curve"/>
      <point x="774" y="522"/>
      <point x="822" y="583"/>
      <point x="822" y="669" type="curve" smooth="yes"/>
      <point x="822" y="818"/>
      <point x="677" y="940"/>
      <point x="502" y="940" type="curve" smooth="yes"/>
      <point x="323" y="940"/>
      <point x="180" y="812"/>
      <point x="180" y="652" type="curve"/>
      <point x="342" y="652" type="line"/>
      <point x="342" y="734"/>
      <point x="413" y="796"/>
      <point x="508" y="796" type="curve" smooth="yes"/>
      <point x="596" y="796"/>
      <point x="658" y="748"/>
      <point x="658" y="678" type="curve" smooth="yes"/>
      <point x="658" y="605"/>
      <point x="593" y="560"/>
      <point x="486" y="560" type="curve"/>
      <point x="486" y="420" type="line"/>
      <point x="621" y="420"/>
      <point x="704" y="364"/>
      <point x="704" y="272" type="curve" smooth="yes"/>
      <point x="704" y="181"/>
      <point x="620" y="120"/>
      <point x="496" y="120" type="curve" smooth="yes"/>
      <point x="377" y="120"/>
      <point x="307" y="176"/>
      <point x="282" y="290" type="curve"/>
      <point x="120" y="290" type="line"/>
      <point x="141" y="105"/>
      <point x="292" y="-20"/>
    </contour>
  </outline>
</glyph>
<glyph name="ii-cy" format="2">
  <advance width="1090"/>
  <unicode hex="0438"/>
  <anchor x="1070" y="0" name="bottomright"/>
  <anchor x="545" y="920" name="top"/>
  <outline>
    <contour>
      <point x="160" y="-70" type="line"/>
      <point x="770" y="596" type="line"/>
      <point x="770" y="0" type="line"/>
      <point x="930" y="0" type="line"/>
      <point x="930" y="990" type="line"/>
      <point x="320" y="324" type="line"/>
      <point x="320" y="920" type="line"/>
      <point x="160" y="920" type="line"/>
    </contour>
  </outline>
</glyph>
<glyph name="ka-cy" format="2">
  <advance width="880"/>
  <unicode hex="043A"/>
  <anchor x="860" y="0" name="bottomright"/>
  <anchor x="440" y="920" name="top"/>
  <outline>
    <contour>
      <point x="680" y="0" type="line"/>
      <point x="880" y="0" type="line"/>
      <point x="440" y="540" type="line"/>
      <point x="840" y="920" type="line"/>
      <point x="640" y="920" type="line"/>
      <point x="240" y="540" type="line"/>
    </contour>
    <contour>
      <point x="140" y="0" type="line"/>
      <point x="300" y="0" type="line"/>
      <point x="300" y="920" type="line"/>
      <point x="140" y="920" type="line"/>
    </contour>
  </outline>
</glyph>
<glyph name="em-cy" format="2">
  <advance width="1214"/>
  <unicode hex="043C"/>
  <outline>
    <contour>
      <point x="604" y="-62" type="line"/>
      <point x="914" y="535" type="line"/>
      <point x="1024" y="0" type="line"/>
      <point x="1204" y="0" type="line"/>
      <point x="964" y="990" type="line"/>
      <point x="604" y="261" type="line"/>
      <point x="250" y="990" type="line"/>
      <point x="10" y="0" type="line"/>
      <point x="190" y="0" type="line"/>
      <point x="300" y="534" type="line"/>
    </contour>
  </outline>
</glyph>
<glyph name="en-cy" format="2">
  <advance width="1130"/>
  <unicode hex="043D"/>
  <anchor x="1110" y="0" name="bottomright"/>
  <outline>
    <contour>
      <point x="150" y="0" type="line"/>
      <point x="310" y="0" type="line"/>
      <point x="310" y="410" type="line"/>
      <point x="820" y="410" type="line"/>
      <point x="820" y="0" type="line"/>
      <point x="980" y="0" type="line"/>
      <point x="980" y="920" type="line"/>
      <point x="820" y="920" type="line"/>
      <point x="820" y="560" type="line"/>
      <point x="310" y="560" type="line"/>
      <point x="310" y="920" type="line"/>
      <point x="150" y="920" type="line"/>
    </contour>
  </outline>
</glyph>
<glyph name="es-cy" format="2">
  <advance width="956"/>
  <unicode hex="0441"/>
  <anchor x="936" y="0" name="bottomright"/>
  <outline>
    <contour>
      <point x="538" y="-20" type="curve" smooth="yes"/>
      <point x="662" y="-20"/>
      <point x="792" y="22"/>
      <point x="856" y="98" type="curve"/>
      <point x="856" y="298" type="line"/>
      <point x="814" y="208"/>
      <point x="682" y="130"/>
      <point x="541" y="130" type="curve" smooth="yes"/>
      <point x="354" y="130"/>
      <point x="222" y="268"/>
      <point x="222" y="460" type="curve" smooth="yes"/>
      <point x="222" y="652"/>
      <point x="354" y="790"/>
      <point x="541" y="790" type="curve" smooth="yes"/>
      <point x="682" y="790"/>
      <point x="814" y="712"/>
      <point x="856" y="622" type="curve"/>
      <point x="856" y="822" type="line"/>
      <point x="792" y="896"/>
      <point x="662" y="940"/>
      <point x="536" y="940" type="curve" smooth="yes"/>
      <point x="266" y="940"/>
      <point x="60" y="738"/>
      <point x="60" y="460" type="curve" smooth="yes"/>
      <point x="60" y="185"/>
      <point x="263" y="-20"/>
    </contour>
  </outline>
</glyph>
<glyph name="te-cy" format="2">
  <advance width="560"/>
  <unicode hex="0442"/>
  <anchor x="540" y="0" name="bottomright"/>
  <outline>
    <contour>
      <point x="200" y="0" type="line"/>
      <point x="360" y="0" type="line"/>
      <point x="360" y="770" type="line"/>
      <point x="550" y="770" type="line"/>
      <point x="550" y="920" type="line"/>
      <point x="10" y="920" type="line"/>
      <point x="10" y="770" type="line"/>
      <point x="200" y="770" type="line"/>
    </contour>
  </outline>
</glyph>
<glyph name="ef-cy" format="2">
  <advance width="1172"/>
  <unicode hex="0444"/>
  <outline>
    <contour>
      <point x="506" y="-200" type="line"/>
      <point x="666" y="-200" type="line"/>
      <point x="666" y="-15" type="line"/>
      <point x="929" y="16"/>
      <point x="1102" y="205"/>
      <point x="1102" y="460" type="curve" smooth="yes"/>
      <point x="1102" y="715"/>
      <point x="929" y="904"/>
      <point x="666" y="935" type="curve"/>
      <point x="666" y="1120" type="line"/>
      <point x="506" y="1120" type="line"/>
      <point x="506" y="935" type="line"/>
      <point x="243" y="904"/>
      <point x="70" y="715"/>
      <point x="70" y="460" type="curve" smooth="yes"/>
      <point x="70" y="205"/>
      <point x="243" y="16"/>
      <point x="506" y="-15" type="curve"/>
    </contour>
    <contour>
      <point x="506" y="137" type="line"/>
      <point x="337" y="165"/>
      <point x="232" y="290"/>
      <point x="232" y="460" type="curve" smooth="yes"/>
      <point x="232" y="630"/>
      <point x="337" y="755"/>
      <point x="506" y="783" type="curve"/>
    </contour>
    <contour>
      <point x="666" y="137" type="curve"/>
      <point x="666" y="783" type="line"/>
      <point x="835" y="755"/>
      <point x="940" y="630"/>
      <point x="940" y="460" type="curve" smooth="yes"/>
      <point x="940" y="290"/>
      <point x="835" y="165"/>
    </contour>
  </outline>
</glyph>
<glyph name="ha-cy" format="2">
  <advance width="840"/>
  <unicode hex="0445"/>
  <anchor x="820" y="0" name="bottomright"/>
  <outline>
    <contour>
      <point x="0" y="0" type="line"/>
      <point x="180" y="0" type="line"/>
      <point x="420" y="348" type="line"/>
      <point x="660" y="0" type="line"/>
      <point x="840" y="0" type="line"/>
      <point x="506" y="474" type="line"/>
      <point x="820" y="920" type="line"/>
      <point x="640" y="920" type="line"/>
      <point x="420" y="600" type="line"/>
      <point x="200" y="920" type="line"/>
      <point x="20" y="920" type="line"/>
      <point x="334" y="474" type="line"/>
    </contour>
  </outline>
</glyph>
<glyph name="tse-cy" format="2">
  <advance width="1130"/>
  <unicode hex="0446"/>
  <outline>
    <contour>
      <point x="920" y="-180" type="line"/>
      <point x="1060" y="-180" type="line"/>
      <point x="1060" y="150" type="line"/>
      <point x="900" y="150" type="line"/>
      <point x="900" y="920" type="line"/>
      <point x="740" y="920" type="line"/>
      <point x="740" y="150" type="line"/>
      <point x="310" y="150" type="line"/>
      <point x="310" y="920" type="line"/>
      <point x="150" y="920" type="line"/>
      <point x="150" y="0" type="line"/>
      <point x="920" y="0" type="line"/>
    </contour>
  </outline>
</glyph>
<glyph name="che-cy" format="2">
  <advance width="970"/>
  <unicode hex="0447"/>
  <anchor x="950" y="0" name="bottomright"/>
  <anchor x="485" y="920" name="top"/>
  <outline>
    <contour>
      <point x="660" y="0" type="line"/>
      <point x="820" y="0" type="line"/>
      <point x="820" y="920" type="line"/>
      <point x="660" y="920" type="line"/>
      <point x="660" y="430" type="line"/>
      <point x="460" y="430" type="line" smooth="yes"/>
      <point x="313" y="430"/>
      <point x="260" y="490"/>
      <point x="260" y="656" type="curve" smooth="yes"/>
      <point x="260" y="920" type="line"/>
      <point x="100" y="920" type="line"/>
      <point x="100" y="656" type="line" smooth="yes"/>
      <point x="100" y="376"/>
      <point x="192" y="280"/>
      <point x="460" y="280" type="curve" smooth="yes"/>
      <point x="660" y="280" type="line"/>
    </contour>
  </outline>
</glyph>
<glyph name="sha-cy" format="2">
  <advance width="1560"/>
  <unicode hex="0448"/>
  <outline>
    <contour>
      <point x="150" y="0" type="line"/>
      <point x="1410" y="0" type="line"/>
      <point x="1410" y="920" type="line"/>
      <point x="1250" y="920" type="line"/>
      <point x="1250" y="150" type="line"/>
      <point x="860" y="150" type="line"/>
      <point x="860" y="920" type="line"/>
      <point x="700" y="920" type="line"/>
      <point x="700" y="150" type="line"/>
      <point x="310" y="150" type="line"/>
      <point x="310" y="920" type="line"/>
      <point x="150" y="920" type="line"/>
    </contour>
  </outline>
</glyph>
<glyph name="shcha-cy" format="2">
  <advance width="1640"/>
  <unicode hex="0449"/>
  <outline>
    <contour>
      <point x="1430" y="-180" type="line"/>
      <point x="1570" y="-180" type="line"/>
      <point x="1570" y="150" type="line"/>
      <point x="1410" y="150" type="line"/>
      <point x="1410" y="920" type="line"/>
      <point x="1250" y="920" type="line"/>
      <point x="1250" y="150" type="line"/>
      <point x="860" y="150" type="line"/>
      <point x="860" y="920" type="line"/>
      <point x="700" y="920" type="line"/>
      <point x="700" y="150" type="line"/>
      <point x="310" y="150" type="line"/>
      <point x="310" y="920" type="line"/>
      <point x="150" y="920" type="line"/>
      <point x="150" y="0" type="line"/>
      <point x="1430" y="0" type="line"/>
    </contour>
  </outline>
</glyph>
<glyph name="hardsign-cy" format="2">
  <advance width="1156"/>
  <unicode hex="044A"/>
  <outline>
    <contour>
      <point x="340" y="0" type="line"/>
      <point x="720" y="0" type="line" smooth="yes"/>
      <point x="931" y="0"/>
      <point x="1056" y="106"/>
      <point x="1056" y="286" type="curve" smooth="yes"/>
      <point x="1056" y="466"/>
      <point x="931" y="572"/>
      <point x="720" y="572" type="curve" smooth="yes"/>
      <point x="500" y="572" type="line"/>
      <point x="500" y="920" type="line"/>
      <point x="10" y="920" type="line"/>
      <point x="10" y="770" type="line"/>
      <point x="340" y="770" type="line"/>
    </contour>
    <contour>
      <point x="500" y="140" type="line"/>
      <point x="500" y="432" type="line"/>
      <point x="720" y="432" type="line" smooth="yes"/>
      <point x="833" y="432"/>
      <point x="896" y="380"/>
      <point x="896" y="286" type="curve" smooth="yes"/>
      <point x="896" y="192"/>
      <point x="833" y="140"/>
      <point x="720" y="140" type="curve" smooth="yes"/>
    </contour>
  </outline>
</glyph>
<glyph name="yeru-cy" format="2">
  <advance width="1290"/>
  <unicode hex="044B"/>
  <anchor x="645" y="920" name="top"/>
  <outline>
    <contour>
      <point x="150" y="0" type="line"/>
      <point x="530" y="0" type="line" smooth="yes"/>
      <point x="741" y="0"/>
      <point x="866" y="106"/>
      <point x="866" y="286" type="curve" smooth="yes"/>
      <point x="866" y="466"/>
      <point x="741" y="572"/>
      <point x="530" y="572" type="curve" smooth="yes"/>
      <point x="310" y="572" type="line"/>
      <point x="310" y="920" type="line"/>
      <point x="150" y="920" type="line"/>
    </contour>
    <contour>
      <point x="310" y="140" type="line"/>
      <point x="310" y="432" type="line"/>
      <point x="530" y="432" type="line" smooth="yes"/>
      <point x="643" y="432"/>
      <point x="706" y="380"/>
      <point x="706" y="286" type="curve" smooth="yes"/>
      <point x="706" y="192"/>
      <point x="643" y="140"/>
      <point x="530" y="140" type="curve" smooth="yes"/>
    </contour>
    <contour>
      <point x="980" y="0" type="line"/>
      <point x="1140" y="0" type="line"/>
      <point x="1140" y="920" type="line"/>
      <point x="980" y="920" type="line"/>
    </contour>
  </outline>
</glyph>
<glyph name="softsign-cy" format="2">
  <advance width="966"/>
  <unicode hex="044C"/>
  <outline>
    <contour>
      <point x="150" y="0" type="line"/>
      <point x="530" y="0" type="line" smooth="yes"/>
      <point x="741" y="0"/>
      <point x="866" y="106"/>
      <point x="866" y="286" type="curve" smooth="yes"/>
      <point x="866" y="466"/>
      <point x="741" y="572"/>
      <point x="530" y="572" type="curve" smooth="yes"/>
      <point x="310" y="572" type="line"/>
      <point x="310" y="920" type="line"/>
      <point x="150" y="920" type="line"/>
    </contour>
    <contour>
      <point x="310" y="140" type="line"/>
      <point x="310" y="432" type="line"/>
      <point x="530" y="432" type="line" smooth="yes"/>
      <point x="643" y="432"/>
      <point x="706" y="380"/>
      <point x="706" y="286" type="curve" smooth="yes"/>
      <point x="706" y="192"/>
      <point x="643" y="140"/>
      <point x="530" y="140" type="curve" smooth="yes"/>
    </contour>
  </outline>
</glyph>
<glyph name="ereversed-cy" format="2">
  <advance width="956"/>
  <unicode hex="044D"/>
  <anchor x="478" y="920" name="top"/>
  <outline>
    <contour>
      <point x="418" y="-20" type="curve" smooth="yes"/>
      <point x="694" y="-20"/>
      <point x="896" y="186"/>
      <point x="896" y="460" type="curve" smooth="yes"/>
      <point x="896" y="738"/>
      <point x="690" y="940"/>
      <point x="420" y="940" type="curve" smooth="yes"/>
      <point x="294" y="940"/>
      <point x="164" y="896"/>
      <point x="100" y="822" type="curve"/>
      <point x="100" y="622" type="line"/>
      <point x="142" y="712"/>
      <point x="274" y="790"/>
      <point x="415" y="790" type="curve" smooth="yes"/>
      <point x="602" y="790"/>
      <point x="734" y="652"/>
      <point x="734" y="460" type="curve" smooth="yes"/>
      <point x="734" y="268"/>
      <point x="602" y="130"/>
      <point x="415" y="130" type="curve" smooth="yes"/>
      <point x="274" y="130"/>
      <point x="142" y="208"/>
      <point x="100" y="298" type="curve"/>
      <point x="100" y="98" type="line"/>
      <point x="164" y="22"/>
      <point x="294" y="-20"/>
    </contour>
    <contour>
      <point x="274" y="386" type="line"/>
      <point x="734" y="386" type="line"/>
      <point x="874" y="534" type="line"/>
      <point x="274" y="534" type="line"/>
    </contour>
  </outline>
</glyph>
<glyph name="iu-cy" format="2">
  <advance width="1492"/>
  <unicode hex="044E"/>
  <anchor x="746" y="920" name="top"/>
  <outline>
    <contour>
      <point x="946" y="-20" type="curve" smooth="yes"/>
      <point x="1219" y="-20"/>
      <point x="1422" y="185"/>
      <point x="1422" y="460" type="curve" smooth="yes"/>
      <point x="1422" y="735"/>
      <point x="1218" y="940"/>
      <point x="946" y="940" type="curve" smooth="yes"/>
      <point x="711" y="940"/>
      <point x="522" y="787"/>
      <point x="479" y="560" type="curve"/>
      <point x="310" y="560" type="line"/>
      <point x="310" y="920" type="line"/>
      <point x="150" y="920" type="line"/>
      <point x="150" y="0" type="line"/>
      <point x="310" y="0" type="line"/>
      <point x="310" y="410" type="line"/>
      <point x="472" y="410" type="line"/>
      <point x="495" y="158"/>
      <point x="692" y="-20"/>
    </contour>
    <contour>
      <point x="946" y="130" type="curve" smooth="yes"/>
      <point x="765" y="130"/>
      <point x="632" y="269"/>
      <point x="632" y="460" type="curve" smooth="yes"/>
      <point x="632" y="651"/>
      <point x="765" y="790"/>
      <point x="946" y="790" type="curve" smooth="yes"/>
      <point x="1127" y="790"/>
      <point x="1260" y="651"/>
      <point x="1260" y="460" type="curve" smooth="yes"/>
      <point x="1260" y="269"/>
      <point x="1127" y="130"/>
    </contour>
  </outline>
</glyph>
<glyph name="ia-cy" format="2">
  <advance width="966"/>
  <unicode hex="044F"/>
  <anchor x="483" y="920" name="top"/>
  <outline>
    <contour>
      <point x="706" y="0" type="line"/>
      <point x="866" y="0" type="line"/>
      <point x="866" y="920" type="line"/>
      <point x="486" y="920" type="line" smooth="yes"/>
      <point x="270" y="920"/>
      <point x="150" y="821"/>
      <point x="150" y="644" type="curve" smooth="yes"/>
      <point x="150" y="467"/>
      <point x="270" y="368"/>
      <point x="486" y="368" type="curve" smooth="yes"/>
      <point x="706" y="368" type="line"/>
    </contour>
    <contour>
      <point x="106" y="0" type="line"/>
      <point x="282" y="0" type="line"/>
      <point x="622" y="480" type="line"/>
      <point x="446" y="480" type="line"/>
    </contour>
    <contour>
      <point x="486" y="508" type="line" smooth="yes"/>
      <point x="368" y="508"/>
      <point x="310" y="553"/>
      <point x="310" y="644" type="curve" smooth="yes"/>
      <point x="310" y="735"/>
      <point x="368" y="780"/>
      <point x="486" y="780" type="curve" smooth="yes"/>
      <point x="706" y="780" type="line"/>
      <point x="706" y="508" type="line"/>
    </contour>
  </outline>
</glyph>
